<mxfile host="Electron" modified="2024-12-01T11:54:02.813Z" agent="Mozilla/5.0 (Macintosh; Intel Mac OS X 10_15_7) AppleWebKit/537.36 (KHTML, like Gecko) draw.io/23.1.5 Chrome/120.0.6099.109 Electron/28.1.0 Safari/537.36" etag="Q4HqUsiyfFzBIQS-7nfw" version="23.1.5" type="device" pages="3">
  <diagram id="_y4aEheeYsgY1qAzGcNK" name="1-high-level">
    <mxGraphModel dx="742" dy="561" grid="1" gridSize="10" guides="1" tooltips="1" connect="1" arrows="1" fold="1" page="1" pageScale="1" pageWidth="850" pageHeight="1100" math="0" shadow="0">
      <root>
        <mxCell id="0" />
        <mxCell id="1" parent="0" />
        <mxCell id="Sk71gqs1Jf_tAJcl1YL8-1" value="AWS Step Functions&lt;br&gt;Workflow" style="sketch=0;points=[[0,0,0],[0.25,0,0],[0.5,0,0],[0.75,0,0],[1,0,0],[0,1,0],[0.25,1,0],[0.5,1,0],[0.75,1,0],[1,1,0],[0,0.25,0],[0,0.5,0],[0,0.75,0],[1,0.25,0],[1,0.5,0],[1,0.75,0]];outlineConnect=0;fontColor=#232F3E;fillColor=none;strokeColor=#E7157B;dashed=0;verticalLabelPosition=bottom;verticalAlign=top;align=center;html=1;fontSize=12;fontStyle=0;aspect=fixed;shape=mxgraph.aws4.resourceIcon;resIcon=mxgraph.aws4.express_workflow;" vertex="1" parent="1">
          <mxGeometry x="360" y="160" width="80" height="80" as="geometry" />
        </mxCell>
        <mxCell id="Sk71gqs1Jf_tAJcl1YL8-2" value="CloudWatch Event&lt;br&gt;0 4 * * 6" style="sketch=0;outlineConnect=0;fontColor=#232F3E;gradientColor=none;fillColor=#E7157B;strokeColor=none;dashed=0;verticalLabelPosition=bottom;verticalAlign=top;align=center;html=1;fontSize=12;fontStyle=0;aspect=fixed;pointerEvents=1;shape=mxgraph.aws4.event_time_based;" vertex="1" parent="1">
          <mxGeometry x="210" y="170" width="60" height="60" as="geometry" />
        </mxCell>
        <mxCell id="Sk71gqs1Jf_tAJcl1YL8-3" value="trigger" style="edgeStyle=orthogonalEdgeStyle;rounded=0;orthogonalLoop=1;jettySize=auto;html=1;entryX=0;entryY=0.5;entryDx=0;entryDy=0;entryPerimeter=0;" edge="1" parent="1" source="Sk71gqs1Jf_tAJcl1YL8-2" target="Sk71gqs1Jf_tAJcl1YL8-1">
          <mxGeometry relative="1" as="geometry" />
        </mxCell>
        <mxCell id="Sk71gqs1Jf_tAJcl1YL8-4" value="1" style="ellipse;whiteSpace=wrap;html=1;aspect=fixed;fillColor=#f5f5f5;fontColor=#333333;strokeColor=#666666;" vertex="1" parent="1">
          <mxGeometry x="270" y="150" width="20" height="20" as="geometry" />
        </mxCell>
        <mxCell id="Sk71gqs1Jf_tAJcl1YL8-6" value="2" style="ellipse;whiteSpace=wrap;html=1;aspect=fixed;fillColor=#f5f5f5;fontColor=#333333;strokeColor=#666666;" vertex="1" parent="1">
          <mxGeometry x="430" y="150" width="20" height="20" as="geometry" />
        </mxCell>
        <mxCell id="Sk71gqs1Jf_tAJcl1YL8-7" value="" style="rounded=0;whiteSpace=wrap;html=1;fillColor=none;strokeColor=none;" vertex="1" parent="1">
          <mxGeometry x="80" y="80" width="480" height="280" as="geometry" />
        </mxCell>
      </root>
    </mxGraphModel>
  </diagram>
  <diagram id="s-4MZKQFiAmwMwAn5dSp" name="2-sfn">
    <mxGraphModel dx="742" dy="561" grid="1" gridSize="10" guides="1" tooltips="1" connect="1" arrows="1" fold="1" page="1" pageScale="1" pageWidth="850" pageHeight="1100" math="0" shadow="0">
      <root>
        <mxCell id="0" />
        <mxCell id="1" parent="0" />
        <mxCell id="nLrIEQVjL-Z6JXCKeAqr-1" value="" style="shape=image;verticalLabelPosition=bottom;labelBackgroundColor=default;verticalAlign=top;imageAspect=0;image=data:image/svg+xml,PHN2ZyB4bWxucz0iaHR0cDovL3d3dy53My5vcmcvMjAwMC9zdmciIGhlaWdodD0iNzUyIiB3aWR0aD0iNjAyIiBhcmlhLWxhYmVsbGVkYnk9InBvbHltYXRoLWdyYXBoLXRpdGxlIiByb2xlPSJpbWciIGRhdGEtdGVzdGlkPSJncmFwaCIgY2xhc3M9InNjLVNyem5BIGlKUUt4cCBncmFwaCIgdmlld0JveD0iMCAwIDYwMiA3NTIiPiYjeGE7PHRpdGxlIGlkPSJwb2x5bWF0aC1ncmFwaC10aXRsZSI+V29ya2Zsb3cgU3R1ZGlvIFN0YXRlIE1hY2hpbmUgR3JhcGg8L3RpdGxlPiYjeGE7PGcgY2xhc3M9Im5ldy1sb29rLWdyYXBoIiB0cmFuc2Zvcm09InRyYW5zbGF0ZSgxMiwxMikiPiYjeGE7PGcgY2xhc3M9Im5vZGVzIj4mI3hhOzxnIHRyYW5zZm9ybT0idHJhbnNsYXRlKDMxOCwyMikiIGNsYXNzPSJub2RlLWNvbnRhaW5lciI+JiN4YTs8Zz4mI3hhOzxjaXJjbGUgcj0iMjIiIGNsYXNzPSJzYy1pTVRuVEwgakhkaGZ6IHNoYXBlIi8+JiN4YTs8dGV4dCBjbGFzcz0ic2Mtak1ha1ZvIFFla2JpIGxhYmVsIj4mI3hhOzx0c3BhbiBhbGlnbm1lbnQtYmFzZWxpbmU9ImNlbnRyYWwiIHRleHQtYW5jaG9yPSJtaWRkbGUiIHhtbDpzcGFjZT0icHJlc2VydmUiPlN0YXJ0PC90c3Bhbj4mI3hhOzwvdGV4dD4mI3hhOzwvZz4mI3hhOzwvZz4mI3hhOzxnIHRyYW5zZm9ybT0idHJhbnNsYXRlKDMxOCwxMDMuNSkiIGNsYXNzPSJub2RlLWNvbnRhaW5lciI+JiN4YTs8ZyBkYXRhLXN0YXRlLXR5cGU9IlRhc2siIGRhdGEtc3RhdGUtaWQ9IkNoZWNrIGlmIHRoZSBFeHBvcnQgSm9iIGlzIEFscmVhZHkgRG9uZSIgZGF0YS10ZXN0aWQ9ImdyYXBoLUNoZWNrIGlmIHRoZSBFeHBvcnQgSm9iIGlzIEFscmVhZHkgRG9uZSIgY2xhc3M9InNjLWZqdnZ6dCBielVabGEgbm9kZSBzdGF0ZSBUYXNrIj4mI3hhOzxnIGNsYXNzPSJuZXctbG9vay1zdGF0ZS1ub2RlIj4mI3hhOzxyZWN0IHJ5PSIzIiByeD0iMyIgaGVpZ2h0PSI0OSIgd2lkdGg9IjMzMSIgeT0iLTI0LjUiIHg9Ii0xNjUuNSIvPiYjeGE7PGcgdHJhbnNmb3JtPSJ0cmFuc2xhdGUoLTE2NS41LC0yNC41KSIgY2xhc3M9ImhhbmRsZSI+JiN4YTs8cGF0aCBkPSJNNSwxNiBMNSwzNCBNOCwxNiBMOCwzNCIvPiYjeGE7PC9nPiYjeGE7PGcgdHJhbnNmb3JtPSJ0cmFuc2xhdGUoLTE0OS41LC0yNCkiIGNsYXNzPSJpY29uIj4mI3hhOzxyZWN0IGhlaWdodD0iNDgiIHdpZHRoPSI0OCIgeT0iMC4wMTgxMjkxOTY3IiB4PSIwLjAzNjEwMjYxMDgiIGZpbGw9InZhcigtLWNvbG9yLWJhY2tncm91bmQtY29udGFpbmVyLWhlYWRlci05ZWtwemUsICNmYWZhZmEpIi8+JiN4YTs8bGluZSBzdHJva2UtbGluZWNhcD0ic3F1YXJlIiBzdHJva2U9InZhcigtLWNvbG9yLWJvYXJkLXBsYWNlaG9sZGVyLWFjdGl2ZS1lNzFxZGEsICNkNWRiZGIpIiB5Mj0iNDcuNSIgeDI9IjQ3LjUiIHkxPSIwLjQ5MTIyODA3IiB4MT0iNDcuNSIvPiYjeGE7PGxpbmUgc3Ryb2tlLWxpbmVjYXA9InNxdWFyZSIgc3Ryb2tlPSJ2YXIoLS1jb2xvci1ib2FyZC1wbGFjZWhvbGRlci1hY3RpdmUtZTcxcWRhLCAjZDVkYmRiKSIgeTI9IjQ3LjUiIHgyPSIwLjUiIHkxPSIwLjQ5MTIyODA3IiB4MT0iMC41Ii8+JiN4YTs8dXNlIGFyaWEtaGlkZGVuPSJ0cnVlIiBocmVmPSIjaWNvbi1zZXJ2aWNlLWxhbSI+JiN4YTs8dGl0bGU+TGFtYmRhPC90aXRsZT4mI3hhOzwvdXNlPiYjeGE7PC9nPiYjeGE7PGcgdHJhbnNmb3JtPSJ0cmFuc2xhdGUoLTkzLjUsLTI0LjUpIiBjbGFzcz0idGV4dC1saW5lcyI+JiN4YTs8dGV4dCBjbGFzcz0ibGluZTEiIHRyYW5zZm9ybT0idHJhbnNsYXRlKDAsMTcpIj4mI3hhOzx0c3BhbiB0ZXh0LWFuY2hvcj0ic3RhcnQiIHhtbDpzcGFjZT0icHJlc2VydmUiPkxhbWJkYTogSW52b2tlPC90c3Bhbj4mI3hhOzwvdGV4dD4mI3hhOzx0ZXh0IGNsYXNzPSJsaW5lMiBsYWJlbCIgdHJhbnNmb3JtPSJ0cmFuc2xhdGUoMCwzNS41KSI+JiN4YTs8dHNwYW4gdGV4dC1hbmNob3I9InN0YXJ0IiB4bWw6c3BhY2U9InByZXNlcnZlIj5DaGVjayBpZiB0aGUgRXhwb3J0IEpvYiBpcyBBbHJlYWR5IERvbmU8L3RzcGFuPiYjeGE7PC90ZXh0PiYjeGE7PC9nPiYjeGE7PC9nPiYjeGE7PC9nPiYjeGE7PC9nPiYjeGE7PGcgdHJhbnNmb3JtPSJ0cmFuc2xhdGUoMzE4LDE4Ny41KSIgY2xhc3M9Im5vZGUtY29udGFpbmVyIj4mI3hhOzxnIGRhdGEtc3RhdGUtdHlwZT0iVGFzayIgZGF0YS1zdGF0ZS1pZD0iU3RhcnQgRXhwb3J0IEpvYiIgZGF0YS10ZXN0aWQ9ImdyYXBoLVN0YXJ0IEV4cG9ydCBKb2IiIGNsYXNzPSJzYy1manZ2enQgYnpVWmxhIG5vZGUgc3RhdGUgVGFzayI+JiN4YTs8ZyBjbGFzcz0ibmV3LWxvb2stc3RhdGUtbm9kZSI+JiN4YTs8cmVjdCByeT0iMyIgcng9IjMiIGhlaWdodD0iNDkiIHdpZHRoPSIyOTQiIHk9Ii0yNC41IiB4PSItMTQ3Ii8+JiN4YTs8ZyB0cmFuc2Zvcm09InRyYW5zbGF0ZSgtMTQ3LC0yNC41KSIgY2xhc3M9ImhhbmRsZSI+JiN4YTs8cGF0aCBkPSJNNSwxNiBMNSwzNCBNOCwxNiBMOCwzNCIvPiYjeGE7PC9nPiYjeGE7PGcgdHJhbnNmb3JtPSJ0cmFuc2xhdGUoLTEzMSwtMjQpIiBjbGFzcz0iaWNvbiI+JiN4YTs8cmVjdCBoZWlnaHQ9IjQ4IiB3aWR0aD0iNDgiIHk9IjAuMDE4MTI5MTk2NyIgeD0iMC4wMzYxMDI2MTA4IiBmaWxsPSJ2YXIoLS1jb2xvci1iYWNrZ3JvdW5kLWNvbnRhaW5lci1oZWFkZXItOWVrcHplLCAjZmFmYWZhKSIvPiYjeGE7PGxpbmUgc3Ryb2tlLWxpbmVjYXA9InNxdWFyZSIgc3Ryb2tlPSJ2YXIoLS1jb2xvci1ib2FyZC1wbGFjZWhvbGRlci1hY3RpdmUtZTcxcWRhLCAjZDVkYmRiKSIgeTI9IjQ3LjUiIHgyPSI0Ny41IiB5MT0iMC40OTEyMjgwNyIgeDE9IjQ3LjUiLz4mI3hhOzxsaW5lIHN0cm9rZS1saW5lY2FwPSJzcXVhcmUiIHN0cm9rZT0idmFyKC0tY29sb3ItYm9hcmQtcGxhY2Vob2xkZXItYWN0aXZlLWU3MXFkYSwgI2Q1ZGJkYikiIHkyPSI0Ny41IiB4Mj0iMC41IiB5MT0iMC40OTEyMjgwNyIgeDE9IjAuNSIvPiYjeGE7PHVzZSBhcmlhLWhpZGRlbj0idHJ1ZSIgaHJlZj0iI2ljb24tc2VydmljZS1kZGIiPiYjeGE7PHRpdGxlPkR5bmFtb0RCPC90aXRsZT4mI3hhOzwvdXNlPiYjeGE7PC9nPiYjeGE7PGcgdHJhbnNmb3JtPSJ0cmFuc2xhdGUoLTc1LC0yNC41KSIgY2xhc3M9InRleHQtbGluZXMiPiYjeGE7PHRleHQgY2xhc3M9ImxpbmUxIiB0cmFuc2Zvcm09InRyYW5zbGF0ZSgwLDE3KSI+JiN4YTs8dHNwYW4gdGV4dC1hbmNob3I9InN0YXJ0IiB4bWw6c3BhY2U9InByZXNlcnZlIj5EeW5hbW9EQjogRXhwb3J0VGFibGVUb1BvaW50SW5UaW1lPC90c3Bhbj4mI3hhOzwvdGV4dD4mI3hhOzx0ZXh0IGNsYXNzPSJsaW5lMiBsYWJlbCIgdHJhbnNmb3JtPSJ0cmFuc2xhdGUoMCwzNS41KSI+JiN4YTs8dHNwYW4gdGV4dC1hbmNob3I9InN0YXJ0IiB4bWw6c3BhY2U9InByZXNlcnZlIj5TdGFydCBFeHBvcnQgSm9iPC90c3Bhbj4mI3hhOzwvdGV4dD4mI3hhOzwvZz4mI3hhOzwvZz4mI3hhOzwvZz4mI3hhOzwvZz4mI3hhOzxnIHRyYW5zZm9ybT0idHJhbnNsYXRlKDMxOCwyNzEuNSkiIGNsYXNzPSJub2RlLWNvbnRhaW5lciI+JiN4YTs8ZyBkYXRhLXN0YXRlLXR5cGU9IldhaXQiIGRhdGEtc3RhdGUtaWQ9IldhaXQgMzAgU2Vjb25kcyIgZGF0YS10ZXN0aWQ9ImdyYXBoLVdhaXQgMzAgU2Vjb25kcyIgY2xhc3M9InNjLWZqdnZ6dCBielVabGEgbm9kZSBzdGF0ZSBXYWl0Ij4mI3hhOzxnIGNsYXNzPSJuZXctbG9vay1zdGF0ZS1ub2RlIj4mI3hhOzxyZWN0IHJ5PSIzIiByeD0iMyIgaGVpZ2h0PSI0OSIgd2lkdGg9IjI0MCIgeT0iLTI0LjUiIHg9Ii0xMjAiLz4mI3hhOzxnIHRyYW5zZm9ybT0idHJhbnNsYXRlKC0xMjAsLTI0LjUpIiBjbGFzcz0iaGFuZGxlIj4mI3hhOzxwYXRoIGQ9Ik01LDE2IEw1LDM0IE04LDE2IEw4LDM0Ii8+JiN4YTs8L2c+JiN4YTs8ZyB0cmFuc2Zvcm09InRyYW5zbGF0ZSgtMTA0LC0yNCkiIGNsYXNzPSJpY29uIj4mI3hhOzxyZWN0IGhlaWdodD0iNDgiIHdpZHRoPSI0OCIgeT0iMC4wMTgxMjkxOTY3IiB4PSIwLjAzNjEwMjYxMDgiIGZpbGw9InZhcigtLWNvbG9yLWJhY2tncm91bmQtY29udGFpbmVyLWhlYWRlci05ZWtwemUsICNmYWZhZmEpIi8+JiN4YTs8bGluZSBzdHJva2UtbGluZWNhcD0ic3F1YXJlIiBzdHJva2U9InZhcigtLWNvbG9yLWJvYXJkLXBsYWNlaG9sZGVyLWFjdGl2ZS1lNzFxZGEsICNkNWRiZGIpIiB5Mj0iNDcuNSIgeDI9IjQ3LjUiIHkxPSIwLjQ5MTIyODA3IiB4MT0iNDcuNSIvPiYjeGE7PGxpbmUgc3Ryb2tlLWxpbmVjYXA9InNxdWFyZSIgc3Ryb2tlPSJ2YXIoLS1jb2xvci1ib2FyZC1wbGFjZWhvbGRlci1hY3RpdmUtZTcxcWRhLCAjZDVkYmRiKSIgeTI9IjQ3LjUiIHgyPSIwLjUiIHkxPSIwLjQ5MTIyODA3IiB4MT0iMC41Ii8+JiN4YTs8dXNlIGhyZWY9IiNpY29uLWZsb3ctd2FpdCIvPiYjeGE7PC9nPiYjeGE7PGcgdHJhbnNmb3JtPSJ0cmFuc2xhdGUoLTQ4LC0yNC41KSIgY2xhc3M9InRleHQtbGluZXMiPiYjeGE7PHRleHQgY2xhc3M9ImxpbmUxIiB0cmFuc2Zvcm09InRyYW5zbGF0ZSgwLDE3KSI+JiN4YTs8dHNwYW4gdGV4dC1hbmNob3I9InN0YXJ0IiB4bWw6c3BhY2U9InByZXNlcnZlIj5XYWl0IHN0YXRlPC90c3Bhbj4mI3hhOzwvdGV4dD4mI3hhOzx0ZXh0IGNsYXNzPSJsaW5lMiBsYWJlbCIgdHJhbnNmb3JtPSJ0cmFuc2xhdGUoMCwzNS41KSI+JiN4YTs8dHNwYW4gdGV4dC1hbmNob3I9InN0YXJ0IiB4bWw6c3BhY2U9InByZXNlcnZlIj5XYWl0IDMwIFNlY29uZHM8L3RzcGFuPiYjeGE7PC90ZXh0PiYjeGE7PC9nPiYjeGE7PC9nPiYjeGE7PC9nPiYjeGE7PC9nPiYjeGE7PGcgdHJhbnNmb3JtPSJ0cmFuc2xhdGUoMjQwLjUsMzU1LjUpIiBjbGFzcz0ibm9kZS1jb250YWluZXIiPiYjeGE7PGcgZGF0YS1zdGF0ZS10eXBlPSJUYXNrIiBkYXRhLXN0YXRlLWlkPSJDaGVjayBFeHBvcnQgSm9iIFN0YXR1cyIgZGF0YS10ZXN0aWQ9ImdyYXBoLUNoZWNrIEV4cG9ydCBKb2IgU3RhdHVzIiBjbGFzcz0ic2MtZmp2dnp0IGJ6VVpsYSBub2RlIHN0YXRlIFRhc2siPiYjeGE7PGcgY2xhc3M9Im5ldy1sb29rLXN0YXRlLW5vZGUiPiYjeGE7PHJlY3Qgcnk9IjMiIHJ4PSIzIiBoZWlnaHQ9IjQ5IiB3aWR0aD0iMjQwIiB5PSItMjQuNSIgeD0iLTEyMCIvPiYjeGE7PGcgdHJhbnNmb3JtPSJ0cmFuc2xhdGUoLTEyMCwtMjQuNSkiIGNsYXNzPSJoYW5kbGUiPiYjeGE7PHBhdGggZD0iTTUsMTYgTDUsMzQgTTgsMTYgTDgsMzQiLz4mI3hhOzwvZz4mI3hhOzxnIHRyYW5zZm9ybT0idHJhbnNsYXRlKC0xMDQsLTI0KSIgY2xhc3M9Imljb24iPiYjeGE7PHJlY3QgaGVpZ2h0PSI0OCIgd2lkdGg9IjQ4IiB5PSIwLjAxODEyOTE5NjciIHg9IjAuMDM2MTAyNjEwOCIgZmlsbD0idmFyKC0tY29sb3ItYmFja2dyb3VuZC1jb250YWluZXItaGVhZGVyLTlla3B6ZSwgI2ZhZmFmYSkiLz4mI3hhOzxsaW5lIHN0cm9rZS1saW5lY2FwPSJzcXVhcmUiIHN0cm9rZT0idmFyKC0tY29sb3ItYm9hcmQtcGxhY2Vob2xkZXItYWN0aXZlLWU3MXFkYSwgI2Q1ZGJkYikiIHkyPSI0Ny41IiB4Mj0iNDcuNSIgeTE9IjAuNDkxMjI4MDciIHgxPSI0Ny41Ii8+JiN4YTs8bGluZSBzdHJva2UtbGluZWNhcD0ic3F1YXJlIiBzdHJva2U9InZhcigtLWNvbG9yLWJvYXJkLXBsYWNlaG9sZGVyLWFjdGl2ZS1lNzFxZGEsICNkNWRiZGIpIiB5Mj0iNDcuNSIgeDI9IjAuNSIgeTE9IjAuNDkxMjI4MDciIHgxPSIwLjUiLz4mI3hhOzx1c2UgYXJpYS1oaWRkZW49InRydWUiIGhyZWY9IiNpY29uLXNlcnZpY2UtZGRiIj4mI3hhOzx0aXRsZT5EeW5hbW9EQjwvdGl0bGU+JiN4YTs8L3VzZT4mI3hhOzwvZz4mI3hhOzxnIHRyYW5zZm9ybT0idHJhbnNsYXRlKC00OCwtMjQuNSkiIGNsYXNzPSJ0ZXh0LWxpbmVzIj4mI3hhOzx0ZXh0IGNsYXNzPSJsaW5lMSIgdHJhbnNmb3JtPSJ0cmFuc2xhdGUoMCwxNykiPiYjeGE7PHRzcGFuIHRleHQtYW5jaG9yPSJzdGFydCIgeG1sOnNwYWNlPSJwcmVzZXJ2ZSI+RHluYW1vREI6IERlc2NyaWJlRXhwb3J0PC90c3Bhbj4mI3hhOzwvdGV4dD4mI3hhOzx0ZXh0IGNsYXNzPSJsaW5lMiBsYWJlbCIgdHJhbnNmb3JtPSJ0cmFuc2xhdGUoMCwzNS41KSI+JiN4YTs8dHNwYW4gdGV4dC1hbmNob3I9InN0YXJ0IiB4bWw6c3BhY2U9InByZXNlcnZlIj5DaGVjayBFeHBvcnQgSm9iIFN0YXR1czwvdHNwYW4+JiN4YTs8L3RleHQ+JiN4YTs8L2c+JiN4YTs8L2c+JiN4YTs8L2c+JiN4YTs8L2c+JiN4YTs8ZyB0cmFuc2Zvcm09InRyYW5zbGF0ZSgzMTgsNDM5LjUpIiBjbGFzcz0ibm9kZS1jb250YWluZXIiPiYjeGE7PGcgZGF0YS1zdGF0ZS10eXBlPSJDaG9pY2UiIGRhdGEtc3RhdGUtaWQ9IkpvYiBDb21wbGV0ZT8iIGRhdGEtdGVzdGlkPSJncmFwaC1Kb2IgQ29tcGxldGU/IiBjbGFzcz0ic2MtZmp2dnp0IGJ6VVpsYSBub2RlIHN0YXRlIENob2ljZSI+JiN4YTs8ZyBjbGFzcz0ibmV3LWxvb2stc3RhdGUtbm9kZSI+JiN4YTs8cmVjdCByeT0iMyIgcng9IjMiIGhlaWdodD0iNDkiIHdpZHRoPSIyNDAiIHk9Ii0yNC41IiB4PSItMTIwIi8+JiN4YTs8ZyB0cmFuc2Zvcm09InRyYW5zbGF0ZSgtMTIwLC0yNC41KSIgY2xhc3M9ImhhbmRsZSI+JiN4YTs8cGF0aCBkPSJNNSwxNiBMNSwzNCBNOCwxNiBMOCwzNCIvPiYjeGE7PC9nPiYjeGE7PGcgdHJhbnNmb3JtPSJ0cmFuc2xhdGUoLTEwNCwtMjQpIiBjbGFzcz0iaWNvbiI+JiN4YTs8cmVjdCBoZWlnaHQ9IjQ4IiB3aWR0aD0iNDgiIHk9IjAuMDE4MTI5MTk2NyIgeD0iMC4wMzYxMDI2MTA4IiBmaWxsPSJ2YXIoLS1jb2xvci1iYWNrZ3JvdW5kLWNvbnRhaW5lci1oZWFkZXItOWVrcHplLCAjZmFmYWZhKSIvPiYjeGE7PGxpbmUgc3Ryb2tlLWxpbmVjYXA9InNxdWFyZSIgc3Ryb2tlPSJ2YXIoLS1jb2xvci1ib2FyZC1wbGFjZWhvbGRlci1hY3RpdmUtZTcxcWRhLCAjZDVkYmRiKSIgeTI9IjQ3LjUiIHgyPSI0Ny41IiB5MT0iMC40OTEyMjgwNyIgeDE9IjQ3LjUiLz4mI3hhOzxsaW5lIHN0cm9rZS1saW5lY2FwPSJzcXVhcmUiIHN0cm9rZT0idmFyKC0tY29sb3ItYm9hcmQtcGxhY2Vob2xkZXItYWN0aXZlLWU3MXFkYSwgI2Q1ZGJkYikiIHkyPSI0Ny41IiB4Mj0iMC41IiB5MT0iMC40OTEyMjgwNyIgeDE9IjAuNSIvPiYjeGE7PHVzZSBocmVmPSIjaWNvbi1mbG93LWNob2ljZSIvPiYjeGE7PC9nPiYjeGE7PGcgdHJhbnNmb3JtPSJ0cmFuc2xhdGUoLTQ4LC0yNC41KSIgY2xhc3M9InRleHQtbGluZXMiPiYjeGE7PHRleHQgY2xhc3M9ImxpbmUxIiB0cmFuc2Zvcm09InRyYW5zbGF0ZSgwLDE3KSI+JiN4YTs8dHNwYW4gdGV4dC1hbmNob3I9InN0YXJ0IiB4bWw6c3BhY2U9InByZXNlcnZlIj5DaG9pY2Ugc3RhdGU8L3RzcGFuPiYjeGE7PC90ZXh0PiYjeGE7PHRleHQgY2xhc3M9ImxpbmUyIGxhYmVsIiB0cmFuc2Zvcm09InRyYW5zbGF0ZSgwLDM1LjUpIj4mI3hhOzx0c3BhbiB0ZXh0LWFuY2hvcj0ic3RhcnQiIHhtbDpzcGFjZT0icHJlc2VydmUiPkpvYiBDb21wbGV0ZT88L3RzcGFuPiYjeGE7PC90ZXh0PiYjeGE7PC9nPiYjeGE7PC9nPiYjeGE7PC9nPiYjeGE7PC9nPiYjeGE7PGcgdHJhbnNmb3JtPSJ0cmFuc2xhdGUoNDU4LDYyNCkiIGNsYXNzPSJub2RlLWNvbnRhaW5lciI+JiN4YTs8ZyBkYXRhLXN0YXRlLXR5cGU9IkZhaWwiIGRhdGEtc3RhdGUtaWQ9IkZhaWwiIGRhdGEtdGVzdGlkPSJncmFwaC1GYWlsIiBjbGFzcz0ic2MtZmp2dnp0IGJ6VVpsYSBub2RlIHN0YXRlIEZhaWwiPiYjeGE7PGcgY2xhc3M9Im5ldy1sb29rLXN0YXRlLW5vZGUiPiYjeGE7PHJlY3Qgcnk9IjMiIHJ4PSIzIiBoZWlnaHQ9IjQ5IiB3aWR0aD0iMjQwIiB5PSItMjQuNSIgeD0iLTEyMCIvPiYjeGE7PGcgdHJhbnNmb3JtPSJ0cmFuc2xhdGUoLTEyMCwtMjQuNSkiIGNsYXNzPSJoYW5kbGUiPiYjeGE7PHBhdGggZD0iTTUsMTYgTDUsMzQgTTgsMTYgTDgsMzQiLz4mI3hhOzwvZz4mI3hhOzxnIHRyYW5zZm9ybT0idHJhbnNsYXRlKC0xMDQsLTI0KSIgY2xhc3M9Imljb24iPiYjeGE7PHJlY3QgaGVpZ2h0PSI0OCIgd2lkdGg9IjQ4IiB5PSIwLjAxODEyOTE5NjciIHg9IjAuMDM2MTAyNjEwOCIgZmlsbD0idmFyKC0tY29sb3ItYmFja2dyb3VuZC1jb250YWluZXItaGVhZGVyLTlla3B6ZSwgI2ZhZmFmYSkiLz4mI3hhOzxsaW5lIHN0cm9rZS1saW5lY2FwPSJzcXVhcmUiIHN0cm9rZT0idmFyKC0tY29sb3ItYm9hcmQtcGxhY2Vob2xkZXItYWN0aXZlLWU3MXFkYSwgI2Q1ZGJkYikiIHkyPSI0Ny41IiB4Mj0iNDcuNSIgeTE9IjAuNDkxMjI4MDciIHgxPSI0Ny41Ii8+JiN4YTs8bGluZSBzdHJva2UtbGluZWNhcD0ic3F1YXJlIiBzdHJva2U9InZhcigtLWNvbG9yLWJvYXJkLXBsYWNlaG9sZGVyLWFjdGl2ZS1lNzFxZGEsICNkNWRiZGIpIiB5Mj0iNDcuNSIgeDI9IjAuNSIgeTE9IjAuNDkxMjI4MDciIHgxPSIwLjUiLz4mI3hhOzx1c2UgaHJlZj0iI2ljb24tZmxvdy1mYWlsIi8+JiN4YTs8L2c+JiN4YTs8ZyB0cmFuc2Zvcm09InRyYW5zbGF0ZSgtNDgsLTI0LjUpIiBjbGFzcz0idGV4dC1saW5lcyI+JiN4YTs8dGV4dCBjbGFzcz0ibGluZTEiIHRyYW5zZm9ybT0idHJhbnNsYXRlKDAsMTcpIj4mI3hhOzx0c3BhbiB0ZXh0LWFuY2hvcj0ic3RhcnQiIHhtbDpzcGFjZT0icHJlc2VydmUiPkZhaWwgc3RhdGU8L3RzcGFuPiYjeGE7PC90ZXh0PiYjeGE7PHRleHQgY2xhc3M9ImxpbmUyIGxhYmVsIiB0cmFuc2Zvcm09InRyYW5zbGF0ZSgwLDM1LjUpIj4mI3hhOzx0c3BhbiB0ZXh0LWFuY2hvcj0ic3RhcnQiIHhtbDpzcGFjZT0icHJlc2VydmUiPkZhaWw8L3RzcGFuPiYjeGE7PC90ZXh0PiYjeGE7PC9nPiYjeGE7PC9nPiYjeGE7PC9nPiYjeGE7PC9nPiYjeGE7PGcgdHJhbnNmb3JtPSJ0cmFuc2xhdGUoMTc4LDU0MCkiIGNsYXNzPSJub2RlLWNvbnRhaW5lciI+JiN4YTs8ZyBkYXRhLXN0YXRlLXR5cGU9IlBhc3MiIGRhdGEtc3RhdGUtaWQ9IkRldGFpbGVkIFRyYW5zZm9ybWF0aW9uIFByb2Nlc3MgR29lcyBIZXJlIiBkYXRhLXRlc3RpZD0iZ3JhcGgtRGV0YWlsZWQgVHJhbnNmb3JtYXRpb24gUHJvY2VzcyBHb2VzIEhlcmUiIGNsYXNzPSJzYy1manZ2enQgYnpVWmxhIG5vZGUgc3RhdGUgUGFzcyI+JiN4YTs8ZyBjbGFzcz0ibmV3LWxvb2stc3RhdGUtbm9kZSI+JiN4YTs8cmVjdCByeT0iMyIgcng9IjMiIGhlaWdodD0iNDkiIHdpZHRoPSIzNTYiIHk9Ii0yNC41IiB4PSItMTc4Ii8+JiN4YTs8ZyB0cmFuc2Zvcm09InRyYW5zbGF0ZSgtMTc4LC0yNC41KSIgY2xhc3M9ImhhbmRsZSI+JiN4YTs8cGF0aCBkPSJNNSwxNiBMNSwzNCBNOCwxNiBMOCwzNCIvPiYjeGE7PC9nPiYjeGE7PGcgdHJhbnNmb3JtPSJ0cmFuc2xhdGUoLTE2MiwtMjQpIiBjbGFzcz0iaWNvbiI+JiN4YTs8cmVjdCBoZWlnaHQ9IjQ4IiB3aWR0aD0iNDgiIHk9IjAuMDE4MTI5MTk2NyIgeD0iMC4wMzYxMDI2MTA4IiBmaWxsPSJ2YXIoLS1jb2xvci1iYWNrZ3JvdW5kLWNvbnRhaW5lci1oZWFkZXItOWVrcHplLCAjZmFmYWZhKSIvPiYjeGE7PGxpbmUgc3Ryb2tlLWxpbmVjYXA9InNxdWFyZSIgc3Ryb2tlPSJ2YXIoLS1jb2xvci1ib2FyZC1wbGFjZWhvbGRlci1hY3RpdmUtZTcxcWRhLCAjZDVkYmRiKSIgeTI9IjQ3LjUiIHgyPSI0Ny41IiB5MT0iMC40OTEyMjgwNyIgeDE9IjQ3LjUiLz4mI3hhOzxsaW5lIHN0cm9rZS1saW5lY2FwPSJzcXVhcmUiIHN0cm9rZT0idmFyKC0tY29sb3ItYm9hcmQtcGxhY2Vob2xkZXItYWN0aXZlLWU3MXFkYSwgI2Q1ZGJkYikiIHkyPSI0Ny41IiB4Mj0iMC41IiB5MT0iMC40OTEyMjgwNyIgeDE9IjAuNSIvPiYjeGE7PHVzZSBocmVmPSIjaWNvbi1mbG93LXBhc3MiLz4mI3hhOzwvZz4mI3hhOzxnIHRyYW5zZm9ybT0idHJhbnNsYXRlKC0xMDYsLTI0LjUpIiBjbGFzcz0idGV4dC1saW5lcyI+JiN4YTs8dGV4dCBjbGFzcz0ibGluZTEiIHRyYW5zZm9ybT0idHJhbnNsYXRlKDAsMTcpIj4mI3hhOzx0c3BhbiB0ZXh0LWFuY2hvcj0ic3RhcnQiIHhtbDpzcGFjZT0icHJlc2VydmUiPlBhc3Mgc3RhdGU8L3RzcGFuPiYjeGE7PC90ZXh0PiYjeGE7PHRleHQgY2xhc3M9ImxpbmUyIGxhYmVsIiB0cmFuc2Zvcm09InRyYW5zbGF0ZSgwLDM1LjUpIj4mI3hhOzx0c3BhbiB0ZXh0LWFuY2hvcj0ic3RhcnQiIHhtbDpzcGFjZT0icHJlc2VydmUiPkRldGFpbGVkIFRyYW5zZm9ybWF0aW9uIFByb2Nlc3MgR29lcyBIZXJlPC90c3Bhbj4mI3hhOzwvdGV4dD4mI3hhOzwvZz4mI3hhOzwvZz4mI3hhOzwvZz4mI3hhOzwvZz4mI3hhOzxnIHRyYW5zZm9ybT0idHJhbnNsYXRlKDE3OCw2MjQpIiBjbGFzcz0ibm9kZS1jb250YWluZXIiPiYjeGE7PGcgZGF0YS1zdGF0ZS10eXBlPSJTdWNjZWVkIiBkYXRhLXN0YXRlLWlkPSJTdWNjZXNzIiBkYXRhLXRlc3RpZD0iZ3JhcGgtU3VjY2VzcyIgY2xhc3M9InNjLWZqdnZ6dCBielVabGEgbm9kZSBzdGF0ZSBTdWNjZWVkIj4mI3hhOzxnIGNsYXNzPSJuZXctbG9vay1zdGF0ZS1ub2RlIj4mI3hhOzxyZWN0IHJ5PSIzIiByeD0iMyIgaGVpZ2h0PSI0OSIgd2lkdGg9IjI0MCIgeT0iLTI0LjUiIHg9Ii0xMjAiLz4mI3hhOzxnIHRyYW5zZm9ybT0idHJhbnNsYXRlKC0xMjAsLTI0LjUpIiBjbGFzcz0iaGFuZGxlIj4mI3hhOzxwYXRoIGQ9Ik01LDE2IEw1LDM0IE04LDE2IEw4LDM0Ii8+JiN4YTs8L2c+JiN4YTs8ZyB0cmFuc2Zvcm09InRyYW5zbGF0ZSgtMTA0LC0yNCkiIGNsYXNzPSJpY29uIj4mI3hhOzxyZWN0IGhlaWdodD0iNDgiIHdpZHRoPSI0OCIgeT0iMC4wMTgxMjkxOTY3IiB4PSIwLjAzNjEwMjYxMDgiIGZpbGw9InZhcigtLWNvbG9yLWJhY2tncm91bmQtY29udGFpbmVyLWhlYWRlci05ZWtwemUsICNmYWZhZmEpIi8+JiN4YTs8bGluZSBzdHJva2UtbGluZWNhcD0ic3F1YXJlIiBzdHJva2U9InZhcigtLWNvbG9yLWJvYXJkLXBsYWNlaG9sZGVyLWFjdGl2ZS1lNzFxZGEsICNkNWRiZGIpIiB5Mj0iNDcuNSIgeDI9IjQ3LjUiIHkxPSIwLjQ5MTIyODA3IiB4MT0iNDcuNSIvPiYjeGE7PGxpbmUgc3Ryb2tlLWxpbmVjYXA9InNxdWFyZSIgc3Ryb2tlPSJ2YXIoLS1jb2xvci1ib2FyZC1wbGFjZWhvbGRlci1hY3RpdmUtZTcxcWRhLCAjZDVkYmRiKSIgeTI9IjQ3LjUiIHgyPSIwLjUiIHkxPSIwLjQ5MTIyODA3IiB4MT0iMC41Ii8+JiN4YTs8dXNlIGhyZWY9IiNpY29uLWZsb3ctc3VjY2VlZCIvPiYjeGE7PC9nPiYjeGE7PGcgdHJhbnNmb3JtPSJ0cmFuc2xhdGUoLTQ4LC0yNC41KSIgY2xhc3M9InRleHQtbGluZXMiPiYjeGE7PHRleHQgY2xhc3M9ImxpbmUxIiB0cmFuc2Zvcm09InRyYW5zbGF0ZSgwLDE3KSI+JiN4YTs8dHNwYW4gdGV4dC1hbmNob3I9InN0YXJ0IiB4bWw6c3BhY2U9InByZXNlcnZlIj5TdWNjZWVkIHN0YXRlPC90c3Bhbj4mI3hhOzwvdGV4dD4mI3hhOzx0ZXh0IGNsYXNzPSJsaW5lMiBsYWJlbCIgdHJhbnNmb3JtPSJ0cmFuc2xhdGUoMCwzNS41KSI+JiN4YTs8dHNwYW4gdGV4dC1hbmNob3I9InN0YXJ0IiB4bWw6c3BhY2U9InByZXNlcnZlIj5TdWNjZXNzPC90c3Bhbj4mI3hhOzwvdGV4dD4mI3hhOzwvZz4mI3hhOzwvZz4mI3hhOzwvZz4mI3hhOzwvZz4mI3hhOzxnIHRyYW5zZm9ybT0idHJhbnNsYXRlKDMxOCw3MDUuNSkiIGNsYXNzPSJub2RlLWNvbnRhaW5lciI+JiN4YTs8Zz4mI3hhOzxjaXJjbGUgcj0iMjIiIGNsYXNzPSJzYy1pTVRuVEwgakhkaGZ6IHNoYXBlIi8+JiN4YTs8dGV4dCBjbGFzcz0ic2Mtak1ha1ZvIFFla2JpIGxhYmVsIj4mI3hhOzx0c3BhbiBhbGlnbm1lbnQtYmFzZWxpbmU9ImNlbnRyYWwiIHRleHQtYW5jaG9yPSJtaWRkbGUiIHhtbDpzcGFjZT0icHJlc2VydmUiPkVuZDwvdHNwYW4+JiN4YTs8L3RleHQ+JiN4YTs8L2c+JiN4YTs8L2c+JiN4YTs8L2c+JiN4YTs8ZyBjbGFzcz0iZWRnZXMiPiYjeGE7PGcgY2xhc3M9InNjLWJiU1pkaSBkbWd6bkogZWRnZSI+JiN4YTs8cGF0aCBmaWxsPSJub25lIiBtYXJrZXItZW5kPSJ1cmwoI2Fycm93aGVhZCkiIGQ9Ik0zMTgsMTI4TDMxOCwxMzAuOTE2NjY2NjY2NjY2NjZDMzE4LDEzMy44MzMzMzMzMzMzMzMzNCwzMTgsMTM5LjY2NjY2NjY2NjY2NjY2LDMxOCwxNDUuNUMzMTgsMTUxLjMzMzMzMzMzMzMzMzM0LDMxOCwxNTcuMTY2NjY2NjY2NjY2NjYsMzE4LDE2MC4wODMzMzMzMzMzMzMzNEwzMTgsMTYzIiBpZD0ic3RhdGUtQ2hlY2sgaWYgdGhlIEV4cG9ydCBKb2IgaXMgQWxyZWFkeSBEb25lOnN0YXRlLVN0YXJ0IEV4cG9ydCBKb2I6bm9ybWFsIi8+JiN4YTs8L2c+JiN4YTs8ZyBjbGFzcz0ic2MtYmJTWmRpIGRtZ3puSiBlZGdlIj4mI3hhOzxwYXRoIGZpbGw9Im5vbmUiIG1hcmtlci1lbmQ9InVybCgjYXJyb3doZWFkKSIgZD0iTTMxOCw0NEwzMTgsNDYuOTE2NjY2NjY2NjY2NjY0QzMxOCw0OS44MzMzMzMzMzMzMzMzMzYsMzE4LDU1LjY2NjY2NjY2NjY2NjY2NCwzMTgsNjEuNUMzMTgsNjcuMzMzMzMzMzMzMzMzMzMsMzE4LDczLjE2NjY2NjY2NjY2NjY3LDMxOCw3Ni4wODMzMzMzMzMzMzMzM0wzMTgsNzkiIGlkPSJzdGFydDpzdGF0ZS1DaGVjayBpZiB0aGUgRXhwb3J0IEpvYiBpcyBBbHJlYWR5IERvbmUiLz4mI3hhOzwvZz4mI3hhOzxnIGNsYXNzPSJzYy1iYlNaZGkgZG1nem5KIGVkZ2UiPiYjeGE7PHBhdGggZmlsbD0ibm9uZSIgbWFya2VyLWVuZD0idXJsKCNhcnJvd2hlYWQpIiBkPSJNMzE4LDIxMkwzMTgsMjE0LjkxNjY2NjY2NjY2NjY2QzMxOCwyMTcuODMzMzMzMzMzMzMzMzQsMzE4LDIyMy42NjY2NjY2NjY2NjY2NiwzMTgsMjI5LjVDMzE4LDIzNS4zMzMzMzMzMzMzMzMzNCwzMTgsMjQxLjE2NjY2NjY2NjY2NjY2LDMxOCwyNDQuMDgzMzMzMzMzMzMzMzRMMzE4LDI0NyIgaWQ9InN0YXRlLVN0YXJ0IEV4cG9ydCBKb2I6c3RhdGUtV2FpdCAzMCBTZWNvbmRzOm5vcm1hbCIvPiYjeGE7PC9nPiYjeGE7PGcgY2xhc3M9InNjLWJiU1pkaSBkbWd6bkogZWRnZSI+JiN4YTs8cGF0aCBmaWxsPSJub25lIiBtYXJrZXItZW5kPSJ1cmwoI2Fycm93aGVhZCkiIGQ9Ik0yNzIuNzkxNjY2NjY2NjY2NywyOTZMMjY3LjQwOTcyMjIyMjIyMjIzLDI5OC45MTY2NjY2NjY2NjY3QzI2Mi4wMjc3Nzc3Nzc3Nzc3NywzMDEuODMzMzMzMzMzMzMzMywyNTEuMjYzODg4ODg4ODg4OSwzMDcuNjY2NjY2NjY2NjY2NywyNDUuODgxOTQ0NDQ0NDQ0NDYsMzEzLjVDMjQwLjUsMzE5LjMzMzMzMzMzMzMzMzMsMjQwLjUsMzI1LjE2NjY2NjY2NjY2NjcsMjQwLjUsMzI4LjA4MzMzMzMzMzMzMzNMMjQwLjUsMzMxIiBpZD0ic3RhdGUtV2FpdCAzMCBTZWNvbmRzOnN0YXRlLUNoZWNrIEV4cG9ydCBKb2IgU3RhdHVzOm5vcm1hbCIvPiYjeGE7PC9nPiYjeGE7PGcgY2xhc3M9InNjLWJiU1pkaSBkbWd6bkogZWRnZSI+JiN4YTs8cGF0aCBmaWxsPSJub25lIiBtYXJrZXItZW5kPSJ1cmwoI2Fycm93aGVhZCkiIGQ9Ik0yNDAuNSwzODBMMjQwLjUsMzgyLjkxNjY2NjY2NjY2NjdDMjQwLjUsMzg1LjgzMzMzMzMzMzMzMzMsMjQwLjUsMzkxLjY2NjY2NjY2NjY2NjcsMjQ1Ljg4MTk0NDQ0NDQ0NDQ2LDM5Ny41QzI1MS4yNjM4ODg4ODg4ODg5LDQwMy4zMzMzMzMzMzMzMzMzLDI2Mi4wMjc3Nzc3Nzc3Nzc3Nyw0MDkuMTY2NjY2NjY2NjY2NywyNjcuNDA5NzIyMjIyMjIyMjMsNDEyLjA4MzMzMzMzMzMzMzNMMjcyLjc5MTY2NjY2NjY2NjcsNDE1IiBpZD0ic3RhdGUtQ2hlY2sgRXhwb3J0IEpvYiBTdGF0dXM6c3RhdGUtSm9iIENvbXBsZXRlPzpub3JtYWwiLz4mI3hhOzwvZz4mI3hhOzxnIGNsYXNzPSJzYy1iYlNaZGkgZG1nem5KIGVkZ2UiPiYjeGE7PHBhdGggZmlsbD0ibm9uZSIgbWFya2VyLWVuZD0idXJsKCNhcnJvd2hlYWQpIiBkPSJNMzg2LjI1ODcwNjQ2NzY2MTcsNDY0TDM5OC4yMTU1ODg3MjMwNTE0NCw0NjguMjkxNjY2NjY2NjY2N0M0MTAuMTcyNDcwOTc4NDQxMTQsNDcyLjU4MzMzMzMzMzMzMzMsNDM0LjA4NjIzNTQ4OTIyMDYsNDgxLjE2NjY2NjY2NjY2NjcsNDQ2LjA0MzExNzc0NDYxMDMsNDkzLjgzMzMzMzMzMzMzMzNDNDU4LDUwNi41LDQ1OCw1MjMuMjUsNDU4LDUzOC42MjVDNDU4LDU1NCw0NTgsNTY4LDQ1OCw1NzcuOTE2NjY2NjY2NjY2NkM0NTgsNTg3LjgzMzMzMzMzMzMzMzQsNDU4LDU5My42NjY2NjY2NjY2NjY2LDQ1OCw1OTYuNTgzMzMzMzMzMzMzNEw0NTgsNTk5LjUiIGlkPSJzdGF0ZS1Kb2IgQ29tcGxldGU/OnN0YXRlLUZhaWw6Y2hvaWNlUnVsZTowIi8+JiN4YTs8ZyB0cmFuc2Zvcm09InRyYW5zbGF0ZSg0NDYuMDQzMTE3NzQ0NjEwMyw0OTMuODMzMzMzMzMzMzMzMykiIGNsYXNzPSJlZGdlLWxhYmVsIiBkYXRhLXRlc3RpZD0iZ3JhcGgtSm9iIENvbXBsZXRlPy0wIj4mI3hhOzxyZWN0IGNsYXNzPSJzYy1mQldRUnogZ2p3YmhHIiBoZWlnaHQ9IjE2LjUiIHdpZHRoPSIxNzgiIHk9Ii04LjI1IiB4PSItODkiLz4mI3hhOzx0ZXh0IGNsYXNzPSJzYy1oa25PSEUgZHdjYlRLIGxhYmVsIj4mI3hhOzx0c3BhbiBhbGlnbm1lbnQtYmFzZWxpbmU9ImNlbnRyYWwiIHRleHQtYW5jaG9yPSJtaWRkbGUiIHhtbDpzcGFjZT0icHJlc2VydmUiPnslICRzdGF0ZXMuaW5wdXQuc3RhdHVzID0gJ0ZBSUxFRCcgJX08L3RzcGFuPiYjeGE7PHRpdGxlPnslICRzdGF0ZXMuaW5wdXQuc3RhdHVzID0gJ0ZBSUxFRCcgJX08L3RpdGxlPiYjeGE7PC90ZXh0PiYjeGE7PC9nPiYjeGE7PC9nPiYjeGE7PGcgY2xhc3M9InNjLWJiU1pkaSBkbWd6bkogZWRnZSI+JiN4YTs8cGF0aCBmaWxsPSJub25lIiBtYXJrZXItZW5kPSJ1cmwoI2Fycm93aGVhZCkiIGQ9Ik0yNDkuNzQxMjkzNTMyMzM4MzIsNDY0TDIzNy43ODQ0MTEyNzY5NDg2LDQ2OC4yOTE2NjY2NjY2NjY3QzIyNS44Mjc1MjkwMjE1NTg5LDQ3Mi41ODMzMzMzMzMzMzMzLDIwMS45MTM3NjQ1MTA3Nzk0Myw0ODEuMTY2NjY2NjY2NjY2NywxODkuOTU2ODgyMjU1Mzg5Nyw0ODkuNzVDMTc4LDQ5OC4zMzMzMzMzMzMzMzMzLDE3OCw1MDYuOTE2NjY2NjY2NjY2NywxNzgsNTExLjIwODMzMzMzMzMzMzNMMTc4LDUxNS41IiBpZD0ic3RhdGUtSm9iIENvbXBsZXRlPzpzdGF0ZS1EZXRhaWxlZCBUcmFuc2Zvcm1hdGlvbiBQcm9jZXNzIEdvZXMgSGVyZTpjaG9pY2VSdWxlOjEiLz4mI3hhOzxnIHRyYW5zZm9ybT0idHJhbnNsYXRlKDE4OS45NTY4ODIyNTUzODk3LDQ4OS43NSkiIGNsYXNzPSJlZGdlLWxhYmVsIiBkYXRhLXRlc3RpZD0iZ3JhcGgtSm9iIENvbXBsZXRlPy0xIj4mI3hhOzxyZWN0IGNsYXNzPSJzYy1mQldRUnogZ2p3YmhHIiBoZWlnaHQ9IjE2LjUiIHdpZHRoPSIyMDciIHk9Ii04LjI1IiB4PSItMTAzLjUiLz4mI3hhOzx0ZXh0IGNsYXNzPSJzYy1oa25PSEUgZHdjYlRLIGxhYmVsIj4mI3hhOzx0c3BhbiBhbGlnbm1lbnQtYmFzZWxpbmU9ImNlbnRyYWwiIHRleHQtYW5jaG9yPSJtaWRkbGUiIHhtbDpzcGFjZT0icHJlc2VydmUiPnslICRzdGF0ZXMuaW5wdXQuc3RhdHVzID0gJ1NVQ0NFRURFRCcgJeKApjwvdHNwYW4+JiN4YTs8dGl0bGU+eyUgJHN0YXRlcy5pbnB1dC5zdGF0dXMgPSAnU1VDQ0VFREVEJyAlfTwvdGl0bGU+JiN4YTs8L3RleHQ+JiN4YTs8L2c+JiN4YTs8L2c+JiN4YTs8ZyBjbGFzcz0ic2MtYmJTWmRpIGRtZ3puSiBlZGdlIj4mI3hhOzxwYXRoIGZpbGw9Im5vbmUiIG1hcmtlci1lbmQ9InVybCgjYXJyb3doZWFkKSIgZD0iTTM2My4yMDgzMzMzMzMzMzMzLDQxNUwzNjguNTkwMjc3Nzc3Nzc3NzcsNDEyLjA4MzMzMzMzMzMzMzNDMzczLjk3MjIyMjIyMjIyMjIsNDA5LjE2NjY2NjY2NjY2NjcsMzg0LjczNjExMTExMTExMTEsNDAzLjMzMzMzMzMzMzMzMzMsMzkwLjExODA1NTU1NTU1NTUsMzkzLjQxNjY2NjY2NjY2NjdDMzk1LjUsMzgzLjUsMzk1LjUsMzY5LjUsMzk1LjUsMzU1LjVDMzk1LjUsMzQxLjUsMzk1LjUsMzI3LjUsMzkwLjExODA1NTU1NTU1NTYsMzE3LjU4MzMzMzMzMzMzMzNDMzg0LjczNjExMTExMTExMTEsMzA3LjY2NjY2NjY2NjY2NjcsMzczLjk3MjIyMjIyMjIyMjIsMzAxLjgzMzMzMzMzMzMzMzMsMzY4LjU5MDI3Nzc3Nzc3Nzc3LDI5OC45MTY2NjY2NjY2NjY3TDM2My4yMDgzMzMzMzMzMzMzLDI5NiIgaWQ9InN0YXRlLUpvYiBDb21wbGV0ZT86c3RhdGUtV2FpdCAzMCBTZWNvbmRzOmNob2ljZURlZmF1bHQiLz4mI3hhOzxnIHRyYW5zZm9ybT0idHJhbnNsYXRlKDM5MC4xMTgwNTU1NTU1NTU1LDM5My40MTY2NjY2NjY2NjY3KSIgY2xhc3M9ImVkZ2UtbGFiZWwiIGRhdGEtdGVzdGlkPSJncmFwaC1Kb2IgQ29tcGxldGU/LURlZmF1bHQiPiYjeGE7PHJlY3QgY2xhc3M9InNjLWZCV1FSeiBnandiaEciIGhlaWdodD0iMTYuNSIgd2lkdGg9IjQ0IiB5PSItOC4yNSIgeD0iLTIyIi8+JiN4YTs8dGV4dCBjbGFzcz0ic2MtaGtuT0hFIGR3Y2JUSyBsYWJlbCI+JiN4YTs8dHNwYW4gYWxpZ25tZW50LWJhc2VsaW5lPSJjZW50cmFsIiB0ZXh0LWFuY2hvcj0ibWlkZGxlIiB4bWw6c3BhY2U9InByZXNlcnZlIj5EZWZhdWx0PC90c3Bhbj4mI3hhOzx0aXRsZT5EZWZhdWx0PC90aXRsZT4mI3hhOzwvdGV4dD4mI3hhOzwvZz4mI3hhOzwvZz4mI3hhOzxnIGNsYXNzPSJzYy1iYlNaZGkgZG1nem5KIGVkZ2UiPiYjeGE7PHBhdGggZmlsbD0ibm9uZSIgbWFya2VyLWVuZD0idXJsKCNhcnJvd2hlYWQpIiBkPSJNMTc4LDU2NC41TDE3OCw1NjcuNDE2NjY2NjY2NjY2NkMxNzgsNTcwLjMzMzMzMzMzMzMzMzQsMTc4LDU3Ni4xNjY2NjY2NjY2NjY2LDE3OCw1ODJDMTc4LDU4Ny44MzMzMzMzMzMzMzM0LDE3OCw1OTMuNjY2NjY2NjY2NjY2NiwxNzgsNTk2LjU4MzMzMzMzMzMzMzRMMTc4LDU5OS41IiBpZD0ic3RhdGUtRGV0YWlsZWQgVHJhbnNmb3JtYXRpb24gUHJvY2VzcyBHb2VzIEhlcmU6c3RhdGUtU3VjY2Vzczpub3JtYWwiLz4mI3hhOzwvZz4mI3hhOzxnIGNsYXNzPSJzYy1iYlNaZGkgZG1nem5KIGVkZ2UiPiYjeGE7PHBhdGggZmlsbD0ibm9uZSIgbWFya2VyLWVuZD0idXJsKCNhcnJvd2hlYWQpIiBkPSJNMTc4LDY0OC41TDE3OCw2NTEuNDE2NjY2NjY2NjY2NkMxNzgsNjU0LjMzMzMzMzMzMzMzMzQsMTc4LDY2MC4xNjY2NjY2NjY2NjY2LDE5Ny44MDQ0MzU2MzE0ODA4Myw2NjguNjcxMDEzMzg2NTAxMkMyMTcuNjA4ODcxMjYyOTYxNjMsNjc3LjE3NTM2MDEwNjMzNTYsMjU3LjIxNzc0MjUyNTkyMzI2LDY4OC4zNTA3MjAyMTI2NzExLDI3Ny4wMjIxNzgxNTc0MDQxLDY5My45Mzg0MDAyNjU4MzlMMjk2LjgyNjYxMzc4ODg4NDg2LDY5OS41MjYwODAzMTkwMDY4IiBpZD0ic3RhdGUtU3VjY2VzczplbmQ6bm9ybWFsIi8+JiN4YTs8L2c+JiN4YTs8ZyBjbGFzcz0ic2MtYmJTWmRpIGRtZ3puSiBlZGdlIj4mI3hhOzxwYXRoIGZpbGw9Im5vbmUiIG1hcmtlci1lbmQ9InVybCgjYXJyb3doZWFkKSIgZD0iTTQ1OCw2NDguNUw0NTgsNjUxLjQxNjY2NjY2NjY2NjZDNDU4LDY1NC4zMzMzMzMzMzMzMzM0LDQ1OCw2NjAuMTY2NjY2NjY2NjY2Niw0MzguMTk1NTY0MzY4NTE5Miw2NjguNjcxMDEzMzg2NTAxMkM0MTguMzkxMTI4NzM3MDM4MzQsNjc3LjE3NTM2MDEwNjMzNTYsMzc4Ljc4MjI1NzQ3NDA3Njc0LDY4OC4zNTA3MjAyMTI2NzExLDM1OC45Nzc4MjE4NDI1OTU5LDY5My45Mzg0MDAyNjU4MzlMMzM5LjE3MzM4NjIxMTExNTE0LDY5OS41MjYwODAzMTkwMDY4IiBpZD0ic3RhdGUtRmFpbDplbmQ6bm9ybWFsIi8+JiN4YTs8L2c+JiN4YTs8L2c+JiN4YTs8ZGVmcz4mI3hhOzxtYXJrZXIgY2xhc3M9InNjLWloZ254RiBpZ1lQZEUiIG9yaWVudD0iYXV0byIgcmVmWT0iMyIgcmVmWD0iNyIgbWFya2VySGVpZ2h0PSI2IiBtYXJrZXJXaWR0aD0iOCIgaWQ9ImFycm93aGVhZCI+JiN4YTs8cG9seWdvbiBwb2ludHM9IjAgMCwgOCAzLCAwIDYiLz4mI3hhOzwvbWFya2VyPiYjeGE7PG1hcmtlciBjbGFzcz0ic2MtaWhnbnhGIGlnWVBkRSIgb3JpZW50PSJhdXRvIiByZWZZPSIyIiByZWZYPSI1IiBtYXJrZXJIZWlnaHQ9IjQiIG1hcmtlcldpZHRoPSI2IiBpZD0iaGlnaGxpZ2h0ZWQtYXJyb3doZWFkIj4mI3hhOzxwb2x5Z29uIHBvaW50cz0iMCAwLCA2IDIsIDAgNCIvPiYjeGE7PC9tYXJrZXI+JiN4YTs8bWFya2VyIGNsYXNzPSJzYy1paGdueEYgaWdZUGRFIiBvcmllbnQ9ImF1dG8iIHJlZlk9IjIiIHJlZlg9IjUiIG1hcmtlckhlaWdodD0iNCIgbWFya2VyV2lkdGg9IjYiIGlkPSJlcnJvci1hcnJvd2hlYWQiPiYjeGE7PHBvbHlnb24gcG9pbnRzPSIwIDAsIDYgMiwgMCA0Ii8+JiN4YTs8L21hcmtlcj4mI3hhOzxtYXJrZXIgY2xhc3M9InNjLWloZ254RiBpZ1lQZEUiIG9yaWVudD0iYXV0byIgcmVmWT0iNCIgcmVmWD0iOSIgbWFya2VySGVpZ2h0PSI4IiBtYXJrZXJXaWR0aD0iMTAiIGlkPSJsYXJnZS1hcnJvd2hlYWQiPiYjeGE7PHBvbHlnb24gcG9pbnRzPSIwIDAsIDEwIDQsIDAgOCIvPiYjeGE7PC9tYXJrZXI+JiN4YTs8bWFya2VyIGNsYXNzPSJzYy1paGdueEYgaWdZUGRFIiBvcmllbnQ9ImF1dG8iIHJlZlk9IjIiIHJlZlg9IjQuNSIgbWFya2VySGVpZ2h0PSI0IiBtYXJrZXJXaWR0aD0iNS41IiBpZD0ibGFyZ2UtaGlnaGxpZ2h0ZWQtYXJyb3doZWFkIj4mI3hhOzxwb2x5Z29uIHBvaW50cz0iMCAwLCA1LjUgMiwgMCA0Ii8+JiN4YTs8L21hcmtlcj4mI3hhOzxtYXJrZXIgY2xhc3M9InNjLWloZ254RiBpZ1lQZEUiIG9yaWVudD0iYXV0byIgcmVmWT0iNCIgcmVmWD0iOSIgbWFya2VySGVpZ2h0PSI4IiBtYXJrZXJXaWR0aD0iMTAiIGlkPSJsYXJnZS1lcnJvci1hcnJvd2hlYWQiPiYjeGE7PHBvbHlnb24gcG9pbnRzPSIwIDAsIDEwIDQsIDAgOCIvPiYjeGE7PC9tYXJrZXI+JiN4YTs8bGluZWFyR3JhZGllbnQgaWQ9ImdyYWRpZW50LW9yYW5nZSIgeTI9IjAlIiB4Mj0iMTAwJSIgeTE9IjEwMCUiIHgxPSIwJSI+JiN4YTs8c3RvcCBvZmZzZXQ9IjAlIiBzdG9wLWNvbG9yPSIjQzg1MTFCIi8+JiN4YTs8c3RvcCBvZmZzZXQ9IjEwMCUiIHN0b3AtY29sb3I9IiNGRjk5MDAiLz4mI3hhOzwvbGluZWFyR3JhZGllbnQ+JiN4YTs8bGluZWFyR3JhZGllbnQgaWQ9ImdyYWRpZW50LXR1cnF1b2lzZSIgeTI9IjAlIiB4Mj0iMTAwJSIgeTE9IjEwMCUiIHgxPSIwJSI+JiN4YTs8c3RvcCBvZmZzZXQ9IjAlIiBzdG9wLWNvbG9yPSIjMDU1RjRFIi8+JiN4YTs8c3RvcCBvZmZzZXQ9IjEwMCUiIHN0b3AtY29sb3I9IiM1NkMwQTciLz4mI3hhOzwvbGluZWFyR3JhZGllbnQ+JiN4YTs8bGluZWFyR3JhZGllbnQgaWQ9ImdyYWRpZW50LWJsdWUiIHkyPSIwJSIgeDI9IjEwMCUiIHkxPSIxMDAlIiB4MT0iMCUiPiYjeGE7PHN0b3Agb2Zmc2V0PSIwJSIgc3RvcC1jb2xvcj0iIzJFMjdBRCIvPiYjeGE7PHN0b3Agb2Zmc2V0PSIxMDAlIiBzdG9wLWNvbG9yPSIjNTI3RkZGIi8+JiN4YTs8L2xpbmVhckdyYWRpZW50PiYjeGE7PGxpbmVhckdyYWRpZW50IGlkPSJncmFkaWVudC1waW5rIiB5Mj0iMCUiIHgyPSIxMDAlIiB5MT0iMTAwJSIgeDE9IjAlIj4mI3hhOzxzdG9wIG9mZnNldD0iMCUiIHN0b3AtY29sb3I9IiNCMDA4NEQiLz4mI3hhOzxzdG9wIG9mZnNldD0iMTAwJSIgc3RvcC1jb2xvcj0iI0ZGNEY4QiIvPiYjeGE7PC9saW5lYXJHcmFkaWVudD4mI3hhOzxsaW5lYXJHcmFkaWVudCBpZD0iZ3JhZGllbnQtcmVkIiB5Mj0iMCUiIHgyPSIxMDAlIiB5MT0iMTAwJSIgeDE9IjAlIj4mI3hhOzxzdG9wIG9mZnNldD0iMCUiIHN0b3AtY29sb3I9IiNCRDA4MTYiLz4mI3hhOzxzdG9wIG9mZnNldD0iMTAwJSIgc3RvcC1jb2xvcj0iI0ZGNTI1MiIvPiYjeGE7PC9saW5lYXJHcmFkaWVudD4mI3hhOzxsaW5lYXJHcmFkaWVudCBpZD0iZ3JhZGllbnQtZ3JlZW4iIHkyPSIwJSIgeDI9IjEwMCUiIHkxPSIxMDAlIiB4MT0iMCUiPiYjeGE7PHN0b3Agb2Zmc2V0PSIwJSIgc3RvcC1jb2xvcj0iIzFCNjYwRiIvPiYjeGE7PHN0b3Agb2Zmc2V0PSIxMDAlIiBzdG9wLWNvbG9yPSIjNkNBRTNFIi8+JiN4YTs8L2xpbmVhckdyYWRpZW50PiYjeGE7PGxpbmVhckdyYWRpZW50IGlkPSJncmFkaWVudC1wdXJwbGUiIHkyPSIwJSIgeDI9IjEwMCUiIHkxPSIxMDAlIiB4MT0iMCUiPiYjeGE7PHN0b3Agb2Zmc2V0PSIwJSIgc3RvcC1jb2xvcj0iIzREMjdBOCIvPiYjeGE7PHN0b3Agb2Zmc2V0PSIxMDAlIiBzdG9wLWNvbG9yPSIjQTE2NkZGIi8+JiN4YTs8L2xpbmVhckdyYWRpZW50PiYjeGE7PGxpbmVhckdyYWRpZW50IGlkPSJncmFkaWVudC1ncmV5IiB5Mj0iMCUiIHgyPSIxMDAlIiB5MT0iMTAwJSIgeDE9IjAlIj4mI3hhOzxzdG9wIG9mZnNldD0iMCUiIHN0b3AtY29sb3I9IiNEQ0RDREMiLz4mI3hhOzxzdG9wIG9mZnNldD0iMTAwJSIgc3RvcC1jb2xvcj0iI0Y2RjVGNyIvPiYjeGE7PC9saW5lYXJHcmFkaWVudD4sPGxpbmVhckdyYWRpZW50IGlkPSJncmFkaWVudC1hZyIgeTI9IjAlIiB4Mj0iMTAwJSIgeTE9IjEwMCUiIHgxPSIwJSI+JiN4YTs8c3RvcCBvZmZzZXQ9IjAlIiBzdG9wLWNvbG9yPSIjQkMxMzU2Ii8+JiN4YTs8c3RvcCBvZmZzZXQ9IjEwMCUiIHN0b3AtY29sb3I9IiNGMzQ0ODIiLz4mI3hhOzwvbGluZWFyR3JhZGllbnQ+JiN4YTs8bGluZWFyR3JhZGllbnQgaWQ9ImdyYWRpZW50LWF0aGVuYSIgeTI9IjAlIiB4Mj0iMTAwJSIgeTE9IjEwMCUiIHgxPSIwJSI+JiN4YTs8c3RvcCBvZmZzZXQ9IjAlIiBzdG9wLWNvbG9yPSIjNTkzMEI1Ii8+JiN4YTs8c3RvcCBvZmZzZXQ9IjEwMCUiIHN0b3AtY29sb3I9IiM5NDVERjIiLz4mI3hhOzwvbGluZWFyR3JhZGllbnQ+JiN4YTs8bGluZWFyR3JhZGllbnQgaWQ9ImdyYWRpZW50LWVtciIgeTI9IjAlIiB4Mj0iMTAwJSIgeTE9IjEwMCUiIHgxPSIwJSI+JiN4YTs8c3RvcCBvZmZzZXQ9IjAlIiBzdG9wLWNvbG9yPSIjNTkzMEI1Ii8+JiN4YTs8c3RvcCBvZmZzZXQ9IjEwMCUiIHN0b3AtY29sb3I9IiM5NDVERjIiLz4mI3hhOzwvbGluZWFyR3JhZGllbnQ+JiN4YTs8bGluZWFyR3JhZGllbnQgaWQ9ImdyYWRpZW50LWdsdWUiIHkyPSIwJSIgeDI9IjEwMCUiIHkxPSIxMDAlIiB4MT0iMCUiPiYjeGE7PHN0b3Agb2Zmc2V0PSIwJSIgc3RvcC1jb2xvcj0iIzU5MzBCNSIvPiYjeGE7PHN0b3Agb2Zmc2V0PSIxMDAlIiBzdG9wLWNvbG9yPSIjOTQ1REYyIi8+JiN4YTs8L2xpbmVhckdyYWRpZW50PiYjeGE7PGxpbmVhckdyYWRpZW50IGlkPSJncmFkaWVudC1zbnMiIHkyPSIwJSIgeDI9IjEwMCUiIHkxPSIxMDAlIiB4MT0iMCUiPiYjeGE7PHN0b3Agb2Zmc2V0PSIwJSIgc3RvcC1jb2xvcj0iI0JDMTM1NiIvPiYjeGE7PHN0b3Agb2Zmc2V0PSIxMDAlIiBzdG9wLWNvbG9yPSIjRjM0NDgyIi8+JiN4YTs8L2xpbmVhckdyYWRpZW50PiYjeGE7PGxpbmVhckdyYWRpZW50IGlkPSJncmFkaWVudC1zdGF0ZXMiIHkyPSIwJSIgeDI9IjEwMCUiIHkxPSIxMDAlIiB4MT0iMCUiPiYjeGE7PHN0b3Agb2Zmc2V0PSIwJSIgc3RvcC1jb2xvcj0iI0JDMTM1NiIvPiYjeGE7PHN0b3Agb2Zmc2V0PSIxMDAlIiBzdG9wLWNvbG9yPSIjRjM0NDgyIi8+JiN4YTs8L2xpbmVhckdyYWRpZW50PiYjeGE7PGxpbmVhckdyYWRpZW50IGlkPSJncmFkaWVudC1nZW5lcmljIiB5Mj0iMCUiIHgyPSIxMDAlIiB5MT0iMTAwJSIgeDE9IjAlIj4mI3hhOzxzdG9wIG9mZnNldD0iMCUiIHN0b3AtY29sb3I9IiNjY2MiLz4mI3hhOzxzdG9wIG9mZnNldD0iMTAwJSIgc3RvcC1jb2xvcj0iI2RkZCIvPiYjeGE7PC9saW5lYXJHcmFkaWVudD4mI3hhOzxnIGlkPSJpY29uLWZsb3ctcGFzcyIgZmlsbC1ydWxlPSJldmVub2RkIiBmaWxsPSJub25lIiBzdHJva2Utd2lkdGg9IjEiIHN0cm9rZT0ibm9uZSI+JiN4YTs8ZyBmaWxsLXJ1bGU9Im5vbnplcm8iIGZpbGw9IiMwMDczQkIiIHRyYW5zZm9ybT0idHJhbnNsYXRlKDEwLjUwMDAwMCwgOC43NTAwMDApIj4mI3hhOzxwYXRoIGZpbGw9ImZhbHNlIiBkPSJNMTMuODIxNzM2MywzMS4yODAzMzAxIEwxMy43MzY4NDU0LDMxLjM1MzI1MDggTDEzLjczNjg0NTQsMzEuMzUzMjUwOCBMMTMuNjUzNDQyNiwzMS40MDcwNTMgTDEzLjY1MzQ0MjYsMzEuNDA3MDUzIEwxMy42MDUyODc4LDMxLjQzMTM4MzkgTDEzLjYwNTI4NzgsMzEuNDMxMzgzOSBMMTMuNTA4MTY3MSwzMS40NjgxNDU4IEwxMy41MDgxNjcxLDMxLjQ2ODE0NTggTDEzLjQ1MTM3MTEsMzEuNDgyODM5NSBMMTMuNDUxMzcxMSwzMS40ODI4Mzk1IEwxMy4zODQ2NzU1LDMxLjQ5NDIxMjcgTDEzLjM4NDY3NTUsMzEuNDk0MjEyNyBMMTMuMzQxMjQyOCwzMS40OTgzNTcgTDEzLjM0MTI0MjgsMzEuNDk4MzU3IEwxMy4yNDE0OTUsMzEuNDk4MzU3IEwxMy4yNDE0OTUsMzEuNDk4MzU3IEwxMy4xODAyMDQ1LDMxLjQ5MTc1ODggTDEzLjE4MDIwNDUsMzEuNDkxNzU4OCBMMTMuMTMxNDY0NCwzMS40ODI4MzYxIEwxMy4xMzE0NjQ0LDMxLjQ4MjgzNjEgTDEzLjA2NTI5MjEsMzEuNDY1MjY1MiBMMTIuOTc3NjIzNSwzMS40MzE0Mjk0IEwxMi45Nzc2MjM1LDMxLjQzMTQyOTQgTDEyLjkyOTM3ODIsMzEuNDA3MDYwOCBMMTIuOTI5Mzc4MiwzMS40MDcwNjA4IEwxMi44Mjk0ODI0LDMxLjM0MDk1OTYgTDEyLjc2MTA3NjIsMzEuMjgwMzMwMSBMMTIuNzYxMDc2MiwzMS4yODAzMzAxIEw4LjI2MTA3NjE2LDI2Ljc4MDMzMDEgQzcuOTY4MTgyOTUsMjYuNDg3NDM2OSA3Ljk2ODE4Mjk1LDI2LjAxMjU2MzEgOC4yNjEwNzYxNiwyNS43MTk2Njk5IEM4LjUyNzM0MjczLDI1LjQ1MzQwMzQgOC45NDQwMDY0MSwyNS40MjkxOTczIDkuMjM3NjE3OSwyNS42NDcwNTE4IEw5LjMyMTczNjM0LDI1LjcxOTY2OTkgTDEyLjU4MTQwNjMsMjguOTc5IEwxMi41ODEsMTkuNzQ5NTUyMiBMMy41LDE5Ljc1IEMxLjYzMTQzNjYsMTkuNzUgMC4xMDQ4NzM1NTEsMTguMjg1NzIyNCAwLjAwNTE3ODg2MjczLDE2LjQ0MjAzNTIgTDAsMTYuMjUgTDAsMTIuMjUgQzAsMTAuMzgxNDM2NiAxLjQ2NDI3NzYsOC44NTQ4NzM1NSAzLjMwNzk2NDgsOC43NTUxNzg4NiBMMy41LDguNzUgTDExLjY4Niw4Ljc0OTU1MjE2IEwxMS42ODYsMTAuMjQ5NTUyMiBMMy41LDEwLjI1IEMyLjQ0NTYzODIsMTAuMjUgMS41ODE4MzQ4OCwxMS4wNjU4Nzc4IDEuNTA1NDg1NzQsMTIuMTAwNzM3NyBMMS41LDEyLjI1IEwxLjUsMTYuMjUgQzEuNSwxNy4zMDQzNjE4IDIuMzE1ODc3NzksMTguMTY4MTY1MSAzLjM1MDczNzY2LDE4LjI0NDUxNDMgTDMuNSwxOC4yNSBMMjIuNSwxOC4yNSBDMjMuNTU0MzYxOCwxOC4yNSAyNC40MTgxNjUxLDE3LjQzNDEyMjIgMjQuNDk0NTE0MywxNi4zOTkyNjIzIEwyNC41LDE2LjI1IEwyNC41LDEyLjI1IEMyNC41LDExLjE5NTYzODIgMjMuNjg0MTIyMiwxMC4zMzE4MzQ5IDIyLjY0OTI2MjMsMTAuMjU1NDg1NyBMMjIuNSwxMC4yNSBMMTUuNjg2LDEwLjI0OTU1MjIgTDE1LjY4Niw4Ljc0OTU1MjE2IEwyMi41LDguNzUgQzI0LjM2ODU2MzQsOC43NSAyNS44OTUxMjY0LDEwLjIxNDI3NzYgMjUuOTk0ODIxMSwxMi4wNTc5NjQ4IEwyNiwxMi4yNSBMMjYsMTYuMjUgQzI2LDE4LjExODU2MzQgMjQuNTM1NzIyNCwxOS42NDUxMjY0IDIyLjY5MjAzNTIsMTkuNzQ0ODIxMSBMMjIuNSwxOS43NSBMMTQuMDgxLDE5Ljc0OTU1MjIgTDE0LjA4MTQwNjMsMjguODk5IEwxNy4yNjEwNzYyLDI1LjcxOTY2OTkgTDE3LjM0NTE5NDYsMjUuNjQ3MDUxOCBDMTcuNjM4ODA2MSwyNS40MjkxOTczIDE4LjA1NTQ2OTgsMjUuNDUzNDAzNCAxOC4zMjE3MzYzLDI1LjcxOTY2OTkgQzE4LjU4ODAwMjksMjUuOTg1OTM2NSAxOC42MTIyMDg5LDI2LjQwMjYwMDIgMTguMzk0MzU0NSwyNi42OTYyMTE3IEwxOC4zMjE3MzYzLDI2Ljc4MDMzMDEgTDEzLjgyMTczNjMsMzEuMjgwMzMwMSBaIi8+JiN4YTs8cG9seWdvbiBmaWxsPSJmYWxzZSIgcG9pbnRzPSIxNC4wODE4MjkxIDAgMTQuMDgxODI5MSAxNC41IDEyLjU4MTgyOTEgMTQuNSAxMi41ODE4MjkxIDAiLz4mI3hhOzwvZz4mI3hhOzwvZz4mI3hhOzxnIGlkPSJpY29uLWZsb3ctd2FpdCIgZmlsbC1ydWxlPSJldmVub2RkIiBmaWxsPSJub25lIiBzdHJva2Utd2lkdGg9IjEiPiYjeGE7PHBhdGggZmlsbD0iIzAwNzNCQiIgZmlsbC1ydWxlPSJub256ZXJvIiBkPSJNMjYuNzUsOC44NTgyNTg5MyBMMjYuNzUsMTAuMzU4MjU4OSBMMjUsMTAuMzU4MjU4OSBMMjUuMDAxMDMzMiwxMy4yODg3MTg2IEMyNy4yMzk1NjQzLDEzLjQ2MjU3MDQgMjkuMzE1OTI2OSwxNC4yMTQ1Mjc4IDMxLjA4MDk5MDMsMTUuMzk1NDU5OCBMMzIuMzE4ODQyNCwxMy42OTEyNzExIEwzNC43NDU4OTM0LDE1LjQ1NDYyNjkgTDMzLjM2ODI4ODEsMTcuMzUxMzQxOSBDMzUuNDY3NDQ4MywxOS42MjQwNDMxIDM2Ljc1LDIyLjY2MjI0MzYgMzYuNzUsMjYgQzM2Ljc1LDMzLjA0MTYzMDYgMzEuMDQxNjMwNiwzOC43NSAyNCwzOC43NSBDMTYuOTU4MzY5NCwzOC43NSAxMS4yNSwzMy4wNDE2MzA2IDExLjI1LDI2IEMxMS4yNSwyMi43NjU3NjI3IDEyLjQ1NDIyOTgsMTkuODEyNzg4NCAxNC40Mzg3Njg1LDE3LjU2NDk5NzcgTDEyLjkwNDc5NjYsMTUuNDU0NjI2OSBMMTUuMzMxODQ3NiwxMy42OTEyNzExIEwxNi42ODU4ODEyLDE1LjU1NTE5NyBDMTguMjM4NzUyMiwxNC40NjU3NjI5IDIwLjA0NTY3MDQsMTMuNzEzODMzNiAyMi4wMDAxMDY4LDEzLjQwNTkzODQgTDIyLDEwLjM1ODI1ODkgTDIwLjI1LDEwLjM1ODI1ODkgTDIwLjI1LDguODU4MjU4OTMgTDI2Ljc1LDguODU4MjU4OTMgWiBNMjQsMTQuNzUgQzE3Ljc4Njc5NjYsMTQuNzUgMTIuNzUsMTkuNzg2Nzk2NiAxMi43NSwyNiBDMTIuNzUsMzIuMjEzMjAzNCAxNy43ODY3OTY2LDM3LjI1IDI0LDM3LjI1IEMzMC4yMTMyMDM0LDM3LjI1IDM1LjI1LDMyLjIxMzIwMzQgMzUuMjUsMjYgQzM1LjI1LDE5Ljc4Njc5NjYgMzAuMjEzMjAzNCwxNC43NSAyNCwxNC43NSBaIE0yNC40NjY2NjQ4LDE5LjM0NTIxNDggTDI0LjQ2NiwyNi40OTkgTDMwLjkzODcyMDcsMjYuNDk5MzAzNCBMMzAuOTM4NzIwNywyNy45OTkzMDM0IEwyMy43MTY2NjQ4LDI3Ljk5OTMwMzQgQzIzLjMzNjk2OSwyNy45OTkzMDM0IDIzLjAyMzE3MzgsMjcuNzE3MTQ5NSAyMi45NzM1MTE0LDI3LjM1MTA3MzkgTDIyLjk2NjY2NDgsMjcuMjQ5MzAzNCBMMjIuOTY2NjY0OCwxOS4zNDUyMTQ4IEwyNC40NjY2NjQ4LDE5LjM0NTIxNDggWiIvPiYjeGE7PC9nPiYjeGE7PGcgaWQ9Imljb24tZmxvdy1jaG9pY2UiIGZpbGwtcnVsZT0iZXZlbm9kZCIgZmlsbD0ibm9uZSIgc3Ryb2tlLXdpZHRoPSIxIiBzdHJva2U9Im5vbmUiPiYjeGE7PGcgZmlsbC1ydWxlPSJub256ZXJvIiBmaWxsPSIjMDA3M0JCIiB0cmFuc2Zvcm09InRyYW5zbGF0ZSg5LjI1MjAyMCwgOC43MjkxODUpIj4mI3hhOzxwYXRoIGZpbGw9ImZhbHNlIiBkPSJNMTMuNzE3NjUwMywwLjIxOTY2OTkxNCBDMTMuOTgzOTE2OCwtMC4wNDY1OTY2NDg0IDE0LjQwMDU4MDUsLTAuMDcwODAyNjk5NiAxNC42OTQxOTIsMC4xNDcwNTE3NjEgTDE0Ljc3ODMxMDQsMC4yMTk2Njk5MTQgTDI2Ljc5OTEyNTcsMTIuMjQwNDg1MiBDMjcuMDY1MzkyMywxMi41MDY3NTE4IDI3LjA4OTU5ODMsMTIuOTIzNDE1NCAyNi44NzE3NDM5LDEzLjIxNzAyNjkgTDI2Ljc5OTEyNTcsMTMuMzAxMTQ1NCBMMTkuODQ4LDIwLjI1MSBMMjcuMDYzLDI3LjU4IEwyNy4wNjM1NDQzLDI0LjQ3MjU0MzcgQzI3LjA2MzU0NDMsMjQuMDU4MzMwMiAyNy4zOTkzMzA4LDIzLjcyMjU0MzcgMjcuODEzNTQ0MywyMy43MjI1NDM3IEMyOC4xOTAxMDIxLDIzLjcyMjU0MzcgMjguNTAxODQ0MSwyNC4wMDAwNTMyIDI4LjU1NTQxMjQsMjQuMzYxNzE0MiBMMjguNTYzNTQ0MywyNC40NzI1NDM3IEwyOC41NjM1NDQzLDI5LjQyMjI5MTIgQzI4LjU2MzU0NDMsMjkuNDczNTc0OCAyOC41NTgzOTcxLDI5LjUyMzY1NjIgMjguNTQ4NTkxMiwyOS41NzIwNDY5IEwyOC41MjkwNTY3LDI5LjY0Nzc3NDUgTDI4LjQ5MTIyNTksMjkuNzQ0MDIyNCBMMjguNDY3NDU1NiwyOS43ODk4NDczIEwyOC40Mzk5ODQ4LDI5LjgzNDg0MzMgTDI4LjM5MjI4MDgsMjkuODk5MzYwOSBMMjguMzI2NjQxNywyOS45NjkzMTQ3IEwyOC4yOTAzNzM0LDMwLjAwMTIyNjEgTDI4LjIxMDM1OTgsMzAuMDU4ODM1NiBMMjguMTM3Mjg4MywzMC4wOTkwMTMzIEwyOC4wNDA4OTczLDMwLjEzNzIxMTMgTDI3LjkyNDM3MzgsMzAuMTY0MTU5MyBDMjcuODg0MTM2MiwzMC4xNjk4MTI5IDI3Ljg0OTEyOTcsMzAuMTcyMjkxMiAyNy44MTM1NDQzLDMwLjE3MjI5MTIgTDIyLjg2Mzc5NjksMzAuMTcyMjkxMiBDMjIuNDQ5NTgzMywzMC4xNzIyOTEyIDIyLjExMzc5NjksMjkuODM2NTA0OCAyMi4xMTM3OTY5LDI5LjQyMjI5MTIgQzIyLjExMzc5NjksMjkuMDQ1NzMzNCAyMi4zOTEzMDYzLDI4LjczMzk5MTQgMjIuNzUyOTY3NCwyOC42ODA0MjMxIEwyMi44NjM3OTY5LDI4LjY3MjI5MTIgTDI2LjAzMiwyOC42NzIgTDE4Ljc4NywyMS4zMTIgTDE0Ljc3ODMxMDQsMjUuMzIxOTYwNiBDMTQuNTEyMDQzOSwyNS41ODgyMjcyIDE0LjA5NTM4MDIsMjUuNjEyNDMzMyAxMy44MDE3Njg3LDI1LjM5NDU3ODggTDEzLjcxNzY1MDMsMjUuMzIxOTYwNiBMOS42MywyMS4yMzQgTDIuMzg2LDI4LjY3MSBMNS42OTk3NDc0NywyOC42NzIyOTEyIEw1LjgxMDU3Njk3LDI4LjY4MDQyMzEgQzYuMTcyMjM4MDIsMjguNzMzOTkxNCA2LjQ0OTc0NzQ3LDI5LjA0NTczMzQgNi40NDk3NDc0NywyOS40MjIyOTEyIEM2LjQ0OTc0NzQ3LDI5LjgwMTk4NyA2LjE2NzU5MzU5LDMwLjExNTc4MjIgNS44MDE1MTgwMywzMC4xNjU0NDQ2IEw1LjY5OTc0NzQ3LDMwLjE3MjI5MTIgTDAuNzUsMzAuMTcyMjkxMiBMMC42NDUxNzUxMDcsMzAuMTY1MDIzOCBMMC41NzEzMTYxMzQsMzAuMTUwODc2IEwwLjQ5MTc0ODk1MywzMC4xMjY2NDM3IEwwLjM5OTgzODUxNCwzMC4wODU3MDEyIEwwLjMyMzk1NzUyMSwzMC4wMzk2MTY1IEwwLjI0MzE2OTc1NywyOS45NzUxMjkgTDAuMTcwOTEyMTMxLDI5Ljg5ODkzNDcgTDAuMTA5OTYxNTg0LDI5LjgxMzQ1ODIgTDAuMDY1Njk0OTk5MSwyOS43Mjk3MDc0IEwwLjAyOTczOTY2OTYsMjkuNjMyMDk0NCBMMC4wMDc2MDU3NTg0LDI5LjUyOTQ5NDQgTDYuNjc5MTAxNzJlLTEzLDI5LjQyMjI5MTIgTDYuNjc5MTAxNzJlLTEzLDI0LjQ3MjU0MzcgTDAuMDA4MTMxOTI1NzIsMjQuMzYxNzE0MiBDMC4wNjE3MDAyMzc2LDI0LjAwMDA1MzIgMC4zNzM0NDIyMTYsMjMuNzIyNTQzNyAwLjc1LDIzLjcyMjU0MzcgQzEuMTI5Njk1NzcsMjMuNzIyNTQzNyAxLjQ0MzQ5MDk2LDI0LjAwNDY5NzYgMS40OTMxNTMzOCwyNC4zNzA3NzMyIEwxLjUsMjQuNDcyNTQzNyBMMS40OTksMjcuNDMzIEw4LjU2OSwyMC4xNzQgTDEuNjk2ODM0OTgsMTMuMzAxMTQ1NCBDMS40MzA1Njg0MiwxMy4wMzQ4Nzg4IDEuNDA2MzYyMzcsMTIuNjE4MjE1MSAxLjYyNDIxNjgzLDEyLjMyNDYwMzYgTDEuNjk2ODM0OTgsMTIuMjQwNDg1MiBMMTMuNzE3NjUwMywwLjIxOTY2OTkxNCBaIE0xNC4zNTI3Njk3LDIzLjcyODM1NiBMMjUuMjA4MTM1NSwxMi43NzA4MTUzIEwxNC4yNDc5ODAzLDEuODEwNjYwMTcgTDMuMjg3ODI1MjQsMTIuNzcwODE1MyBMOS42MTYsMTkuMDk5IEwxNC4zNTI3Njk3LDIzLjcyODM1NiBaIi8+JiN4YTs8cGF0aCBmaWxsPSJmYWxzZSIgZD0iTTE1LjIzMTk4MDMsMTQuMDQ2ODE1MyBMMTUuMjMxOTgwMywxMy4yNjY4MTUzIEMxNi4wMDMzMTM3LDEyLjg1MDgxNTMgMTYuNTU3OTgwMywxMi40MjE4MTUzIDE2Ljg5NTk4MDMsMTEuOTc5ODE1MyBDMTcuMjMzOTgwMywxMS41Mzc4MTUzIDE3LjQwMjk4MDMsMTEuMDE3ODE1MyAxNy40MDI5ODAzLDEwLjQxOTgxNTMgQzE3LjQwMjk4MDMsOS42NTcxNDg2MSAxNy4xNTE2NDcsOS4wNjEzMTUyOCAxNi42NDg5ODAzLDguNjMyMzE1MjggQzE2LjE0NjMxMzcsOC4yMDMzMTUyOCAxNS40NDg2NDcsNy45ODg4MTUyOCAxNC41NTU5ODAzLDcuOTg4ODE1MjggQzEzLjY5Nzk4MDMsNy45ODg4MTUyOCAxMi44NzQ2NDcsOC4xOTI0ODE5NSAxMi4wODU5ODAzLDguNTk5ODE1MjggTDEyLjA4NTk4MDMsOC41OTk4MTUyOCBMMTIuMDg1OTgwMywxMC4zMjg4MTUzIEMxMi44MzEzMTM3LDkuOTgyMTQ4NjEgMTMuNDk0MzEzNyw5LjgwODgxNTI4IDE0LjA3NDk4MDMsOS44MDg4MTUyOCBDMTQuMzk1NjQ3LDkuODA4ODE1MjggMTQuNjQwNDgwMyw5Ljg3ODE0ODYxIDE0LjgwOTQ4MDMsMTAuMDE2ODE1MyBDMTQuOTc4NDgwMywxMC4xNTU0ODE5IDE1LjA2Mjk4MDMsMTAuMzU5MTQ4NiAxNS4wNjI5ODAzLDEwLjYyNzgxNTMgQzE1LjA2Mjk4MDMsMTAuOTEzODE1MyAxNC45NzYzMTM3LDExLjE2NTE0ODYgMTQuODAyOTgwMywxMS4zODE4MTUzIEMxNC42Mjk2NDcsMTEuNTk4NDgxOSAxNC4zNDM2NDcsMTEuODE1MTQ4NiAxMy45NDQ5ODAzLDEyLjAzMTgxNTMgTDEzLjk0NDk4MDMsMTIuMDMxODE1MyBMMTMuMTkwOTgwMywxMi40MzQ4MTUzIEwxMy4zMzM5ODAzLDE0LjA0NjgxNTMgTDE1LjIzMTk4MDMsMTQuMDQ2ODE1MyBaIE0xNC4zMDg5ODAzLDE3LjQzOTgxNTMgQzE0LjcyNDk4MDMsMTcuNDM5ODE1MyAxNS4wNjA4MTM3LDE3LjMxNDE0ODYgMTUuMzE2NDgwMywxNy4wNjI4MTUzIEMxNS41NzIxNDcsMTYuODExNDgxOSAxNS42OTk5ODAzLDE2LjQ4MjE0ODYgMTUuNjk5OTgwMywxNi4wNzQ4MTUzIEMxNS42OTk5ODAzLDE1LjY2NzQ4MTkgMTUuNTcyMTQ3LDE1LjMzODE0ODYgMTUuMzE2NDgwMywxNS4wODY4MTUzIEMxNS4wNjA4MTM3LDE0LjgzNTQ4MTkgMTQuNzI0OTgwMywxNC43MDk4MTUzIDE0LjMwODk4MDMsMTQuNzA5ODE1MyBDMTMuODkyOTgwMywxNC43MDk4MTUzIDEzLjU1NzE0NywxNC44MzU0ODE5IDEzLjMwMTQ4MDMsMTUuMDg2ODE1MyBDMTMuMDQ1ODEzNywxNS4zMzgxNDg2IDEyLjkxNzk4MDMsMTUuNjY3NDgxOSAxMi45MTc5ODAzLDE2LjA3NDgxNTMgQzEyLjkxNzk4MDMsMTYuNDgyMTQ4NiAxMy4wNDU4MTM3LDE2LjgxMTQ4MTkgMTMuMzAxNDgwMywxNy4wNjI4MTUzIEMxMy41NTcxNDcsMTcuMzE0MTQ4NiAxMy44OTI5ODAzLDE3LjQzOTgxNTMgMTQuMzA4OTgwMywxNy40Mzk4MTUzIFoiLz4mI3hhOzwvZz4mI3hhOzwvZz4mI3hhOzxnIGlkPSJpY29uLWZsb3ctc3VjY2VlZCIgZmlsbC1ydWxlPSJldmVub2RkIiBmaWxsPSJub25lIiBzdHJva2Utd2lkdGg9IjEiIHN0cm9rZT0ibm9uZSI+JiN4YTs8ZyBmaWxsLXJ1bGU9Im5vbnplcm8iIGZpbGw9IiMyQUI1MTIiIHRyYW5zZm9ybT0idHJhbnNsYXRlKDExLjI1MDAwMCwgMTIuMjUwMDAwKSI+JiN4YTs8cGF0aCBkPSJNMTIuNzUsMCBDNS43MDgzNjk0NCwwIDAsNS43MDgzNjk0NCAwLDEyLjc1IEMwLDE5Ljc5MTYzMDYgNS43MDgzNjk0NCwyNS41IDEyLjc1LDI1LjUgQzE5Ljc5MTYzMDYsMjUuNSAyNS41LDE5Ljc5MTYzMDYgMjUuNSwxMi43NSBDMjUuNSw1LjcwODM2OTQ0IDE5Ljc5MTYzMDYsMCAxMi43NSwwIFogTTEyLjc1LDEuNSBDMTguOTYzMjAzNCwxLjUgMjQsNi41MzY3OTY1NiAyNCwxMi43NSBDMjQsMTguOTYzMjAzNCAxOC45NjMyMDM0LDI0IDEyLjc1LDI0IEM2LjUzNjc5NjU2LDI0IDEuNSwxOC45NjMyMDM0IDEuNSwxMi43NSBDMS41LDYuNTM2Nzk2NTYgNi41MzY3OTY1NiwxLjUgMTIuNzUsMS41IFoiLz4mI3hhOzxwYXRoIGQ9Ik0xNy40ODIxNTEsOS4zOTEyMzYxIEMxNy43NzUwNDQyLDkuMDk4MzQyODggMTguMjQ5OTE3OSw5LjA5ODM0Mjg4IDE4LjU0MjgxMTEsOS4zOTEyMzYxIEMxOC44MDkwNzc3LDkuNjU3NTAyNjYgMTguODMzMjgzOCwxMC4wNzQxNjYzIDE4LjYxNTQyOTMsMTAuMzY3Nzc3OCBMMTguNTQyODExMSwxMC40NTE4OTYzIEwxMS4xNTgxOTU4LDE3LjgzNjUxMTcgQzEwLjkwMTM0MjcsMTguMDkzMzY0NyAxMC41MDMwMDM4LDE4LjEyNTgyNDMgMTAuMjEwNDI5NCwxNy45MjkzOTU5IEwxMC4xMTcxNjA5LDE3Ljg1NTQzNjIgTDYuOTgyNTMyMjUsMTQuOTQwODE0MyBDNi42NzkxODcyOCwxNC42NTg3NTk5IDYuNjYxOTI3ODksMTQuMTg0MTk5OSA2Ljk0Mzk4MjMyLDEzLjg4MDg1NDkgQzcuMjAwMzk1NDQsMTMuNjA1MDg2OCA3LjYxNTkwNDA1LDEzLjU2NTc1MyA3LjkxNzIzOTUzLDEzLjc3Mjc5MjEgTDguMDAzOTQxNywxMy44NDIzMDUgTDEwLjYwOCwxNi4yNjQgTDE3LjQ4MjE1MSw5LjM5MTIzNjEgWiIvPiYjeGE7PC9nPiYjeGE7PC9nPiYjeGE7PGcgaWQ9Imljb24tZmxvdy1mYWlsIiBmaWxsLXJ1bGU9ImV2ZW5vZGQiIGZpbGw9Im5vbmUiIHN0cm9rZS13aWR0aD0iMSIgc3Ryb2tlPSJub25lIj4mI3hhOzxnIGZpbGwtcnVsZT0ibm9uemVybyIgZmlsbD0iI0QxMzIxMiIgdHJhbnNmb3JtPSJ0cmFuc2xhdGUoMTEuMjUwMDAwLCAxMi4yNTAwMDApIj4mI3hhOzxwYXRoIGQ9Ik0xMi43NSwwIEM1LjcwODM2OTQ0LDAgMCw1LjcwODM2OTQ0IDAsMTIuNzUgQzAsMTkuNzkxNjMwNiA1LjcwODM2OTQ0LDI1LjUgMTIuNzUsMjUuNSBDMTkuNzkxNjMwNiwyNS41IDI1LjUsMTkuNzkxNjMwNiAyNS41LDEyLjc1IEMyNS41LDUuNzA4MzY5NDQgMTkuNzkxNjMwNiwwIDEyLjc1LDAgWiBNMTIuNzUsMS41IEMxOC45NjMyMDM0LDEuNSAyNCw2LjUzNjc5NjU2IDI0LDEyLjc1IEMyNCwxOC45NjMyMDM0IDE4Ljk2MzIwMzQsMjQgMTIuNzUsMjQgQzYuNTM2Nzk2NTYsMjQgMS41LDE4Ljk2MzIwMzQgMS41LDEyLjc1IEMxLjUsNi41MzY3OTY1NiA2LjUzNjc5NjU2LDEuNSAxMi43NSwxLjUgWiIvPiYjeGE7PHBhdGggZD0iTTE2LjU4MzE0MDMsOC4yMTExNjM3NyBDMTYuODc2NzUxOCw3Ljk5MzMwOTMxIDE3LjI5MzQxNTUsOC4wMTc1MTUzNiAxNy41NTk2ODIsOC4yODM3ODE5MyBDMTcuODI1OTQ4Niw4LjU1MDA0ODQ5IDE3Ljg1MDE1NDcsOC45NjY3MTIxNyAxNy42MzIzMDAyLDkuMjYwMzIzNjYgTDE3LjU1OTY4Miw5LjM0NDQ0MjEgTDEzLjYyMjQ2NCwxMy4yODIxMTIgTDE3LjU1OTY4MiwxNy4yMTk2Njk5IEMxNy44NTI1NzUzLDE3LjUxMjU2MzEgMTcuODUyNTc1MywxNy45ODc0MzY5IDE3LjU1OTY4MiwxOC4yODAzMzAxIEMxNy4yOTM0MTU1LDE4LjU0NjU5NjYgMTYuODc2NzUxOCwxOC41NzA4MDI3IDE2LjU4MzE0MDMsMTguMzUyOTQ4MiBMMTYuNDk5MDIxOSwxOC4yODAzMzAxIEwxMi41NjE0NjQsMTQuMzQzMTEyIEw4LjYyMzc5NDA2LDE4LjI4MDMzMDEgTDguNTM5Njc1NjMsMTguMzUyOTQ4MiBDOC4yNDYwNjQxMywxOC41NzA4MDI3IDcuODI5NDAwNDUsMTguNTQ2NTk2NiA3LjU2MzEzMzg5LDE4LjI4MDMzMDEgQzcuMjk2ODY3MzMsMTguMDE0MDYzNSA3LjI3MjY2MTI4LDE3LjU5NzM5OTggNy40OTA1MTU3NCwxNy4zMDM3ODgzIEw3LjU2MzEzMzg5LDE3LjIxOTY2OTkgTDExLjUwMDQ2NCwxMy4yODIxMTIgTDcuNTYzMTMzODksOS4zNDQ0NDIxIEM3LjI3MDI0MDY3LDkuMDUxNTQ4ODggNy4yNzAyNDA2Nyw4LjU3NjY3NTE0IDcuNTYzMTMzODksOC4yODM3ODE5MyBDNy44Mjk0MDA0NSw4LjAxNzUxNTM2IDguMjQ2MDY0MTMsNy45OTMzMDkzMSA4LjUzOTY3NTYzLDguMjExMTYzNzcgTDguNjIzNzk0MDYsOC4yODM3ODE5MyBMMTIuNTYxNDY0LDEyLjIyMTExMiBMMTYuNDk5MDIxOSw4LjI4Mzc4MTkzIEwxNi41ODMxNDAzLDguMjExMTYzNzcgWiIvPiYjeGE7PC9nPiYjeGE7PC9nPiYjeGE7PGcgaWQ9Imljb24tc2VydmljZS1kZGIiIGZpbGwtcnVsZT0iZXZlbm9kZCIgZmlsbD0ibm9uZSIgc3Ryb2tlLXdpZHRoPSIxIiBzdHJva2U9Im5vbmUiPiYjeGE7PHBvbHlnb24gcG9pbnRzPSIwIDAgNDggMCA0OCA0OCAwIDQ4IiBmaWxsLXJ1bGU9Im5vbnplcm8iIGZpbGw9InVybCgjZ3JhZGllbnQtYmx1ZSkiLz4mI3hhOzxwYXRoIGZpbGw9IiNGRkZGRkYiIGQ9Ik0zNC41ODEwMjg3LDE5LjU5NDc1NTYgTDMyLjE5MTA0MTIsMTkuNTk0NzU1NiBDMzEuOTcyMzc1NywxOS41OTQ3NTU2IDMxLjc2NzcxMDEsMTkuNDg2MjUzNCAzMS42NDMwNDQxLDE5LjMwNDk2NzEgQzMxLjUxODM3ODEsMTkuMTIzMDA2OSAzMS40ODk3MTE2LDE4Ljg5MTE3NjIgMzEuNTY3MDQ0NSwxOC42ODQyODA3IEwzMy4yMjkwMzU4LDE0LjIwMzM0MjEgTDI3LjI4NzA2NywxNC4yMDMzNDIxIEwyNC41NTk3NDgsMjAuMjY4NjgyMyBMMjcuNTI0Mzk5MSwyMC4yNjg2ODIzIEMyNy43MzgzOTgsMjAuMjY4NjgyMyAyNy45Mzk3MzAyLDIwLjM3MjQ2NyAyOC4wNjU3Mjk2LDIwLjU0OTAzNTggQzI4LjE5MDM5NTYsMjAuNzI0MjU2OCAyOC4yMjUwNjIxLDIwLjk1MDAyMjIgMjguMTU2Mzk1OCwyMS4xNTU1Njk5IEwyNS43MTY0MDg2LDI4LjU1NTk1ODkgTDM0LjU4MTAyODcsMTkuNTk0NzU1NiBaIE0zNi42NjE2ODQ0LDE5LjM5NzI5NTEgTDI0LjY2MjQxNDEsMzEuNTI3OTc1NiBDMjQuNTM0NDE0OCwzMS42NTgwNDM1IDI0LjM2MzA4MjQsMzEuNzI1NDM2MSAyNC4xOTEwODMzLDMxLjcyNTQzNjEgQzI0LjA2OTc1MDYsMzEuNzI1NDM2MSAyMy45NDkwODQ1LDMxLjY5MjQxMzcgMjMuODQxMDg1MSwzMS42MjUwMjExIEMyMy41Nzc3NTMyLDMxLjQ2MDU4MjkgMjMuNDYwNDIwNCwzMS4xMzUwNzY0IDIzLjU1OTA4NjYsMzAuODM4NTQ4NiBMMjYuNTk5MDcwNiwyMS42MTY1MzU3IEwyMy41MjQ0MjAxLDIxLjYxNjUzNTcgQzIzLjI5Nzc1NDYsMjEuNjE2NTM1NyAyMy4wODcwODkxLDIxLjQ5OTk0NjQgMjIuOTYzNzU2NCwyMS4zMDc4NzczIEMyMi44NDE3NTcsMjEuMTE0NDYwMyAyMi44MjM3NTcxLDIwLjg3MjUyMDYgMjIuOTE3NzU2NiwyMC42NjM2MDM0IEwyNi4yNTEwNzI0LDEzLjI1MDQwOTcgQzI2LjM1OTA3MTksMTMuMDA5ODE3OSAyNi41OTU3MzczLDEyLjg1NTQ4ODcgMjYuODU3NzM1OSwxMi44NTU0ODg3IEwzNC4xOTEwMzA3LDEyLjg1NTQ4ODcgQzM0LjQwOTY5NjIsMTIuODU1NDg4NyAzNC42MTQzNjE4LDEyLjk2Mzk5MDkgMzQuNzM5MDI3OCwxMy4xNDUyNzcyIEMzNC44NjM2OTM4LDEzLjMyNzIzNzQgMzQuODkyMzYwMywxMy41NTkwNjgxIDM0LjgxNTY5NDEsMTMuNzY1OTYzNiBMMzMuMTUzMDM2MiwxOC4yNDY5MDIyIEwzNi4xOTAzNTM1LDE4LjI0NjkwMjIgQzM2LjQ1OTY4NTQsMTguMjQ2OTAyMiAzNi43MDM2ODQyLDE4LjQxMTM0MDMgMzYuODA2MzUwMywxOC42NjI3MTUgQzM2LjkwOTY4MzEsMTguOTE0NzYzNiAzNi44NTIzNSwxOS4yMDQ1NTIxIDM2LjY2MTY4NDQsMTkuMzk3Mjk1MSBMMzYuNjYxNjg0NCwxOS4zOTcyOTUxIFogTTMwLjg1NzcxNDksMzIuMjQxNjY0IEMyOS4wNTEwNTc3LDMzLjQ5OTIxMTIgMjUuNzMzMDc1MiwzNC4xNjMwMjkgMjIuNTQ1NzU4NiwzNC4xNjMwMjkgQzE5LjMzNTEwODgsMzQuMTYzMDI5IDE1Ljk4Nzc5MzEsMzMuNDkwNDUwMiAxNC4xOTA0NjkyLDMyLjIxNDAzMyBMMTQuMTkxMTM1OCwzNC43NTgxMDYzIEMxNC4xOTExMzU4LDM1Ljg2NzM4OTYgMTcuMzY5Nzg1OCwzNy40MTQwNTE0IDIyLjU0NTc1ODYsMzcuNDE0MDUxNCBDMjcuNTQyMzk5LDM3LjQxNDA1MTQgMzAuODU3NzE0OSwzNS42MTI2NDUzIDMwLjg1NzcxNDksMzQuNDIxMTQyOSBMMzAuODU3NzE0OSwzMi4yNDE2NjQgWiBNMzIuMjMzNzA3NywzMC4wNjIxODUxIEMzMi4yMzM3MDc3LDMwLjE4Njg2MTUgMzIuMjEyMzc0NCwzMC4zMDY4MjA0IDMyLjE5MTA0MTIsMzAuNDI2MTA1NSBMMzIuMTkxMDQxMiwzNC40MjExNDI5IEMzMi4xOTEwNDEyLDM2LjgxNDkzMDUgMjcuODY0Mzk3MywzOC43NjE5MDQ4IDIyLjU0NTc1ODYsMzguNzYxOTA0OCBDMTcuOTQzNzgyOCwzOC43NjE5MDQ4IDEzLjI5ODQ3MzksMzcuNTAyMzM1OCAxMi44OTcxNDI2LDM1LjA5NTA2OTYgTDEyLjg1NzgwOTUsMzUuMDk1MDY5NiBMMTIuODU3MTQyOSwzMS43MjU0MzYxIEwxMi44NTcxNDI5LDIyLjk2NDM4OTEgTDEyLjg1NzE0MjksMTMuNTI5NDE1NCBMMTIuODU3ODA5NSwxMy41Mjk0MTU0IEMxMi44NTc4MDk1LDEwLjg2NTM4MzEgMTcuODQ5MTE2Niw5LjQyODU3MTQzIDIyLjU0NTc1ODYsOS40Mjg1NzE0MyBDMjUuMTczMDc4MSw5LjQyODU3MTQzIDI3LjY5OTA2NDgsOS44NTUxNjcwMyAyOS40NzcwNTU1LDEwLjU5OTE4MjEgTDI4Ljk2NjM5MTUsMTEuODQ0NTk4NiBDMjcuMzQ1MDY2NywxMS4xNjUyODA1IDI1LjAwNDQxMjMsMTAuNzc2NDI0OCAyMi41NDU3NTg2LDEwLjc3NjQyNDggQzE3LjM2OTc4NTgsMTAuNzc2NDI0OCAxNC4xOTExMzU4LDEyLjM3OTY5NjQgMTQuMTkxMTM1OCwxMy41Mjk0MTU0IEMxNC4xOTExMzU4LDE0LjY3OTEzNDMgMTcuMzY5Nzg1OCwxNi4yODI0MDU5IDIyLjU0NTc1ODYsMTYuMjgyNDA1OSBDMjIuNjc1NzU3OSwxNi4yODI0MDU5IDIyLjgxMTc1NzIsMTYuMjgzMDc5OCAyMi45NDMwODk4LDE2LjI3NzY4ODQgTDIyLjk5NTA4OTYsMTcuNjI0MTk0IEMyMi44NDUwOTAzLDE3LjYzMDI1OTMgMjIuNjk1NzU3OCwxNy42MzAyNTkzIDIyLjU0NTc1ODYsMTcuNjMwMjU5MyBDMTkuMzM0NDQyMSwxNy42MzAyNTkzIDE1Ljk4Nzc5MzEsMTYuOTU3NjgwNSAxNC4xOTA0NjkyLDE1LjY4MTI2MzMgTDE0LjE5MDQ2OTIsMTguNTg2NTYxMyBMMTQuMTkxMTM1OCwxOC41ODY1NjEzIEwxNC4xOTExMzU4LDE4LjU5ODAxOCBDMTQuMTk0NDY5MiwxOC45NTExNTU2IDE0LjUxNzEzNDEsMTkuMzYwMjI5MSAxNS4xMDA0NjQ0LDE5Ljc0NDM2NzQgQzE2LjQyMTc5MDgsMjAuNjAyOTUgMTguODAwNDQ0OSwyMS4xODk5NDAxIDIxLjQ1OTc2NDMsMjEuMzExOTIwOCBMMjEuMzk5MDk4LDIyLjY1ODQyNjQgQzE4LjY0ODQ0NTcsMjIuNTMxNzI4MiAxNi4yMzI0NTg0LDIxLjk0NjA4NTkgMTQuNjc1MTMzMywyMS4wNDc3NDE2IEMxNC40Njg0Njc3LDIxLjI0NjU1IDE0LjE5MTEzNTgsMjEuNzUxOTk1IDE0LjE5MTEzNTgsMjIuMDI1NjA5MiBDMTQuMTkxMTM1OCwyMy4xNzUzMjgyIDE3LjM2OTc4NTgsMjQuNzc4NTk5OCAyMi41NDU3NTg2LDI0Ljc3ODU5OTggQzIzLjAzNzc1NiwyNC43Nzg1OTk4IDIzLjUyMjQyMDEsMjQuNzYxNzUxNiAyMy45ODcwODQzLDI0LjcyODcyOTIgTDI0LjA4MTA4MzksMjYuMDczMjEyOSBDMjMuNTg1MDg2NSwyNi4xMDg5MzExIDIzLjA2ODQyMjUsMjYuMTI2NDUzMiAyMi41NDU3NTg2LDI2LjEyNjQ1MzIgQzE5LjMzNDQ0MjEsMjYuMTI2NDUzMiAxNS45ODc3OTMxLDI1LjQ1Mzg3NDMgMTQuMTkwNDY5MiwyNC4xNzc0NTcyIEwxNC4xOTA0NjkyLDI2LjYyMzgxMTEgTDE0LjE5MTEzNTgsMjYuNjIzODExMSBDMTQuMTk0NDY5MiwyNi45ODg0MDU0IDE0LjUxNzEzNDEsMjcuMzk3NDc4OSAxNS4xMDA0NjQ0LDI3Ljc4MTYxNzEgQzE2LjYxMjQ1NjQsMjguNzY0ODc2MiAxOS40NjY0NDE0LDI5LjM3NzQ3NTUgMjIuNTQ1NzU4NiwyOS4zNzc0NzU1IEwyMi43NjU3NTc0LDI5LjM3NzQ3NTUgTDIyLjc2NTc1NzQsMzAuNzI1MzI4OSBMMjIuNTQ1NzU4NiwzMC43MjUzMjg5IEMxOS4zNjA0NDIsMzAuNzI1MzI4OSAxNS45NzI0NTk4LDMwLjA1MzQyNCAxNC4xOTExMzU4LDI5LjAyOTcyOTQgQzEzLjk3NjQ3MDMsMjkuMjI4NTM3NyAxNC4xOTExMzU4LDI5LjcwMzY1NjEgMTQuMTkxMTM1OCwzMC4wNjIxODUxIEMxNC4xOTExMzU4LDMxLjIxMTkwNCAxNy4zNjk3ODU4LDMyLjgxNTE3NTYgMjIuNTQ1NzU4NiwzMi44MTUxNzU2IEMyNy43MjIzOTgsMzIuODE1MTc1NiAzMC45MDAzODEzLDMxLjIxMTkwNCAzMC45MDAzODEzLDMwLjA2MjE4NTEgQzMwLjkwMDM4MTMsMjkuNjU1ODA3MyAzMC41MDEwNTAxLDI5LjI3OTA4MjIgMzAuMTcyMzg1MiwyOS4wMzY0Njg2IEMyOS44OTk3MTk5LDI5LjIwMDkwNjcgMjkuNTk5NzIxNSwyOS4zNTg2MDU2IDI5LjI1NzcyMzMsMjkuNTAyODI1OSBMMjguNzQ1NzI2LDI4LjI1ODA4MzMgQzI5LjA5OTcyNDEsMjguMTA5MTQ1NSAyOS40MDU3MjI1LDI3Ljk0OTQyNDkgMjkuNjU1MDU0NSwyNy43ODM2Mzg5IEMzMC4zODkwNTA3LDI3LjI5NDM2ODEgMzAuODU3NzE0OSwyNi41OTgyMDE4IDMwLjg1NzcxNDksMjYuMzM0MDIyNiBMMzIuMTkxMDQxMiwyNi4zMzQwMjI2IEMzMi4xOTEwNDEyLDI2Ljk2MDc3NDQgMzEuNzc3MDQzNCwyNy42MzIwMDU0IDMxLjI0NjM3OTUsMjguMTgzOTUxNCBDMzIuMDQxMDQyLDI4Ljg3NzQyMTkgMzIuMjMzNzA3NywyOS41Njk1NDQ2IDMyLjIzMzcwNzcsMzAuMDYyMTg1MSBMMzIuMjMzNzA3NywzMC4wNjIxODUxIFogTTE0Ljk1MTc5ODUsMzUuMDIwOTM3NyBDMTUuNDc5MTI5MSwzNS4yOTMyMDQxIDE2LjA5NTc5MjUsMzUuNTM1ODE3NyAxNi43ODY0NTU1LDM1Ljc0MTM2NTMgTDE3LjE2MjQ1MzYsMzQuNDQ4MSBDMTYuNTUxNzkwMSwzNC4yNjY4MTM3IDE2LjAxMTc5MjksMzQuMDU1MjAwNyAxNS41NTg0NjIsMzMuODIwNjc0MiBMMTQuOTUxNzk4NSwzNS4wMjA5Mzc3IFogTTE2Ljc4NjQ1NTUsMjcuNjU0MjQ1IEwxNy4xNjI0NTM2LDI2LjM2MTY1MzYgQzE2LjU1MTc5MDEsMjYuMTc5NjkzNCAxNi4wMTE3OTI5LDI1Ljk2ODc1NDMgMTUuNTU4NDYyLDI1LjczNDIyNzggTDE0Ljk1MTc5ODUsMjYuOTMzODE3MyBDMTUuNDc5MTI5MSwyNy4yMDY3NTc2IDE2LjA5NTc5MjUsMjcuNDQ4Njk3MyAxNi43ODY0NTU1LDI3LjY1NDI0NSBMMTYuNzg2NDU1NSwyNy42NTQyNDUgWiBNMTQuOTUxNzk4NSwxOC44NDczNzA5IEwxNS41NTg0NjIsMTcuNjQ3MTA3NSBDMTYuMDExNzkyOSwxNy44ODE2MzQgMTYuNTUxNzkwMSwxOC4wOTI1NzMgMTcuMTYyNDUzNiwxOC4yNzQ1MzMyIEwxNi43ODY0NTU1LDE5LjU2Nzc5ODYgQzE2LjA5NTc5MjUsMTkuMzYyMjUwOSAxNS40NzkxMjkxLDE5LjExOTYzNzMgMTQuOTUxNzk4NSwxOC44NDczNzA5IEwxNC45NTE3OTg1LDE4Ljg0NzM3MDkgWiIvPiYjeGE7PC9nPiYjeGE7PGcgaWQ9Imljb24tc2VydmljZS1sYW0iIGZpbGwtcnVsZT0iZXZlbm9kZCIgZmlsbD0ibm9uZSIgc3Ryb2tlLXdpZHRoPSIxIiBzdHJva2U9Im5vbmUiPiYjeGE7PHBvbHlnb24gcG9pbnRzPSIwIDAgNDggMCA0OCA0OCAwIDQ4IiBmaWxsLXJ1bGU9Im5vbnplcm8iIGZpbGw9InVybCgjZ3JhZGllbnQtb3JhbmdlKSIvPiYjeGE7PGcgZmlsbD0iI0ZGRkZGRiIgdHJhbnNmb3JtPSJ0cmFuc2xhdGUoMTEsIDEwKSI+JiN4YTs8cGF0aCBkPSJNMjYuNTg4OTIxMywyNy44OTM3MDg4IEwxOS42OTI1OTQ4LDI3Ljg5MzcwODggQzE5LjQ3NzI3NTIsMjcuODkzMTA3NCAxOS4yODEzOTE2LDI3Ljc3MDY5MTQgMTkuMTg4ODA0NywyNy41Nzg4NjkgTDkuNDM3NjY3NjQsNy40NTY3MzQwNCBMNS4zMTIxODY1OSw3LjQ1NjczNDA0IEM1LjAwMzAzNTk0LDcuNDU2NzM0MDQgNC43NTI0MTk4Myw3LjIwOTQzODIzIDQuNzUyNDE5ODMsNi45MDQzODMzNyBMNC43NTI0MTk4MywwLjgyODUyNjAwNSBDNC43NTI0MTk4MywwLjUyMzQ3MTE1MyA1LjAwMzAzNTk0LDAuMjc2MTc1MzM1IDUuMzEyMTg2NTksMC4yNzYxNzUzMzUgTDEzLjkzMjU5NDgsMC4yNzYxNzUzMzUgQzE0LjE0NzkxNDMsMC4yNzY3NzY3ODggMTQuMzQzNzk3OSwwLjM5OTE5Mjc4NyAxNC40MzYzODQ4LDAuNTkxMDE1MjE3IEwyNC4xNDI3NDA1LDIwLjcxMzE1MDEgTDI2LjU4ODkyMTMsMjAuNzEzMTUwMSBDMjYuODk4MDcxOSwyMC43MTMxNTAxIDI3LjE0ODY4OCwyMC45NjA0NDU5IDI3LjE0ODY4OCwyMS4yNjU1MDA4IEwyNy4xNDg2ODgsMjcuMzQxMzU4MiBDMjcuMTQ4Njg4LDI3LjY0NjQxMyAyNi44OTgwNzE5LDI3Ljg5MzcwODggMjYuNTg4OTIxMywyNy44OTM3MDg4IFogTTIwLjA0NTI0NzgsMjYuNzg5MDA3NSBMMjYuMDI5MTU0NSwyNi43ODkwMDc1IEwyNi4wMjkxNTQ1LDIxLjgxNzg1MTUgTDIzLjc5MDA4NzUsMjEuODE3ODUxNSBDMjMuNTc0NzY3OSwyMS44MTcyNSAyMy4zNzg4ODQzLDIxLjY5NDgzNCAyMy4yODYyOTc0LDIxLjUwMzAxMTYgTDEzLjU3OTk0MTcsMS4zODA4NzY2NyBMNS44Nzc1NTEwMiwxLjM4MDg3NjY3IEw1Ljg3NzU1MTAyLDYuMzUyMDMyNyBMOS43OTU5MTgzNyw2LjM1MjAzMjcgQzEwLjAxMTIzNzksNi4zNTI2MzQxNiAxMC4yMDcxMjE1LDYuNDc1MDUwMTYgMTAuMjk5NzA4NSw2LjY2Njg3MjU5IEwyMC4wNDUyNDc4LDI2Ljc4OTAwNzUgWiIvPiYjeGE7PHBhdGggZD0iTTguMTA1NDIyNzQsMjcuODkzNzA5OSBMMC44Mjg0NTQ4MSwyNy44OTM3MDk5IEMwLjYzNTA1NDU3MSwyNy44OTQwOTA3IDAuNDU1MTU1MDA2LDI3Ljc5NTkzNDcgMC4zNTI2NTMwNjEsMjcuNjM0MTA0IEMwLjI0Mzg1ODM5MSwyNy40NjgxODQ4IDAuMjMzMTg1NDI4LDI3LjI1NzU1MzYgMC4zMjQ2NjQ3MjMsMjcuMDgxNzUzMyBMNy45Mzc0OTI3MSwxMS4zODk0NzA4IEM4LjAzMDA3OTY0LDExLjE5NzY0ODQgOC4yMjU5NjMyMywxMS4wNzUyMzI0IDguNDQxMjgyOCwxMS4wNzQ2Mjk4IEw4LjQ0MTI4MjgsMTEuMDc0NjI5OCBDOC42NTUzMzQ4NywxMS4wNzQyMDgyIDguODUwODkwMjIsMTEuMTk0Mjc1MSA4Ljk0NTA3Mjg5LDExLjM4Mzk0NzMgTDEyLjU4OTE1NDUsMTguNzc5OTIyOCBDMTIuNjYzNDY4OCwxOC45MzE3MTIgMTIuNjYzNDY4OCwxOS4xMDg2Nzg2IDEyLjU4OTE1NDUsMTkuMjYwNDY3OSBMOC42MTQ4MTA1LDI3LjU0NTcyNzkgQzguNTMxNDc1MjYsMjcuNzUyMzE5OSA4LjMzMDcyMzEyLDI3Ljg4OTQ2MDkgOC4xMDU0MjI3NCwyNy44OTM3MDk5IEw4LjEwNTQyMjc0LDI3Ljg5MzcwOTkgWiBNMS43MjQwODE2MywyNi43ODkwMDc1IEw3Ljc1Mjc2OTY4LDI2Ljc4OTAwNzUgTDExLjQ2NDAyMzMsMTkuMDU2MDk4MSBMOC40NDY4ODA0NywxMi44OTczODgxIEwxLjcyNDA4MTYzLDI2Ljc4OTAwNzUgWiIvPiYjeGE7PC9nPiYjeGE7PC9nPiYjeGE7PC9kZWZzPiYjeGE7PC9nPiYjeGE7PHN0eWxlIGRhdGEtc3R5bGVkLXZlcnNpb249IjUuMy4xMSIgZGF0YS1zdHlsZWQ9InRydWUiPi5ielVabGF7Y3Vyc29yOnBvaW50ZXI7fS8qIXNjKi8mI3hhO2RhdGEtc3R5bGVkLmc1MltpZD0ic2MtZmp2dnp0Il17Y29udGVudDoiYnpVWmxhLCJ9Lyohc2MqLyYjeGE7LmRtZ3puSntzdHJva2U6IzU1NTtiYWNrZ3JvdW5kLWNvbG9yOiM1NTU7c3Ryb2tlLXdpZHRoOjFweDt9Lyohc2MqLyYjeGE7ZGF0YS1zdHlsZWQuZzUzW2lkPSJzYy1iYlNaZGkiXXtjb250ZW50OiJkbWd6bkosIn0vKiFzYyovJiN4YTsuZ2p3YmhHe3N0cm9rZS13aWR0aDowO3N0cm9rZTpub25lO2ZpbGw6I2YyZjNmMzt9Lyohc2MqLyYjeGE7ZGF0YS1zdHlsZWQuZzU0W2lkPSJzYy1mQldRUnoiXXtjb250ZW50OiJnandiaEcsIn0vKiFzYyovJiN4YTsuZHdjYlRLe2ZvbnQtc2l6ZToxMHB4O2xpbmUtaGVpZ2h0OjEyLjU7c3Ryb2tlOm5vbmU7fS8qIXNjKi8mI3hhO2RhdGEtc3R5bGVkLmc1NVtpZD0ic2MtaGtuT0hFIl17Y29udGVudDoiZHdjYlRLLCJ9Lyohc2MqLyYjeGE7LmlnWVBkRXtmaWxsOnZhcigtLWNvbG9yLXRleHQtZm9ybS1zZWNvbmRhcnktc213cjdhLCM2ODcwNzgpO30vKiFzYyovJiN4YTtkYXRhLXN0eWxlZC5nODFbaWQ9InNjLWloZ254RiJde2NvbnRlbnQ6ImlnWVBkRSwifS8qIXNjKi8mI3hhOy5RZWtiaXtmb250LXdlaWdodDo0MDA7Zm9udC1zaXplOjEycHg7bGluZS1oZWlnaHQ6MTZweDtmb250LWZhbWlseTpBbWF6b24gRW1iZXIsQXJpYWwsUm9ib3RvLEFyaWFsLHNhbnMtc2VyaWY7dGV4dC1zaGFkb3c6bm9uZTtmaWxsOnZhcigtLWNvbG9yLXRleHQtYnV0dG9uLXByaW1hcnktZGVmYXVsdC1oMWVsN28sIzE2MTkxZik7fS8qIXNjKi8mI3hhO2RhdGEtc3R5bGVkLmc4MltpZD0ic2Mtak1ha1ZvIl17Y29udGVudDoiUWVrYmksIn0vKiFzYyovJiN4YTsuakhkaGZ6e2ZpbGw6I2ZmZjljYztzdHJva2U6dmFyKC0tY29sb3ItdGV4dC1mb3JtLXNlY29uZGFyeS1zbXdyN2EsIzY4NzA3OCk7c3Ryb2tlLXdpZHRoOjAuNnB4O30vKiFzYyovJiN4YTtkYXRhLXN0eWxlZC5nODNbaWQ9InNjLWlNVG5UTCJde2NvbnRlbnQ6ImpIZGhmeiwifS8qIXNjKi8mI3hhOzwvc3R5bGU+JiN4YTs8c3R5bGU+JiN4YTsubmV3LWxvb2stc3RhdGUtbm9kZSAmZ3Q7IHJlY3Q6Zmlyc3Qtb2YtdHlwZSB7JiN4YTsgIHN0cm9rZTogIzY4NzA3ODsmI3hhOyAgc3Ryb2tlLXdpZHRoOiAxcHg7JiN4YTsgIGZpbGw6ICNGRkZGRkY7JiN4YTt9JiN4YTsmI3hhOy5uZXctbG9vay1zdGF0ZS1ub2RlIC5lcnJvci1pY29uIGNpcmNsZSB7JiN4YTsgc3Ryb2tlLWxpbmVqb2luOiByb3VuZDsmI3hhO30mI3hhOyYjeGE7Lm5ldy1sb29rLXN0YXRlLW5vZGUgLmVycm9yLWljb24gY2lyY2xlLCAubmV3LWxvb2stc3RhdGUtbm9kZSAuZXJyb3ItaWNvbiBwYXRoIHsmI3hhOyBzdHJva2U6IHZhcigtLWNvbG9yLWJvcmRlci1zdGF0dXMtZXJyb3ItamFwc3gwLCAjZDEzMjEyKTsmI3hhOyBmaWxsOiBub25lOyYjeGE7IHN0cm9rZS13aWR0aDogMnB4OyYjeGE7fSYjeGE7JiN4YTsubmV3LWxvb2stc3RhdGUtbm9kZS5oYXMtZXJyb3JzICZndDsgcmVjdDpmaXJzdC1vZi10eXBlIHsmI3hhOyBzdHJva2U6IHZhcigtLWNvbG9yLWJvcmRlci1zdGF0dXMtZXJyb3ItamFwc3gwLCAjZDEzMjEyKTsmI3hhOyBmaWxsOiB2YXIoLS1jb2xvci1iYWNrZ3JvdW5kLXN0YXR1cy1lcnJvci13Z2g1YmcsICNmZGYzZjEpOyYjeGE7fSYjeGE7JiN4YTsubmV3LWxvb2stc3RhdGUtbm9kZS5oYXMtZXJyb3JzICZndDsgLmJvdW5kaW5nLWJveCAmZ3Q7IC5uZXctbG9vay1zdGF0ZS1ub2RlLXN1YiAmZ3Q7IHJlY3QgeyYjeGE7ICBzdHJva2U6IHZhcigtLWNvbG9yLWJvcmRlci1zdGF0dXMtZXJyb3ItamFwc3gwLCAjZDEzMjEyKTsmI3hhOyAgZmlsbDogdmFyKC0tY29sb3ItYmFja2dyb3VuZC1zdGF0dXMtZXJyb3Itd2doNWJnLCAjZmRmM2YxKTsmI3hhO30mI3hhOyYjeGE7Lm5ldy1sb29rLXN0YXRlLW5vZGUgLmhhbmRsZSBwYXRoIHsmI3hhOyAgc3Ryb2tlOiB2YXIoLS1jb2xvci1ib3JkZXItZHJvcGRvd24taXRlbS1ob3Zlci0zOGdxemMsICM4Nzk1OTYpOyYjeGE7ICBzdHJva2Utd2lkdGg6IDFweDsmI3hhOyAgZmlsbDogbm9uZTsmI3hhO30mI3hhOyYjeGE7Lm5ldy1sb29rLXN0YXRlLW5vZGUgeyYjeGE7ICBmb250LXdlaWdodDogNDAwOyYjeGE7ICBmb250LWZhbWlseTogQW1hem9uIEVtYmVyLCBBcmlhbCwgUm9ib3RvLCBBcmlhbCwgc2Fucy1zZXJpZjsmI3hhOyAgdGV4dC1zaGFkb3c6IG5vbmU7JiN4YTt9JiN4YTsmI3hhOy5uZXctbG9vay1zdGF0ZS1ub2RlIC5saW5lMSB7JiN4YTsgIGZpbGw6ICM2ODcwNzg7JiN4YTsgIGZvbnQtc2l6ZTogMTJweDsmI3hhO30mI3hhOyYjeGE7Lm5ldy1sb29rLXN0YXRlLW5vZGUgLmxpbmUyIHsmI3hhOyAgZmlsbDogIzE2MTkxZjsmI3hhO30mI3hhOyYjeGE7LnNlbGVjdGVkLm5vZGUgJmd0OyAubmV3LWxvb2stc3RhdGUtbm9kZSAmZ3Q7IHJlY3QsJiN4YTsuc2VsZWN0ZWQubm9kZSAmZ3Q7IC5uZXctbG9vay1zdGF0ZS1ub2RlICZndDsgLm5ldy1sb29rLXN0YXRlLW5vZGUgJmd0OyByZWN0LCYjeGE7LnNlbGVjdGVkLm5vZGUgJmd0OyAubmV3LWxvb2stc3RhdGUtbm9kZSAmZ3Q7IC5ib3VuZGluZy1ib3ggJmd0OyByZWN0LCYjeGE7LnNlbGVjdGVkLm5vZGUgJmd0OyAubmV3LWxvb2stc3RhdGUtbm9kZS5oYXMtZXJyb3JzICZndDsgcmVjdCwmI3hhOy5zZWxlY3RlZC5ub2RlICZndDsgLm5ldy1sb29rLXN0YXRlLW5vZGUuaGFzLWVycm9ycyAmZ3Q7IC5ib3VuZGluZy1ib3ggJmd0OyByZWN0LCYjeGE7LnNlbGVjdGVkLm5vZGUgJmd0OyAubmV3LWxvb2stc3RhdGUtbm9kZS5oYXMtZXJyb3JzICZndDsgLm5ldy1sb29rLXN0YXRlLW5vZGUgJmd0OyByZWN0LCYjeGE7LnNlbGVjdGVkLm5vZGUgJmd0OyAubmV3LWxvb2stc3RhdGUtbm9kZSAmZ3Q7IC5ib3VuZGluZy1ib3ggJmd0OyAubmV3LWxvb2stc3RhdGUtbm9kZS1zdWIgJmd0OyByZWN0JiN4YTsgeyYjeGE7ICBzdHJva2U6IHZhcigtLWNvbG9yLWJvcmRlci1zdGF0dXMtaW5mby1nNGV3a2ssICMwMDczYmIpOyYjeGE7ICBmaWxsOiB2YXIoLS1jb2xvci1iYWNrZ3JvdW5kLXN0YXR1cy1pbmZvLTc5ZXF4NSwgI2YxZmFmZik7JiN4YTsgIHN0cm9rZS13aWR0aDogMXB4OyYjeGE7fSYjeGE7JiN4YTsubmV3LWxvb2stc3RhdGUtbm9kZS1zdWIgLml0ZW0tc291cmNlLm5vdC1zcGVjaWZpZWQgeyYjeGE7ICBoZWlnaHQ6IDE1cHg7JiN4YTsgIGNvbG9yOiAjNjg3MDc4OyYjeGE7ICBmb250LWZhbWlseTogIkFtYXpvbiBFbWJlciI7JiN4YTsgIGZvbnQtc2l6ZTogMTJweDsmI3hhOyAgbGV0dGVyLXNwYWNpbmc6IDA7JiN4YTsgIGxpbmUtaGVpZ2h0OiAxNnB4OyYjeGE7ICBmb250LXdlaWdodDogNDAwOyYjeGE7fSYjeGE7Lm5ldy1sb29rLXN0YXRlLW5vZGUtc3ViIC5pdGVtLXNvdXJjZSAuaXRlbS1zb3VyY2VfbmFtZXsmI3hhOyAgZm9udC13ZWlnaHQ6IDYwMDsmI3hhO30mI3hhOy5uZXctbG9vay1zdGF0ZS1ub2RlLXN1YiAuaXRlbS1zb3VyY2Uubm90LXNwZWNpZmllZCAuaXRlbS1zb3VyY2VfbmFtZXsmI3hhOyAgZm9udC13ZWlnaHQ6IDQwMDsmI3hhO30mI3hhOyYjeGE7Lm5ldy1sb29rLXN0YXRlLW5vZGUtc3ViIC5pdGVtLXNvdXJjZS5ub3Qtc3BlY2lmaWVkIHsmI3hhOyAgZm9udC1zdHlsZTogaXRhbGljOyYjeGE7fSYjeGE7JiN4YTsubmV3LWxvb2stc3RhdGUtbm9kZS1zdWIgJmd0OyByZWN0LCYjeGE7Lm5ldy1sb29rLXN0YXRlLW5vZGUgJmd0OyAuYm91bmRpbmctYm94ICZndDsgcmVjdCB7JiN4YTsgIHN0cm9rZTogdmFyKC0tY29sb3ItYm9yZGVyLWNvbnRyb2wtZGVmYXVsdC05NTU4Y3osICM2ODcwNzgpOyYjeGE7ICBmaWxsOiAjZmZmZmZmOyYjeGE7fSYjeGE7JiN4YTsubmV3LWxvb2stZ3JhcGggLmRyYWctc291cmNlIHsmI3hhOyAgb3BhY2l0eTogMC4yOyYjeGE7fSYjeGE7JiN4YTsubmV3LWxvb2stZ3JhcGggLmVkZ2UsIC5uZXctbG9vay1ncmFwaCBwYXRoLnN0YXJ0aW5nLWNvbm5lY3Rpb24geyYjeGE7ICBzdHJva2Utd2lkdGg6IDFweDsmI3hhOyAgc3Ryb2tlOiB2YXIoLS1jb2xvci10ZXh0LWZvcm0tc2Vjb25kYXJ5LXNtd3I3YSwgIzY4NzA3OCk7JiN4YTsgIG1hcmtlci1lbmQ6IHVybCgjbGFyZ2UtYXJyb3doZWFkKTsmI3hhO30mI3hhOyYjeGE7Lm5ldy1sb29rLWdyYXBoIC5lZGdlLWxhYmVsIHsmI3hhOyAgY3Vyc29yOiBwb2ludGVyOyYjeGE7fSYjeGE7JiN4YTsubmV3LWxvb2stZ3JhcGggLmVkZ2UtbGFiZWwgcmVjdCB7JiN4YTsgIHN0cm9rZS13aWR0aDogMXB4OyYjeGE7ICBzdHJva2U6IHZhcigtLWNvbG9yLWJvcmRlci1jb250cm9sLWRlZmF1bHQtOTU1OGN6LCAjNjg3MDc4KTsmI3hhOyAgZmlsbDogI2ZhZmFmYTsmI3hhO30mI3hhOyYjeGE7Lm5ldy1sb29rLWdyYXBoIC5lZGdlLWxhYmVsLnNlbGVjdGVkIHJlY3QgeyYjeGE7ICBzdHJva2U6IHZhcigtLWNvbG9yLWJvcmRlci1zdGF0dXMtaW5mby1nNGV3a2ssICMwMDczYmIpOyYjeGE7ICBmaWxsOiB2YXIoLS1jb2xvci1iYWNrZ3JvdW5kLXN0YXR1cy1pbmZvLTc5ZXF4NSwgI2YxZmFmZik7JiN4YTsgIHN0cm9rZS13aWR0aDogMC42cHg7JiN4YTt9JiN4YTsmI3hhOyYjeGE7JiN4YTsubmV3LWxvb2stZ3JhcGggLmVkZ2UtbGFiZWwgLmxhYmVsIHsmI3hhOyAgZmlsbDogdmFyKC0tY29sb3ItdGV4dC1mb3JtLXNlY29uZGFyeS1zbXdyN2EsICM2ODcwNzgpOyYjeGE7ICBmb250LWZhbWlseTogQW1hem9uIEVtYmVyLCBBcmlhbCwgUm9ib3RvLCBBcmlhbCwgc2Fucy1zZXJpZjsmI3hhO30mI3hhOyYjeGE7LyogY2VudGVyaW5nIHRoZSBzaGFwZSB0ZXh0ICovJiN4YTtALW1vei1kb2N1bWVudCB1cmwtcHJlZml4KCkgeyYjeGE7ICAubmV3LWxvb2stZ3JhcGggLnNoYXBlICsgdGV4dCwmI3hhOyAgLm5ldy1sb29rLWdyYXBoIC5lZGdlLWxhYmVsIHRleHQgeyYjeGE7ICAgIHRyYW5zZm9ybTogdHJhbnNsYXRlWSgzLjVweCk7JiN4YTsgIH0mI3hhO30mI3hhOyYjeGE7Lm5ldy1sb29rLWdyYXBoIC5lZGdlIHBhdGggeyYjeGE7ICBtYXJrZXItZW5kOiB1cmwoI2xhcmdlLWFycm93aGVhZCkgIWltcG9ydGFudDsmI3hhO30mI3hhOyYjeGE7Lm5ldy1sb29rLWdyYXBoIC5lZGdlLnNlbGVjdGVkIHBhdGh7JiN4YTsgIHN0cm9rZTogdmFyKC0tY29sb3ItYm9yZGVyLXN0YXR1cy1pbmZvLWc0ZXdraywgIzAwNzNiYik7JiN4YTsgIHN0cm9rZS13aWR0aDogMS4xcHg7JiN4YTt9JiN4YTsmI3hhOy5uZXctbG9vay1ncmFwaCAuZWRnZS5kcmFnZ2luZy1vdmVyIHBhdGgsIC5uZXctbG9vay1ncmFwaCAgZy5kcmFnZ2luZy1vdmVyIC5zdGFydGluZy1jb25uZWN0aW9uIHsmI3hhOyAgc3Ryb2tlOiAjNUM4NkZGOyYjeGE7ICBzdHJva2Utd2lkdGg6IDJweDsmI3hhO30mI3hhOyYjeGE7Lm5ldy1sb29rLWdyYXBoIC5lZGdlLmRyYWdnaW5nLW92ZXIgcGF0aCwgLm5ldy1sb29rLWdyYXBoIC5kcmFnZ2luZy1vdmVyIHBhdGguc3RhcnRpbmctY29ubmVjdGlvbiB7JiN4YTsgIG1hcmtlci1lbmQ6IHVybCgjbGFyZ2UtaGlnaGxpZ2h0ZWQtYXJyb3doZWFkKSAhaW1wb3J0YW50OyYjeGE7fSYjeGE7JiN4YTsubmV3LWxvb2stZ3JhcGggLmVkZ2UuZHJhZ2dpbmctb3ZlciAuZWRnZS1sYWJlbCB0ZXh0IHsmI3hhOyAgZmlsbDogIzVDODZGRjsmI3hhO30mI3hhOyYjeGE7I2xhcmdlLWhpZ2hsaWdodGVkLWFycm93aGVhZCB7JiN4YTsgIGZpbGw6ICM1Qzg2RkY7JiN4YTt9JiN4YTsmI3hhOyNsYXJnZS1oaWdobGlnaHRlZC1hcnJvd2hlYWQgcGF0aCB7JiN4YTsgIHN0cm9rZTogbm9uZTsmI3hhO30mI3hhOyYjeGE7Lm5ldy1sb29rLWdyYXBoIC5lZGdlLmRyb3Atbm90LXN1cHBvcnRlZCBwYXRoLCBnLmRyb3Atbm90LXN1cHBvcnRlZCAuc3RhcnRpbmctY29ubmVjdGlvbiB7JiN4YTsgIHN0cm9rZTogcmVkOyYjeGE7fSYjeGE7JiN4YTsubmV3LWxvb2stZ3JhcGggLmVkZ2UuZHJvcC1ub3Qtc3VwcG9ydGVkIC5lZGdlLWxhYmVsIHRleHQgeyYjeGE7ICBmaWxsOiByZWQ7JiN4YTt9JiN4YTsmI3hhOy5uZXctbG9vay1ncmFwaCAuZWRnZS5kcm9wLW5vdC1zdXBwb3J0ZWQgcGF0aCB7JiN4YTsgIG1hcmtlci1lbmQ6IHVybCgjbGFyZ2UtZXJyb3ItYXJyb3doZWFkKSAhaW1wb3J0YW50OyYjeGE7fSYjeGE7JiN4YTsjbGFyZ2UtZXJyb3ItYXJyb3doZWFkIHsmI3hhOyAgZmlsbDogcmVkOyYjeGE7fSYjeGE7JiN4YTsubm9kZS1jb250YWluZXIgKiAmZ3Q7IC5pY29uICB7JiN4YTsgICZndDsgcmVjdCB7JiN4YTsgICAgZmlsbDogI2ZhZmFmYTsmI3hhOyAgfSYjeGE7ICAmZ3Q7IGxpbmUgeyYjeGE7ICAgIHN0cm9rZTogI2Q1ZGJkYjsmI3hhOyAgfSYjeGE7fSYjeGE7JiN4YTsmI3hhOy5ub2RlLlBsYWNlaG9sZGVyLmRyYWdnaW5nLW92ZXIgcmVjdCB7JiN4YTsgIHN0cm9rZTogdmFyKC0tY29sb3ItYm9yZGVyLXN0YXR1cy1pbmZvLWc0ZXdraywgIzAwNzNiYik7JiN4YTsgIGZpbGw6IHZhcigtLWNvbG9yLWJhY2tncm91bmQtc3RhdHVzLWluZm8tNzllcXg1LCAjZjFmYWZmKTsmI3hhOyAgc3Ryb2tlLXdpZHRoOiAycHg7JiN4YTt9JiN4YTsmI3hhOy5ub2RlLlBsYWNlaG9sZGVyLmRyYWdnaW5nLW92ZXIgLmxhYmVsIHsmI3hhOyAgZmlsbDogdmFyKC0tY29sb3ItdGV4dC1zdGF0dXMtaW5mby03ODcxeGosICMwMDczYmIpOyYjeGE7fSYjeGE7JiN4YTtnLlBsYWNlaG9sZGVyIHJlY3QgeyYjeGE7ICBzdHJva2UtZGFzaGFycmF5OiA1IDQ7JiN4YTsgIHN0cm9rZTogdmFyKC0tY29sb3ItYm9yZGVyLWRyb3Bkb3duLWl0ZW0taG92ZXItMzhncXpjLCAjODc5NTk2KTsmI3hhOyAgZmlsbDogI2ZmZmZmZjsmI3hhOyAgc3Ryb2tlLXdpZHRoOiAxcHg7JiN4YTt9JiN4YTsmI3hhO2cuUGxhY2Vob2xkZXIgLmxhYmVsIHsmI3hhOyAgZm9udC1zdHlsZTogaXRhbGljOyYjeGE7ICBmaWxsOiB2YXIoLS1jb2xvci10ZXh0LWlucHV0LXBsYWNlaG9sZGVyLXpkM3B1MSwgIzY4NzA3OCk7JiN4YTt9JiN4YTsmI3hhOy5ub2RlLlBsYWNlaG9sZGVyLmRyb3Atbm90LXN1cHBvcnRlZCByZWN0IHsmI3hhOyAgc3Ryb2tlOiByZWQ7JiN4YTt9JiN4YTsmI3hhOy5ub2RlLlBsYWNlaG9sZGVyLmRyb3Atbm90LXN1cHBvcnRlZCAubGFiZWwgeyYjeGE7ICBmaWxsOiByZWQ7JiN4YTt9JiN4YTs8L3N0eWxlPiYjeGE7PHN0eWxlPi5saW5lMiB7IGZvbnQtc2l6ZTogMTRweCB9PC9zdHlsZT4mI3hhOzwvc3ZnPg==;" vertex="1" parent="1">
          <mxGeometry x="80" y="80" width="680" height="800" as="geometry" />
        </mxCell>
        <mxCell id="4woJFJt0WEGziL0BjA8s-3" value="1" style="ellipse;whiteSpace=wrap;html=1;aspect=fixed;fillColor=#f5f5f5;fontColor=#333333;strokeColor=#666666;" vertex="1" parent="1">
          <mxGeometry x="630" y="165" width="20" height="20" as="geometry" />
        </mxCell>
        <mxCell id="4woJFJt0WEGziL0BjA8s-4" value="2" style="ellipse;whiteSpace=wrap;html=1;aspect=fixed;fillColor=#f5f5f5;fontColor=#333333;strokeColor=#666666;" vertex="1" parent="1">
          <mxGeometry x="608" y="255" width="20" height="20" as="geometry" />
        </mxCell>
        <mxCell id="4woJFJt0WEGziL0BjA8s-5" value="3" style="ellipse;whiteSpace=wrap;html=1;aspect=fixed;fillColor=#f5f5f5;fontColor=#333333;strokeColor=#666666;" vertex="1" parent="1">
          <mxGeometry x="578" y="344" width="20" height="20" as="geometry" />
        </mxCell>
        <mxCell id="4woJFJt0WEGziL0BjA8s-6" value="4" style="ellipse;whiteSpace=wrap;html=1;aspect=fixed;fillColor=#f5f5f5;fontColor=#333333;strokeColor=#666666;" vertex="1" parent="1">
          <mxGeometry x="490" y="460" width="20" height="20" as="geometry" />
        </mxCell>
        <mxCell id="4woJFJt0WEGziL0BjA8s-7" value="5" style="ellipse;whiteSpace=wrap;html=1;aspect=fixed;fillColor=#f5f5f5;fontColor=#333333;strokeColor=#666666;" vertex="1" parent="1">
          <mxGeometry x="580" y="550" width="20" height="20" as="geometry" />
        </mxCell>
        <mxCell id="4woJFJt0WEGziL0BjA8s-8" value="6" style="ellipse;whiteSpace=wrap;html=1;aspect=fixed;fillColor=#f5f5f5;fontColor=#333333;strokeColor=#666666;" vertex="1" parent="1">
          <mxGeometry x="484" y="666" width="20" height="20" as="geometry" />
        </mxCell>
      </root>
    </mxGraphModel>
  </diagram>
  <diagram name="3-transformation" id="hRV859Uxu_Mo0NJQYloF">
    <mxGraphModel dx="1285" dy="972" grid="1" gridSize="10" guides="1" tooltips="1" connect="1" arrows="1" fold="1" page="1" pageScale="1" pageWidth="850" pageHeight="1100" math="0" shadow="0">
      <root>
        <mxCell id="0" />
        <mxCell id="1" parent="0" />
        <mxCell id="jl1iMjbU4TVQH6fjh3ZI-18" style="edgeStyle=orthogonalEdgeStyle;rounded=0;orthogonalLoop=1;jettySize=auto;html=1;exitX=1;exitY=0.5;exitDx=0;exitDy=0;entryX=0;entryY=0.5;entryDx=0;entryDy=0;strokeWidth=2;" edge="1" parent="1" source="AO6FHdo3QItn0qnjrF7G-6" target="jl1iMjbU4TVQH6fjh3ZI-8">
          <mxGeometry relative="1" as="geometry" />
        </mxCell>
        <mxCell id="AO6FHdo3QItn0qnjrF7G-6" value="Exported Data Files" style="rounded=0;whiteSpace=wrap;html=1;fillColor=none;strokeWidth=2;verticalAlign=top;" vertex="1" parent="1">
          <mxGeometry x="80" y="320" width="200" height="200" as="geometry" />
        </mxCell>
        <mxCell id="AO6FHdo3QItn0qnjrF7G-2" value="" style="shape=image;verticalLabelPosition=bottom;labelBackgroundColor=default;verticalAlign=top;aspect=fixed;imageAspect=0;image=data:image/png,iVBORw0KGgoAAAANSUhEUgAAAQAAAAEACAMAAABrrFhUAAABcVBMVEUAAAAAAAAAAAAAAAAAAAAAAAAAAAAAAAAAAAAAAAAAAAAAAAAAAAAAAAAAAAAAAAAAAAAAAAAAAAAAAAAAAAAAAAAAAAAAAAAAAAAAAAAAAAAAAAAAAAAAAAAAAAAAAAAAAAAAAAAAAAAAAAAAAAAAAAAAAAAAAAAAAAAAAAAAAAAAAAAAAAAAAAAAAAAAAAAAAAAAAAAAAAAAAAAAAAAAAAAAAAD///8pKSnW1tZmZmbCwsKZmZm7u7v8/PwFBQUJCQnc3NwiIiINDQ3x8fE6Ojr5+fn19fXl5eUzMzOIiIj+/v7Q0NDGxsZISEhAQEAwMDAsLCwmJibh4eGpqamGhoZ8fHx3d3c9PT0bGxutra2fn59ycnJOTk4YGBgVFRXq6urKysqTk5ONjY1cXFxXV1c1NTXs7Oy/v7+3t7dgYGATExPe3t7Y2NjV1dWzs7Obm5t4eHhsbGxkZGRDQ0OysrKjo6OWlpZ2dna6urrBwcGMHUAbAAAANnRSTlMARIj18fg3SwU+CXFm/elVQarel/vM45BQSBTuOzPTK8N8IxkODNe0dy+7rsedgb6gpmpeWWOwFOIRAAAJP0lEQVR42uzb23aiMBiG4c8yKtpKW0Dc17qv29Ha/vd/aVNN0OXQmZK4lvjHPGccie8CTIKBZVmWZVmWZVmWZVlWOu1a1aPLWzzhKkx/U0bCEq7Ah0OZ+VVA5h4rlJ6BBaZ5ylQr6wIzUmTYNdCmzGVboEbZy7RAlYSXgotLupoCHgkFXNbVXAMVElxc1tXcBSThwugvTgkpGRogfQHDAoTKd4FhAYp51WvAsABQLmBagJMCT/iZcQFUC5gXQLGAgQHUCpgYQKmAkQFUCpgZQKGAoQHSFzA1QOoCxgZIW8DcACkLGBwgXQGTA6QqYHSANAXMDnBSIIfvGB7g5wKGBfjO/++CWwpATgcJNxWAXpFwWwEICYYEiG49wObWA/S9Gw+A/nPrtgNcy3mpf9AgV28PoKzc70yH/AOM7n3amTWhZLQOiSisfrq8A3R8kjZQEpA07nIOUMhTLIKSMcWcKd8Aw4gOHChp0YE/YhtgRUdVKFnQUY9tAI8OKnX9PyR7XANMKfayLEFRcR5RrMM0QJ2EaAotJY+ED6YBPkn4hKYtCe9MAzyQMIWmPgn3zAP0ocmtmBFgAF2OGQFG0PXLiAAVaGsZEcCBNs+IAB60RUYE8KFtzDvAmxwHn70/Z8U0QEB7M2ib0N6SaQA5pV1Dm0xY5RlgEMYXsLYe7YUDlgECEp7O36VZ4xjgTQ7kWy60uS05lnpnF2C4IamHM/RICsq8ArSjkyVNbaOIpHGHU4BunqRWF1qSC+tOn1GAgKSogDPVHZKWjAL8JsFv4mxTj4RXRgHmJG2GONNoSdKMUYA6xRYjnGVUpdgDowC4D0ma4CwzitU4/QoAhTFJdZxhS5JX5DUOAMoTEl6gz41IWDS5jQQBt/rNqniz/vilA8HN7Y5yLoTp7qje/GYu4A/ZDYW/lJLvdZqna1yTk8fEO+1Fw+Tr5TrHyRAQJZ5eRRIWJ+89Ku7J4CGHg+d4PsUzgDz9efLnsYqdMkll7LyS0EgsqUx4LoigJr+tfgCP95JYT87j9APImdAd0wDyqebrB5APiTemAZIvRvrhyTXtnxQKaC/sI+aa8Xrcw1Fx/fxlNcReN9gdBV3sDVe7o3UDB2XzAqRhA9gAhgXIQ1fTjADUgaYG8wBbEuYu9ExIeGAaoE2Sv94Oocht3L2Q1GAaoOzQwbgJJYMxHeSbTANgQ0d3UBLQ0TPXP0ujG2rvafXpoFJiGwBv2vsFPDqo8d0xAqwqJAW6y+FLl3MAlGYh7YwHUNJ2aM//4L1r7Mtg26v1HstQ1O+t50GvxH7f4L/wPS8bwAawAWyAP+zdMQrAIAxA0YAdXDopuCVHcMv9j9ahU1eltAn/n0AfgYwBAAAAAJCfBQAAAADwyrtsaPGgFR0me9V2euh6q1v/nx6+uSPQPEFDlrPg83/XLfRluU9HQD1FKquF3X/PDlnNkwQAAAAAAAAAAAAAAAAAAHCxX/9NacNwHMef1efDdLaltNAKKL90CAgyGCq6qXNzbo9+1/smt6Tp9tfu1tzt9V97PY68m+aS/wH+SYBwlOejJf5gOcrjO/xV/yjAxZHYQEvffwpYyGaXISrETzcJC1e3ny9geTwSJzAsnJt1CtCgOITY9WnItihLb2kIJgMY3lBkLfzyluIA0Oob4LlN220LprsXlnS/tdwAfPQ0wLbLsr5ZYJfR1Wy4AbpfvAwQd+h6C2gnHVa53jkBeB/5GGDOCt0USp6w2lXsBOB7DwNEHSqTYRQft/UFRGvM3+mFToAg9S/A1B7PE0Un0gPR2rPn6eB0cdSldu4E4JvIuwBbKhsUwoQilycDKrMYIu9T6dw5AXjmXYDn0vd7cCyGKLxYb1uEc+umHSDIfQvwgcrVCo5Wm+IWhrBHce8GYC/0LMCQ2scBLEadYATTlMrADcBzzwJgbGxxT0JYHp0JINYUrxUB2g3PAixoGJ+Nqgb6DNsTxYsZYELRD/0KEK5p6e9DaAlFA7ZTirUZYNCjWPgVAKsmbdlCJwgoItiGFPdmgEauHu/EfgXAasaS9QiFkKKNkpji2gqAM4obzwIAl313o+/OAPcHxnaA8JMetm8BgHSe0NRsmWvACLYpRc8OgJ0qllx4FwCItjfd8p52TbGH7ZViUgqAY4oHDwMAiM8SatehcVR+gK1PcV4OEOmLrGYB8ndi6ASw3X2ndgpgTxHEMKVU0nIApAFFzQIcULy6AWzRRyqfix5tiq+VZ4EMTgBs6hlgT/HNWsN+ABg0FbXQnVN5BwAzKouq0+CxHUAVrGWAlCKLzN3vDYCV8cYLT9Zf31GbLyGGh1TaFxUBMA3qGCDsUDwsgTwz58NYt1mhcEjlC6wpwM7jZWM53M8CahtUBcCmjgEwoRKME2pba86/OQVWcypJhMLyir/TjKoDRM06BvjJ3p20NAyEYRwfSVwRBPFiVdSTBc8+o1jqEtsqSlKXij0URa16cAHRg99eMOMyTKy105F36vu/9tLnR5tDApnqrjS6jt4mfoJUts0bvElZZrdVRTYAkiJBABxJo2O8dSkzuj6FqpktUIlhAqjOKQJEG8bjnzWk1aRRMcZH8ZY0Oyvhe4DoliAAllek1l0d7z1WpF6liS9t3hj7H+poAYCnXYIAiApF+dlz9HXis3aJWN2HXnNP/+00gJYAKFAEADbP1f+g/JJA76B2r3gOCyWYlS7U5+W92g7wE0B0SBIAQP0kbjZK68gounpqxCd1fNd6NWkk+2v4daQAyMYADMAADMAADMAADMAADMAADMAADMAADMAADNBmU+iJQosTT3uiRdFpAxPogcJZ0XGD/fC+YFiIbgpQf6Gi3X6zyX6/AdR+KwGfAdR+SwF/AdR+awFfAcIB0ZX6Aj8BtP1WDQc+Amj7rQX8A9D32wv4BmDstxbwC8DYb9106BOA2t9lAX8A1P6uC/gC4GC/EvADQO130MyUDwCO9isB+gDO9isB6gDu9isB6gAzIjv6R1n48r0YgAH+OUCAtBFBqhGkBcJ140gbE6QaQ9q4cN0C0sJ8H6HyIdIWhOtGQbol4bpcCMKFOeG8eRAuL9qrV0+fmhsSf1Dutb07NgEAhAEgGO0dQAsRVBDSBvcfzRWsQoq/RS7svtObuFh6Q9ItXuoIl3CVkcTTtJMDOTYFAAAAAAB8erzdYkAv8hbtAAAAAElFTkSuQmCC;" vertex="1" parent="1">
          <mxGeometry x="100" y="340" width="40" height="40" as="geometry" />
        </mxCell>
        <mxCell id="AO6FHdo3QItn0qnjrF7G-3" value="" style="shape=image;verticalLabelPosition=bottom;labelBackgroundColor=default;verticalAlign=top;aspect=fixed;imageAspect=0;image=data:image/png,iVBORw0KGgoAAAANSUhEUgAAAQAAAAEACAMAAABrrFhUAAABcVBMVEUAAAAAAAAAAAAAAAAAAAAAAAAAAAAAAAAAAAAAAAAAAAAAAAAAAAAAAAAAAAAAAAAAAAAAAAAAAAAAAAAAAAAAAAAAAAAAAAAAAAAAAAAAAAAAAAAAAAAAAAAAAAAAAAAAAAAAAAAAAAAAAAAAAAAAAAAAAAAAAAAAAAAAAAAAAAAAAAAAAAAAAAAAAAAAAAAAAAAAAAAAAAAAAAAAAAAAAAAAAAD///8pKSnW1tZmZmbCwsKZmZm7u7v8/PwFBQUJCQnc3NwiIiINDQ3x8fE6Ojr5+fn19fXl5eUzMzOIiIj+/v7Q0NDGxsZISEhAQEAwMDAsLCwmJibh4eGpqamGhoZ8fHx3d3c9PT0bGxutra2fn59ycnJOTk4YGBgVFRXq6urKysqTk5ONjY1cXFxXV1c1NTXs7Oy/v7+3t7dgYGATExPe3t7Y2NjV1dWzs7Obm5t4eHhsbGxkZGRDQ0OysrKjo6OWlpZ2dna6urrBwcGMHUAbAAAANnRSTlMARIj18fg3SwU+CXFm/elVQarel/vM45BQSBTuOzPTK8N8IxkODNe0dy+7rsedgb6gpmpeWWOwFOIRAAAJP0lEQVR42uzb23aiMBiG4c8yKtpKW0Dc17qv29Ha/vd/aVNN0OXQmZK4lvjHPGccie8CTIKBZVmWZVmWZVmWZVlWOu1a1aPLWzzhKkx/U0bCEq7Ah0OZ+VVA5h4rlJ6BBaZ5ylQr6wIzUmTYNdCmzGVboEbZy7RAlYSXgotLupoCHgkFXNbVXAMVElxc1tXcBSThwugvTgkpGRogfQHDAoTKd4FhAYp51WvAsABQLmBagJMCT/iZcQFUC5gXQLGAgQHUCpgYQKmAkQFUCpgZQKGAoQHSFzA1QOoCxgZIW8DcACkLGBwgXQGTA6QqYHSANAXMDnBSIIfvGB7g5wKGBfjO/++CWwpATgcJNxWAXpFwWwEICYYEiG49wObWA/S9Gw+A/nPrtgNcy3mpf9AgV28PoKzc70yH/AOM7n3amTWhZLQOiSisfrq8A3R8kjZQEpA07nIOUMhTLIKSMcWcKd8Aw4gOHChp0YE/YhtgRUdVKFnQUY9tAI8OKnX9PyR7XANMKfayLEFRcR5RrMM0QJ2EaAotJY+ED6YBPkn4hKYtCe9MAzyQMIWmPgn3zAP0ocmtmBFgAF2OGQFG0PXLiAAVaGsZEcCBNs+IAB60RUYE8KFtzDvAmxwHn70/Z8U0QEB7M2ib0N6SaQA5pV1Dm0xY5RlgEMYXsLYe7YUDlgECEp7O36VZ4xjgTQ7kWy60uS05lnpnF2C4IamHM/RICsq8ArSjkyVNbaOIpHGHU4BunqRWF1qSC+tOn1GAgKSogDPVHZKWjAL8JsFv4mxTj4RXRgHmJG2GONNoSdKMUYA6xRYjnGVUpdgDowC4D0ma4CwzitU4/QoAhTFJdZxhS5JX5DUOAMoTEl6gz41IWDS5jQQBt/rNqniz/vilA8HN7Y5yLoTp7qje/GYu4A/ZDYW/lJLvdZqna1yTk8fEO+1Fw+Tr5TrHyRAQJZ5eRRIWJ+89Ku7J4CGHg+d4PsUzgDz9efLnsYqdMkll7LyS0EgsqUx4LoigJr+tfgCP95JYT87j9APImdAd0wDyqebrB5APiTemAZIvRvrhyTXtnxQKaC/sI+aa8Xrcw1Fx/fxlNcReN9gdBV3sDVe7o3UDB2XzAqRhA9gAhgXIQ1fTjADUgaYG8wBbEuYu9ExIeGAaoE2Sv94Oocht3L2Q1GAaoOzQwbgJJYMxHeSbTANgQ0d3UBLQ0TPXP0ujG2rvafXpoFJiGwBv2vsFPDqo8d0xAqwqJAW6y+FLl3MAlGYh7YwHUNJ2aM//4L1r7Mtg26v1HstQ1O+t50GvxH7f4L/wPS8bwAawAWyAP+zdMQrAIAxA0YAdXDopuCVHcMv9j9ahU1eltAn/n0AfgYwBAAAAAJCfBQAAAADwyrtsaPGgFR0me9V2euh6q1v/nx6+uSPQPEFDlrPg83/XLfRluU9HQD1FKquF3X/PDlnNkwQAAAAAAAAAAAAAAAAAAHCxX/9NacNwHMef1efDdLaltNAKKL90CAgyGCq6qXNzbo9+1/smt6Tp9tfu1tzt9V97PY68m+aS/wH+SYBwlOejJf5gOcrjO/xV/yjAxZHYQEvffwpYyGaXISrETzcJC1e3ny9geTwSJzAsnJt1CtCgOITY9WnItihLb2kIJgMY3lBkLfzyluIA0Oob4LlN220LprsXlnS/tdwAfPQ0wLbLsr5ZYJfR1Wy4AbpfvAwQd+h6C2gnHVa53jkBeB/5GGDOCt0USp6w2lXsBOB7DwNEHSqTYRQft/UFRGvM3+mFToAg9S/A1B7PE0Un0gPR2rPn6eB0cdSldu4E4JvIuwBbKhsUwoQilycDKrMYIu9T6dw5AXjmXYDn0vd7cCyGKLxYb1uEc+umHSDIfQvwgcrVCo5Wm+IWhrBHce8GYC/0LMCQ2scBLEadYATTlMrADcBzzwJgbGxxT0JYHp0JINYUrxUB2g3PAixoGJ+Nqgb6DNsTxYsZYELRD/0KEK5p6e9DaAlFA7ZTirUZYNCjWPgVAKsmbdlCJwgoItiGFPdmgEauHu/EfgXAasaS9QiFkKKNkpji2gqAM4obzwIAl313o+/OAPcHxnaA8JMetm8BgHSe0NRsmWvACLYpRc8OgJ0qllx4FwCItjfd8p52TbGH7ZViUgqAY4oHDwMAiM8SatehcVR+gK1PcV4OEOmLrGYB8ndi6ASw3X2ndgpgTxHEMKVU0nIApAFFzQIcULy6AWzRRyqfix5tiq+VZ4EMTgBs6hlgT/HNWsN+ABg0FbXQnVN5BwAzKouq0+CxHUAVrGWAlCKLzN3vDYCV8cYLT9Zf31GbLyGGh1TaFxUBMA3qGCDsUDwsgTwz58NYt1mhcEjlC6wpwM7jZWM53M8CahtUBcCmjgEwoRKME2pba86/OQVWcypJhMLyir/TjKoDRM06BvjJ3p20NAyEYRwfSVwRBPFiVdSTBc8+o1jqEtsqSlKXij0URa16cAHRg99eMOMyTKy105F36vu/9tLnR5tDApnqrjS6jt4mfoJUts0bvElZZrdVRTYAkiJBABxJo2O8dSkzuj6FqpktUIlhAqjOKQJEG8bjnzWk1aRRMcZH8ZY0Oyvhe4DoliAAllek1l0d7z1WpF6liS9t3hj7H+poAYCnXYIAiApF+dlz9HXis3aJWN2HXnNP/+00gJYAKFAEADbP1f+g/JJA76B2r3gOCyWYlS7U5+W92g7wE0B0SBIAQP0kbjZK68gounpqxCd1fNd6NWkk+2v4daQAyMYADMAADMAADMAADMAADMAADMAADMAADMAADNBmU+iJQosTT3uiRdFpAxPogcJZ0XGD/fC+YFiIbgpQf6Gi3X6zyX6/AdR+KwGfAdR+SwF/AdR+awFfAcIB0ZX6Aj8BtP1WDQc+Amj7rQX8A9D32wv4BmDstxbwC8DYb9106BOA2t9lAX8A1P6uC/gC4GC/EvADQO130MyUDwCO9isB+gDO9isB6gDu9isB6gAzIjv6R1n48r0YgAH+OUCAtBFBqhGkBcJ140gbE6QaQ9q4cN0C0sJ8H6HyIdIWhOtGQbol4bpcCMKFOeG8eRAuL9qrV0+fmhsSf1Dutb07NgEAhAEgGO0dQAsRVBDSBvcfzRWsQoq/RS7svtObuFh6Q9ItXuoIl3CVkcTTtJMDOTYFAAAAAAB8erzdYkAv8hbtAAAAAElFTkSuQmCC;" vertex="1" parent="1">
          <mxGeometry x="220" y="340" width="40" height="40" as="geometry" />
        </mxCell>
        <mxCell id="AO6FHdo3QItn0qnjrF7G-17" value="" style="shape=image;verticalLabelPosition=bottom;labelBackgroundColor=default;verticalAlign=top;aspect=fixed;imageAspect=0;image=data:image/png,iVBORw0KGgoAAAANSUhEUgAAAQAAAAEACAMAAABrrFhUAAABcVBMVEUAAAAAAAAAAAAAAAAAAAAAAAAAAAAAAAAAAAAAAAAAAAAAAAAAAAAAAAAAAAAAAAAAAAAAAAAAAAAAAAAAAAAAAAAAAAAAAAAAAAAAAAAAAAAAAAAAAAAAAAAAAAAAAAAAAAAAAAAAAAAAAAAAAAAAAAAAAAAAAAAAAAAAAAAAAAAAAAAAAAAAAAAAAAAAAAAAAAAAAAAAAAAAAAAAAAAAAAAAAAD///8pKSnW1tZmZmbCwsKZmZm7u7v8/PwFBQUJCQnc3NwiIiINDQ3x8fE6Ojr5+fn19fXl5eUzMzOIiIj+/v7Q0NDGxsZISEhAQEAwMDAsLCwmJibh4eGpqamGhoZ8fHx3d3c9PT0bGxutra2fn59ycnJOTk4YGBgVFRXq6urKysqTk5ONjY1cXFxXV1c1NTXs7Oy/v7+3t7dgYGATExPe3t7Y2NjV1dWzs7Obm5t4eHhsbGxkZGRDQ0OysrKjo6OWlpZ2dna6urrBwcGMHUAbAAAANnRSTlMARIj18fg3SwU+CXFm/elVQarel/vM45BQSBTuOzPTK8N8IxkODNe0dy+7rsedgb6gpmpeWWOwFOIRAAAJP0lEQVR42uzb23aiMBiG4c8yKtpKW0Dc17qv29Ha/vd/aVNN0OXQmZK4lvjHPGccie8CTIKBZVmWZVmWZVmWZVlWOu1a1aPLWzzhKkx/U0bCEq7Ah0OZ+VVA5h4rlJ6BBaZ5ylQr6wIzUmTYNdCmzGVboEbZy7RAlYSXgotLupoCHgkFXNbVXAMVElxc1tXcBSThwugvTgkpGRogfQHDAoTKd4FhAYp51WvAsABQLmBagJMCT/iZcQFUC5gXQLGAgQHUCpgYQKmAkQFUCpgZQKGAoQHSFzA1QOoCxgZIW8DcACkLGBwgXQGTA6QqYHSANAXMDnBSIIfvGB7g5wKGBfjO/++CWwpATgcJNxWAXpFwWwEICYYEiG49wObWA/S9Gw+A/nPrtgNcy3mpf9AgV28PoKzc70yH/AOM7n3amTWhZLQOiSisfrq8A3R8kjZQEpA07nIOUMhTLIKSMcWcKd8Aw4gOHChp0YE/YhtgRUdVKFnQUY9tAI8OKnX9PyR7XANMKfayLEFRcR5RrMM0QJ2EaAotJY+ED6YBPkn4hKYtCe9MAzyQMIWmPgn3zAP0ocmtmBFgAF2OGQFG0PXLiAAVaGsZEcCBNs+IAB60RUYE8KFtzDvAmxwHn70/Z8U0QEB7M2ib0N6SaQA5pV1Dm0xY5RlgEMYXsLYe7YUDlgECEp7O36VZ4xjgTQ7kWy60uS05lnpnF2C4IamHM/RICsq8ArSjkyVNbaOIpHGHU4BunqRWF1qSC+tOn1GAgKSogDPVHZKWjAL8JsFv4mxTj4RXRgHmJG2GONNoSdKMUYA6xRYjnGVUpdgDowC4D0ma4CwzitU4/QoAhTFJdZxhS5JX5DUOAMoTEl6gz41IWDS5jQQBt/rNqniz/vilA8HN7Y5yLoTp7qje/GYu4A/ZDYW/lJLvdZqna1yTk8fEO+1Fw+Tr5TrHyRAQJZ5eRRIWJ+89Ku7J4CGHg+d4PsUzgDz9efLnsYqdMkll7LyS0EgsqUx4LoigJr+tfgCP95JYT87j9APImdAd0wDyqebrB5APiTemAZIvRvrhyTXtnxQKaC/sI+aa8Xrcw1Fx/fxlNcReN9gdBV3sDVe7o3UDB2XzAqRhA9gAhgXIQ1fTjADUgaYG8wBbEuYu9ExIeGAaoE2Sv94Oocht3L2Q1GAaoOzQwbgJJYMxHeSbTANgQ0d3UBLQ0TPXP0ujG2rvafXpoFJiGwBv2vsFPDqo8d0xAqwqJAW6y+FLl3MAlGYh7YwHUNJ2aM//4L1r7Mtg26v1HstQ1O+t50GvxH7f4L/wPS8bwAawAWyAP+zdMQrAIAxA0YAdXDopuCVHcMv9j9ahU1eltAn/n0AfgYwBAAAAAJCfBQAAAADwyrtsaPGgFR0me9V2euh6q1v/nx6+uSPQPEFDlrPg83/XLfRluU9HQD1FKquF3X/PDlnNkwQAAAAAAAAAAAAAAAAAAHCxX/9NacNwHMef1efDdLaltNAKKL90CAgyGCq6qXNzbo9+1/smt6Tp9tfu1tzt9V97PY68m+aS/wH+SYBwlOejJf5gOcrjO/xV/yjAxZHYQEvffwpYyGaXISrETzcJC1e3ny9geTwSJzAsnJt1CtCgOITY9WnItihLb2kIJgMY3lBkLfzyluIA0Oob4LlN220LprsXlnS/tdwAfPQ0wLbLsr5ZYJfR1Wy4AbpfvAwQd+h6C2gnHVa53jkBeB/5GGDOCt0USp6w2lXsBOB7DwNEHSqTYRQft/UFRGvM3+mFToAg9S/A1B7PE0Un0gPR2rPn6eB0cdSldu4E4JvIuwBbKhsUwoQilycDKrMYIu9T6dw5AXjmXYDn0vd7cCyGKLxYb1uEc+umHSDIfQvwgcrVCo5Wm+IWhrBHce8GYC/0LMCQ2scBLEadYATTlMrADcBzzwJgbGxxT0JYHp0JINYUrxUB2g3PAixoGJ+Nqgb6DNsTxYsZYELRD/0KEK5p6e9DaAlFA7ZTirUZYNCjWPgVAKsmbdlCJwgoItiGFPdmgEauHu/EfgXAasaS9QiFkKKNkpji2gqAM4obzwIAl313o+/OAPcHxnaA8JMetm8BgHSe0NRsmWvACLYpRc8OgJ0qllx4FwCItjfd8p52TbGH7ZViUgqAY4oHDwMAiM8SatehcVR+gK1PcV4OEOmLrGYB8ndi6ASw3X2ndgpgTxHEMKVU0nIApAFFzQIcULy6AWzRRyqfix5tiq+VZ4EMTgBs6hlgT/HNWsN+ABg0FbXQnVN5BwAzKouq0+CxHUAVrGWAlCKLzN3vDYCV8cYLT9Zf31GbLyGGh1TaFxUBMA3qGCDsUDwsgTwz58NYt1mhcEjlC6wpwM7jZWM53M8CahtUBcCmjgEwoRKME2pba86/OQVWcypJhMLyir/TjKoDRM06BvjJ3p20NAyEYRwfSVwRBPFiVdSTBc8+o1jqEtsqSlKXij0URa16cAHRg99eMOMyTKy105F36vu/9tLnR5tDApnqrjS6jt4mfoJUts0bvElZZrdVRTYAkiJBABxJo2O8dSkzuj6FqpktUIlhAqjOKQJEG8bjnzWk1aRRMcZH8ZY0Oyvhe4DoliAAllek1l0d7z1WpF6liS9t3hj7H+poAYCnXYIAiApF+dlz9HXis3aJWN2HXnNP/+00gJYAKFAEADbP1f+g/JJA76B2r3gOCyWYlS7U5+W92g7wE0B0SBIAQP0kbjZK68gounpqxCd1fNd6NWkk+2v4daQAyMYADMAADMAADMAADMAADMAADMAADMAADMAADNBmU+iJQosTT3uiRdFpAxPogcJZ0XGD/fC+YFiIbgpQf6Gi3X6zyX6/AdR+KwGfAdR+SwF/AdR+awFfAcIB0ZX6Aj8BtP1WDQc+Amj7rQX8A9D32wv4BmDstxbwC8DYb9106BOA2t9lAX8A1P6uC/gC4GC/EvADQO130MyUDwCO9isB+gDO9isB6gDu9isB6gAzIjv6R1n48r0YgAH+OUCAtBFBqhGkBcJ140gbE6QaQ9q4cN0C0sJ8H6HyIdIWhOtGQbol4bpcCMKFOeG8eRAuL9qrV0+fmhsSf1Dutb07NgEAhAEgGO0dQAsRVBDSBvcfzRWsQoq/RS7svtObuFh6Q9ItXuoIl3CVkcTTtJMDOTYFAAAAAAB8erzdYkAv8hbtAAAAAElFTkSuQmCC;" vertex="1" parent="1">
          <mxGeometry x="160" y="340" width="40" height="40" as="geometry" />
        </mxCell>
        <mxCell id="AO6FHdo3QItn0qnjrF7G-18" value="" style="shape=image;verticalLabelPosition=bottom;labelBackgroundColor=default;verticalAlign=top;aspect=fixed;imageAspect=0;image=data:image/png,iVBORw0KGgoAAAANSUhEUgAAAQAAAAEACAMAAABrrFhUAAABcVBMVEUAAAAAAAAAAAAAAAAAAAAAAAAAAAAAAAAAAAAAAAAAAAAAAAAAAAAAAAAAAAAAAAAAAAAAAAAAAAAAAAAAAAAAAAAAAAAAAAAAAAAAAAAAAAAAAAAAAAAAAAAAAAAAAAAAAAAAAAAAAAAAAAAAAAAAAAAAAAAAAAAAAAAAAAAAAAAAAAAAAAAAAAAAAAAAAAAAAAAAAAAAAAAAAAAAAAAAAAAAAAD///8pKSnW1tZmZmbCwsKZmZm7u7v8/PwFBQUJCQnc3NwiIiINDQ3x8fE6Ojr5+fn19fXl5eUzMzOIiIj+/v7Q0NDGxsZISEhAQEAwMDAsLCwmJibh4eGpqamGhoZ8fHx3d3c9PT0bGxutra2fn59ycnJOTk4YGBgVFRXq6urKysqTk5ONjY1cXFxXV1c1NTXs7Oy/v7+3t7dgYGATExPe3t7Y2NjV1dWzs7Obm5t4eHhsbGxkZGRDQ0OysrKjo6OWlpZ2dna6urrBwcGMHUAbAAAANnRSTlMARIj18fg3SwU+CXFm/elVQarel/vM45BQSBTuOzPTK8N8IxkODNe0dy+7rsedgb6gpmpeWWOwFOIRAAAJP0lEQVR42uzb23aiMBiG4c8yKtpKW0Dc17qv29Ha/vd/aVNN0OXQmZK4lvjHPGccie8CTIKBZVmWZVmWZVmWZVlWOu1a1aPLWzzhKkx/U0bCEq7Ah0OZ+VVA5h4rlJ6BBaZ5ylQr6wIzUmTYNdCmzGVboEbZy7RAlYSXgotLupoCHgkFXNbVXAMVElxc1tXcBSThwugvTgkpGRogfQHDAoTKd4FhAYp51WvAsABQLmBagJMCT/iZcQFUC5gXQLGAgQHUCpgYQKmAkQFUCpgZQKGAoQHSFzA1QOoCxgZIW8DcACkLGBwgXQGTA6QqYHSANAXMDnBSIIfvGB7g5wKGBfjO/++CWwpATgcJNxWAXpFwWwEICYYEiG49wObWA/S9Gw+A/nPrtgNcy3mpf9AgV28PoKzc70yH/AOM7n3amTWhZLQOiSisfrq8A3R8kjZQEpA07nIOUMhTLIKSMcWcKd8Aw4gOHChp0YE/YhtgRUdVKFnQUY9tAI8OKnX9PyR7XANMKfayLEFRcR5RrMM0QJ2EaAotJY+ED6YBPkn4hKYtCe9MAzyQMIWmPgn3zAP0ocmtmBFgAF2OGQFG0PXLiAAVaGsZEcCBNs+IAB60RUYE8KFtzDvAmxwHn70/Z8U0QEB7M2ib0N6SaQA5pV1Dm0xY5RlgEMYXsLYe7YUDlgECEp7O36VZ4xjgTQ7kWy60uS05lnpnF2C4IamHM/RICsq8ArSjkyVNbaOIpHGHU4BunqRWF1qSC+tOn1GAgKSogDPVHZKWjAL8JsFv4mxTj4RXRgHmJG2GONNoSdKMUYA6xRYjnGVUpdgDowC4D0ma4CwzitU4/QoAhTFJdZxhS5JX5DUOAMoTEl6gz41IWDS5jQQBt/rNqniz/vilA8HN7Y5yLoTp7qje/GYu4A/ZDYW/lJLvdZqna1yTk8fEO+1Fw+Tr5TrHyRAQJZ5eRRIWJ+89Ku7J4CGHg+d4PsUzgDz9efLnsYqdMkll7LyS0EgsqUx4LoigJr+tfgCP95JYT87j9APImdAd0wDyqebrB5APiTemAZIvRvrhyTXtnxQKaC/sI+aa8Xrcw1Fx/fxlNcReN9gdBV3sDVe7o3UDB2XzAqRhA9gAhgXIQ1fTjADUgaYG8wBbEuYu9ExIeGAaoE2Sv94Oocht3L2Q1GAaoOzQwbgJJYMxHeSbTANgQ0d3UBLQ0TPXP0ujG2rvafXpoFJiGwBv2vsFPDqo8d0xAqwqJAW6y+FLl3MAlGYh7YwHUNJ2aM//4L1r7Mtg26v1HstQ1O+t50GvxH7f4L/wPS8bwAawAWyAP+zdMQrAIAxA0YAdXDopuCVHcMv9j9ahU1eltAn/n0AfgYwBAAAAAJCfBQAAAADwyrtsaPGgFR0me9V2euh6q1v/nx6+uSPQPEFDlrPg83/XLfRluU9HQD1FKquF3X/PDlnNkwQAAAAAAAAAAAAAAAAAAHCxX/9NacNwHMef1efDdLaltNAKKL90CAgyGCq6qXNzbo9+1/smt6Tp9tfu1tzt9V97PY68m+aS/wH+SYBwlOejJf5gOcrjO/xV/yjAxZHYQEvffwpYyGaXISrETzcJC1e3ny9geTwSJzAsnJt1CtCgOITY9WnItihLb2kIJgMY3lBkLfzyluIA0Oob4LlN220LprsXlnS/tdwAfPQ0wLbLsr5ZYJfR1Wy4AbpfvAwQd+h6C2gnHVa53jkBeB/5GGDOCt0USp6w2lXsBOB7DwNEHSqTYRQft/UFRGvM3+mFToAg9S/A1B7PE0Un0gPR2rPn6eB0cdSldu4E4JvIuwBbKhsUwoQilycDKrMYIu9T6dw5AXjmXYDn0vd7cCyGKLxYb1uEc+umHSDIfQvwgcrVCo5Wm+IWhrBHce8GYC/0LMCQ2scBLEadYATTlMrADcBzzwJgbGxxT0JYHp0JINYUrxUB2g3PAixoGJ+Nqgb6DNsTxYsZYELRD/0KEK5p6e9DaAlFA7ZTirUZYNCjWPgVAKsmbdlCJwgoItiGFPdmgEauHu/EfgXAasaS9QiFkKKNkpji2gqAM4obzwIAl313o+/OAPcHxnaA8JMetm8BgHSe0NRsmWvACLYpRc8OgJ0qllx4FwCItjfd8p52TbGH7ZViUgqAY4oHDwMAiM8SatehcVR+gK1PcV4OEOmLrGYB8ndi6ASw3X2ndgpgTxHEMKVU0nIApAFFzQIcULy6AWzRRyqfix5tiq+VZ4EMTgBs6hlgT/HNWsN+ABg0FbXQnVN5BwAzKouq0+CxHUAVrGWAlCKLzN3vDYCV8cYLT9Zf31GbLyGGh1TaFxUBMA3qGCDsUDwsgTwz58NYt1mhcEjlC6wpwM7jZWM53M8CahtUBcCmjgEwoRKME2pba86/OQVWcypJhMLyir/TjKoDRM06BvjJ3p20NAyEYRwfSVwRBPFiVdSTBc8+o1jqEtsqSlKXij0URa16cAHRg99eMOMyTKy105F36vu/9tLnR5tDApnqrjS6jt4mfoJUts0bvElZZrdVRTYAkiJBABxJo2O8dSkzuj6FqpktUIlhAqjOKQJEG8bjnzWk1aRRMcZH8ZY0Oyvhe4DoliAAllek1l0d7z1WpF6liS9t3hj7H+poAYCnXYIAiApF+dlz9HXis3aJWN2HXnNP/+00gJYAKFAEADbP1f+g/JJA76B2r3gOCyWYlS7U5+W92g7wE0B0SBIAQP0kbjZK68gounpqxCd1fNd6NWkk+2v4daQAyMYADMAADMAADMAADMAADMAADMAADMAADMAADNBmU+iJQosTT3uiRdFpAxPogcJZ0XGD/fC+YFiIbgpQf6Gi3X6zyX6/AdR+KwGfAdR+SwF/AdR+awFfAcIB0ZX6Aj8BtP1WDQc+Amj7rQX8A9D32wv4BmDstxbwC8DYb9106BOA2t9lAX8A1P6uC/gC4GC/EvADQO130MyUDwCO9isB+gDO9isB6gDu9isB6gAzIjv6R1n48r0YgAH+OUCAtBFBqhGkBcJ140gbE6QaQ9q4cN0C0sJ8H6HyIdIWhOtGQbol4bpcCMKFOeG8eRAuL9qrV0+fmhsSf1Dutb07NgEAhAEgGO0dQAsRVBDSBvcfzRWsQoq/RS7svtObuFh6Q9ItXuoIl3CVkcTTtJMDOTYFAAAAAAB8erzdYkAv8hbtAAAAAElFTkSuQmCC;" vertex="1" parent="1">
          <mxGeometry x="100" y="400" width="40" height="40" as="geometry" />
        </mxCell>
        <mxCell id="AO6FHdo3QItn0qnjrF7G-19" value="" style="shape=image;verticalLabelPosition=bottom;labelBackgroundColor=default;verticalAlign=top;aspect=fixed;imageAspect=0;image=data:image/png,iVBORw0KGgoAAAANSUhEUgAAAQAAAAEACAMAAABrrFhUAAABcVBMVEUAAAAAAAAAAAAAAAAAAAAAAAAAAAAAAAAAAAAAAAAAAAAAAAAAAAAAAAAAAAAAAAAAAAAAAAAAAAAAAAAAAAAAAAAAAAAAAAAAAAAAAAAAAAAAAAAAAAAAAAAAAAAAAAAAAAAAAAAAAAAAAAAAAAAAAAAAAAAAAAAAAAAAAAAAAAAAAAAAAAAAAAAAAAAAAAAAAAAAAAAAAAAAAAAAAAAAAAAAAAD///8pKSnW1tZmZmbCwsKZmZm7u7v8/PwFBQUJCQnc3NwiIiINDQ3x8fE6Ojr5+fn19fXl5eUzMzOIiIj+/v7Q0NDGxsZISEhAQEAwMDAsLCwmJibh4eGpqamGhoZ8fHx3d3c9PT0bGxutra2fn59ycnJOTk4YGBgVFRXq6urKysqTk5ONjY1cXFxXV1c1NTXs7Oy/v7+3t7dgYGATExPe3t7Y2NjV1dWzs7Obm5t4eHhsbGxkZGRDQ0OysrKjo6OWlpZ2dna6urrBwcGMHUAbAAAANnRSTlMARIj18fg3SwU+CXFm/elVQarel/vM45BQSBTuOzPTK8N8IxkODNe0dy+7rsedgb6gpmpeWWOwFOIRAAAJP0lEQVR42uzb23aiMBiG4c8yKtpKW0Dc17qv29Ha/vd/aVNN0OXQmZK4lvjHPGccie8CTIKBZVmWZVmWZVmWZVlWOu1a1aPLWzzhKkx/U0bCEq7Ah0OZ+VVA5h4rlJ6BBaZ5ylQr6wIzUmTYNdCmzGVboEbZy7RAlYSXgotLupoCHgkFXNbVXAMVElxc1tXcBSThwugvTgkpGRogfQHDAoTKd4FhAYp51WvAsABQLmBagJMCT/iZcQFUC5gXQLGAgQHUCpgYQKmAkQFUCpgZQKGAoQHSFzA1QOoCxgZIW8DcACkLGBwgXQGTA6QqYHSANAXMDnBSIIfvGB7g5wKGBfjO/++CWwpATgcJNxWAXpFwWwEICYYEiG49wObWA/S9Gw+A/nPrtgNcy3mpf9AgV28PoKzc70yH/AOM7n3amTWhZLQOiSisfrq8A3R8kjZQEpA07nIOUMhTLIKSMcWcKd8Aw4gOHChp0YE/YhtgRUdVKFnQUY9tAI8OKnX9PyR7XANMKfayLEFRcR5RrMM0QJ2EaAotJY+ED6YBPkn4hKYtCe9MAzyQMIWmPgn3zAP0ocmtmBFgAF2OGQFG0PXLiAAVaGsZEcCBNs+IAB60RUYE8KFtzDvAmxwHn70/Z8U0QEB7M2ib0N6SaQA5pV1Dm0xY5RlgEMYXsLYe7YUDlgECEp7O36VZ4xjgTQ7kWy60uS05lnpnF2C4IamHM/RICsq8ArSjkyVNbaOIpHGHU4BunqRWF1qSC+tOn1GAgKSogDPVHZKWjAL8JsFv4mxTj4RXRgHmJG2GONNoSdKMUYA6xRYjnGVUpdgDowC4D0ma4CwzitU4/QoAhTFJdZxhS5JX5DUOAMoTEl6gz41IWDS5jQQBt/rNqniz/vilA8HN7Y5yLoTp7qje/GYu4A/ZDYW/lJLvdZqna1yTk8fEO+1Fw+Tr5TrHyRAQJZ5eRRIWJ+89Ku7J4CGHg+d4PsUzgDz9efLnsYqdMkll7LyS0EgsqUx4LoigJr+tfgCP95JYT87j9APImdAd0wDyqebrB5APiTemAZIvRvrhyTXtnxQKaC/sI+aa8Xrcw1Fx/fxlNcReN9gdBV3sDVe7o3UDB2XzAqRhA9gAhgXIQ1fTjADUgaYG8wBbEuYu9ExIeGAaoE2Sv94Oocht3L2Q1GAaoOzQwbgJJYMxHeSbTANgQ0d3UBLQ0TPXP0ujG2rvafXpoFJiGwBv2vsFPDqo8d0xAqwqJAW6y+FLl3MAlGYh7YwHUNJ2aM//4L1r7Mtg26v1HstQ1O+t50GvxH7f4L/wPS8bwAawAWyAP+zdMQrAIAxA0YAdXDopuCVHcMv9j9ahU1eltAn/n0AfgYwBAAAAAJCfBQAAAADwyrtsaPGgFR0me9V2euh6q1v/nx6+uSPQPEFDlrPg83/XLfRluU9HQD1FKquF3X/PDlnNkwQAAAAAAAAAAAAAAAAAAHCxX/9NacNwHMef1efDdLaltNAKKL90CAgyGCq6qXNzbo9+1/smt6Tp9tfu1tzt9V97PY68m+aS/wH+SYBwlOejJf5gOcrjO/xV/yjAxZHYQEvffwpYyGaXISrETzcJC1e3ny9geTwSJzAsnJt1CtCgOITY9WnItihLb2kIJgMY3lBkLfzyluIA0Oob4LlN220LprsXlnS/tdwAfPQ0wLbLsr5ZYJfR1Wy4AbpfvAwQd+h6C2gnHVa53jkBeB/5GGDOCt0USp6w2lXsBOB7DwNEHSqTYRQft/UFRGvM3+mFToAg9S/A1B7PE0Un0gPR2rPn6eB0cdSldu4E4JvIuwBbKhsUwoQilycDKrMYIu9T6dw5AXjmXYDn0vd7cCyGKLxYb1uEc+umHSDIfQvwgcrVCo5Wm+IWhrBHce8GYC/0LMCQ2scBLEadYATTlMrADcBzzwJgbGxxT0JYHp0JINYUrxUB2g3PAixoGJ+Nqgb6DNsTxYsZYELRD/0KEK5p6e9DaAlFA7ZTirUZYNCjWPgVAKsmbdlCJwgoItiGFPdmgEauHu/EfgXAasaS9QiFkKKNkpji2gqAM4obzwIAl313o+/OAPcHxnaA8JMetm8BgHSe0NRsmWvACLYpRc8OgJ0qllx4FwCItjfd8p52TbGH7ZViUgqAY4oHDwMAiM8SatehcVR+gK1PcV4OEOmLrGYB8ndi6ASw3X2ndgpgTxHEMKVU0nIApAFFzQIcULy6AWzRRyqfix5tiq+VZ4EMTgBs6hlgT/HNWsN+ABg0FbXQnVN5BwAzKouq0+CxHUAVrGWAlCKLzN3vDYCV8cYLT9Zf31GbLyGGh1TaFxUBMA3qGCDsUDwsgTwz58NYt1mhcEjlC6wpwM7jZWM53M8CahtUBcCmjgEwoRKME2pba86/OQVWcypJhMLyir/TjKoDRM06BvjJ3p20NAyEYRwfSVwRBPFiVdSTBc8+o1jqEtsqSlKXij0URa16cAHRg99eMOMyTKy105F36vu/9tLnR5tDApnqrjS6jt4mfoJUts0bvElZZrdVRTYAkiJBABxJo2O8dSkzuj6FqpktUIlhAqjOKQJEG8bjnzWk1aRRMcZH8ZY0Oyvhe4DoliAAllek1l0d7z1WpF6liS9t3hj7H+poAYCnXYIAiApF+dlz9HXis3aJWN2HXnNP/+00gJYAKFAEADbP1f+g/JJA76B2r3gOCyWYlS7U5+W92g7wE0B0SBIAQP0kbjZK68gounpqxCd1fNd6NWkk+2v4daQAyMYADMAADMAADMAADMAADMAADMAADMAADMAADNBmU+iJQosTT3uiRdFpAxPogcJZ0XGD/fC+YFiIbgpQf6Gi3X6zyX6/AdR+KwGfAdR+SwF/AdR+awFfAcIB0ZX6Aj8BtP1WDQc+Amj7rQX8A9D32wv4BmDstxbwC8DYb9106BOA2t9lAX8A1P6uC/gC4GC/EvADQO130MyUDwCO9isB+gDO9isB6gDu9isB6gAzIjv6R1n48r0YgAH+OUCAtBFBqhGkBcJ140gbE6QaQ9q4cN0C0sJ8H6HyIdIWhOtGQbol4bpcCMKFOeG8eRAuL9qrV0+fmhsSf1Dutb07NgEAhAEgGO0dQAsRVBDSBvcfzRWsQoq/RS7svtObuFh6Q9ItXuoIl3CVkcTTtJMDOTYFAAAAAAB8erzdYkAv8hbtAAAAAElFTkSuQmCC;" vertex="1" parent="1">
          <mxGeometry x="220" y="400" width="40" height="40" as="geometry" />
        </mxCell>
        <mxCell id="AO6FHdo3QItn0qnjrF7G-20" value="" style="shape=image;verticalLabelPosition=bottom;labelBackgroundColor=default;verticalAlign=top;aspect=fixed;imageAspect=0;image=data:image/png,iVBORw0KGgoAAAANSUhEUgAAAQAAAAEACAMAAABrrFhUAAABcVBMVEUAAAAAAAAAAAAAAAAAAAAAAAAAAAAAAAAAAAAAAAAAAAAAAAAAAAAAAAAAAAAAAAAAAAAAAAAAAAAAAAAAAAAAAAAAAAAAAAAAAAAAAAAAAAAAAAAAAAAAAAAAAAAAAAAAAAAAAAAAAAAAAAAAAAAAAAAAAAAAAAAAAAAAAAAAAAAAAAAAAAAAAAAAAAAAAAAAAAAAAAAAAAAAAAAAAAAAAAAAAAD///8pKSnW1tZmZmbCwsKZmZm7u7v8/PwFBQUJCQnc3NwiIiINDQ3x8fE6Ojr5+fn19fXl5eUzMzOIiIj+/v7Q0NDGxsZISEhAQEAwMDAsLCwmJibh4eGpqamGhoZ8fHx3d3c9PT0bGxutra2fn59ycnJOTk4YGBgVFRXq6urKysqTk5ONjY1cXFxXV1c1NTXs7Oy/v7+3t7dgYGATExPe3t7Y2NjV1dWzs7Obm5t4eHhsbGxkZGRDQ0OysrKjo6OWlpZ2dna6urrBwcGMHUAbAAAANnRSTlMARIj18fg3SwU+CXFm/elVQarel/vM45BQSBTuOzPTK8N8IxkODNe0dy+7rsedgb6gpmpeWWOwFOIRAAAJP0lEQVR42uzb23aiMBiG4c8yKtpKW0Dc17qv29Ha/vd/aVNN0OXQmZK4lvjHPGccie8CTIKBZVmWZVmWZVmWZVlWOu1a1aPLWzzhKkx/U0bCEq7Ah0OZ+VVA5h4rlJ6BBaZ5ylQr6wIzUmTYNdCmzGVboEbZy7RAlYSXgotLupoCHgkFXNbVXAMVElxc1tXcBSThwugvTgkpGRogfQHDAoTKd4FhAYp51WvAsABQLmBagJMCT/iZcQFUC5gXQLGAgQHUCpgYQKmAkQFUCpgZQKGAoQHSFzA1QOoCxgZIW8DcACkLGBwgXQGTA6QqYHSANAXMDnBSIIfvGB7g5wKGBfjO/++CWwpATgcJNxWAXpFwWwEICYYEiG49wObWA/S9Gw+A/nPrtgNcy3mpf9AgV28PoKzc70yH/AOM7n3amTWhZLQOiSisfrq8A3R8kjZQEpA07nIOUMhTLIKSMcWcKd8Aw4gOHChp0YE/YhtgRUdVKFnQUY9tAI8OKnX9PyR7XANMKfayLEFRcR5RrMM0QJ2EaAotJY+ED6YBPkn4hKYtCe9MAzyQMIWmPgn3zAP0ocmtmBFgAF2OGQFG0PXLiAAVaGsZEcCBNs+IAB60RUYE8KFtzDvAmxwHn70/Z8U0QEB7M2ib0N6SaQA5pV1Dm0xY5RlgEMYXsLYe7YUDlgECEp7O36VZ4xjgTQ7kWy60uS05lnpnF2C4IamHM/RICsq8ArSjkyVNbaOIpHGHU4BunqRWF1qSC+tOn1GAgKSogDPVHZKWjAL8JsFv4mxTj4RXRgHmJG2GONNoSdKMUYA6xRYjnGVUpdgDowC4D0ma4CwzitU4/QoAhTFJdZxhS5JX5DUOAMoTEl6gz41IWDS5jQQBt/rNqniz/vilA8HN7Y5yLoTp7qje/GYu4A/ZDYW/lJLvdZqna1yTk8fEO+1Fw+Tr5TrHyRAQJZ5eRRIWJ+89Ku7J4CGHg+d4PsUzgDz9efLnsYqdMkll7LyS0EgsqUx4LoigJr+tfgCP95JYT87j9APImdAd0wDyqebrB5APiTemAZIvRvrhyTXtnxQKaC/sI+aa8Xrcw1Fx/fxlNcReN9gdBV3sDVe7o3UDB2XzAqRhA9gAhgXIQ1fTjADUgaYG8wBbEuYu9ExIeGAaoE2Sv94Oocht3L2Q1GAaoOzQwbgJJYMxHeSbTANgQ0d3UBLQ0TPXP0ujG2rvafXpoFJiGwBv2vsFPDqo8d0xAqwqJAW6y+FLl3MAlGYh7YwHUNJ2aM//4L1r7Mtg26v1HstQ1O+t50GvxH7f4L/wPS8bwAawAWyAP+zdMQrAIAxA0YAdXDopuCVHcMv9j9ahU1eltAn/n0AfgYwBAAAAAJCfBQAAAADwyrtsaPGgFR0me9V2euh6q1v/nx6+uSPQPEFDlrPg83/XLfRluU9HQD1FKquF3X/PDlnNkwQAAAAAAAAAAAAAAAAAAHCxX/9NacNwHMef1efDdLaltNAKKL90CAgyGCq6qXNzbo9+1/smt6Tp9tfu1tzt9V97PY68m+aS/wH+SYBwlOejJf5gOcrjO/xV/yjAxZHYQEvffwpYyGaXISrETzcJC1e3ny9geTwSJzAsnJt1CtCgOITY9WnItihLb2kIJgMY3lBkLfzyluIA0Oob4LlN220LprsXlnS/tdwAfPQ0wLbLsr5ZYJfR1Wy4AbpfvAwQd+h6C2gnHVa53jkBeB/5GGDOCt0USp6w2lXsBOB7DwNEHSqTYRQft/UFRGvM3+mFToAg9S/A1B7PE0Un0gPR2rPn6eB0cdSldu4E4JvIuwBbKhsUwoQilycDKrMYIu9T6dw5AXjmXYDn0vd7cCyGKLxYb1uEc+umHSDIfQvwgcrVCo5Wm+IWhrBHce8GYC/0LMCQ2scBLEadYATTlMrADcBzzwJgbGxxT0JYHp0JINYUrxUB2g3PAixoGJ+Nqgb6DNsTxYsZYELRD/0KEK5p6e9DaAlFA7ZTirUZYNCjWPgVAKsmbdlCJwgoItiGFPdmgEauHu/EfgXAasaS9QiFkKKNkpji2gqAM4obzwIAl313o+/OAPcHxnaA8JMetm8BgHSe0NRsmWvACLYpRc8OgJ0qllx4FwCItjfd8p52TbGH7ZViUgqAY4oHDwMAiM8SatehcVR+gK1PcV4OEOmLrGYB8ndi6ASw3X2ndgpgTxHEMKVU0nIApAFFzQIcULy6AWzRRyqfix5tiq+VZ4EMTgBs6hlgT/HNWsN+ABg0FbXQnVN5BwAzKouq0+CxHUAVrGWAlCKLzN3vDYCV8cYLT9Zf31GbLyGGh1TaFxUBMA3qGCDsUDwsgTwz58NYt1mhcEjlC6wpwM7jZWM53M8CahtUBcCmjgEwoRKME2pba86/OQVWcypJhMLyir/TjKoDRM06BvjJ3p20NAyEYRwfSVwRBPFiVdSTBc8+o1jqEtsqSlKXij0URa16cAHRg99eMOMyTKy105F36vu/9tLnR5tDApnqrjS6jt4mfoJUts0bvElZZrdVRTYAkiJBABxJo2O8dSkzuj6FqpktUIlhAqjOKQJEG8bjnzWk1aRRMcZH8ZY0Oyvhe4DoliAAllek1l0d7z1WpF6liS9t3hj7H+poAYCnXYIAiApF+dlz9HXis3aJWN2HXnNP/+00gJYAKFAEADbP1f+g/JJA76B2r3gOCyWYlS7U5+W92g7wE0B0SBIAQP0kbjZK68gounpqxCd1fNd6NWkk+2v4daQAyMYADMAADMAADMAADMAADMAADMAADMAADMAADNBmU+iJQosTT3uiRdFpAxPogcJZ0XGD/fC+YFiIbgpQf6Gi3X6zyX6/AdR+KwGfAdR+SwF/AdR+awFfAcIB0ZX6Aj8BtP1WDQc+Amj7rQX8A9D32wv4BmDstxbwC8DYb9106BOA2t9lAX8A1P6uC/gC4GC/EvADQO130MyUDwCO9isB+gDO9isB6gDu9isB6gAzIjv6R1n48r0YgAH+OUCAtBFBqhGkBcJ140gbE6QaQ9q4cN0C0sJ8H6HyIdIWhOtGQbol4bpcCMKFOeG8eRAuL9qrV0+fmhsSf1Dutb07NgEAhAEgGO0dQAsRVBDSBvcfzRWsQoq/RS7svtObuFh6Q9ItXuoIl3CVkcTTtJMDOTYFAAAAAAB8erzdYkAv8hbtAAAAAElFTkSuQmCC;" vertex="1" parent="1">
          <mxGeometry x="160" y="400" width="40" height="40" as="geometry" />
        </mxCell>
        <mxCell id="AO6FHdo3QItn0qnjrF7G-21" value="" style="shape=image;verticalLabelPosition=bottom;labelBackgroundColor=default;verticalAlign=top;aspect=fixed;imageAspect=0;image=data:image/png,iVBORw0KGgoAAAANSUhEUgAAAQAAAAEACAMAAABrrFhUAAABcVBMVEUAAAAAAAAAAAAAAAAAAAAAAAAAAAAAAAAAAAAAAAAAAAAAAAAAAAAAAAAAAAAAAAAAAAAAAAAAAAAAAAAAAAAAAAAAAAAAAAAAAAAAAAAAAAAAAAAAAAAAAAAAAAAAAAAAAAAAAAAAAAAAAAAAAAAAAAAAAAAAAAAAAAAAAAAAAAAAAAAAAAAAAAAAAAAAAAAAAAAAAAAAAAAAAAAAAAAAAAAAAAD///8pKSnW1tZmZmbCwsKZmZm7u7v8/PwFBQUJCQnc3NwiIiINDQ3x8fE6Ojr5+fn19fXl5eUzMzOIiIj+/v7Q0NDGxsZISEhAQEAwMDAsLCwmJibh4eGpqamGhoZ8fHx3d3c9PT0bGxutra2fn59ycnJOTk4YGBgVFRXq6urKysqTk5ONjY1cXFxXV1c1NTXs7Oy/v7+3t7dgYGATExPe3t7Y2NjV1dWzs7Obm5t4eHhsbGxkZGRDQ0OysrKjo6OWlpZ2dna6urrBwcGMHUAbAAAANnRSTlMARIj18fg3SwU+CXFm/elVQarel/vM45BQSBTuOzPTK8N8IxkODNe0dy+7rsedgb6gpmpeWWOwFOIRAAAJP0lEQVR42uzb23aiMBiG4c8yKtpKW0Dc17qv29Ha/vd/aVNN0OXQmZK4lvjHPGccie8CTIKBZVmWZVmWZVmWZVlWOu1a1aPLWzzhKkx/U0bCEq7Ah0OZ+VVA5h4rlJ6BBaZ5ylQr6wIzUmTYNdCmzGVboEbZy7RAlYSXgotLupoCHgkFXNbVXAMVElxc1tXcBSThwugvTgkpGRogfQHDAoTKd4FhAYp51WvAsABQLmBagJMCT/iZcQFUC5gXQLGAgQHUCpgYQKmAkQFUCpgZQKGAoQHSFzA1QOoCxgZIW8DcACkLGBwgXQGTA6QqYHSANAXMDnBSIIfvGB7g5wKGBfjO/++CWwpATgcJNxWAXpFwWwEICYYEiG49wObWA/S9Gw+A/nPrtgNcy3mpf9AgV28PoKzc70yH/AOM7n3amTWhZLQOiSisfrq8A3R8kjZQEpA07nIOUMhTLIKSMcWcKd8Aw4gOHChp0YE/YhtgRUdVKFnQUY9tAI8OKnX9PyR7XANMKfayLEFRcR5RrMM0QJ2EaAotJY+ED6YBPkn4hKYtCe9MAzyQMIWmPgn3zAP0ocmtmBFgAF2OGQFG0PXLiAAVaGsZEcCBNs+IAB60RUYE8KFtzDvAmxwHn70/Z8U0QEB7M2ib0N6SaQA5pV1Dm0xY5RlgEMYXsLYe7YUDlgECEp7O36VZ4xjgTQ7kWy60uS05lnpnF2C4IamHM/RICsq8ArSjkyVNbaOIpHGHU4BunqRWF1qSC+tOn1GAgKSogDPVHZKWjAL8JsFv4mxTj4RXRgHmJG2GONNoSdKMUYA6xRYjnGVUpdgDowC4D0ma4CwzitU4/QoAhTFJdZxhS5JX5DUOAMoTEl6gz41IWDS5jQQBt/rNqniz/vilA8HN7Y5yLoTp7qje/GYu4A/ZDYW/lJLvdZqna1yTk8fEO+1Fw+Tr5TrHyRAQJZ5eRRIWJ+89Ku7J4CGHg+d4PsUzgDz9efLnsYqdMkll7LyS0EgsqUx4LoigJr+tfgCP95JYT87j9APImdAd0wDyqebrB5APiTemAZIvRvrhyTXtnxQKaC/sI+aa8Xrcw1Fx/fxlNcReN9gdBV3sDVe7o3UDB2XzAqRhA9gAhgXIQ1fTjADUgaYG8wBbEuYu9ExIeGAaoE2Sv94Oocht3L2Q1GAaoOzQwbgJJYMxHeSbTANgQ0d3UBLQ0TPXP0ujG2rvafXpoFJiGwBv2vsFPDqo8d0xAqwqJAW6y+FLl3MAlGYh7YwHUNJ2aM//4L1r7Mtg26v1HstQ1O+t50GvxH7f4L/wPS8bwAawAWyAP+zdMQrAIAxA0YAdXDopuCVHcMv9j9ahU1eltAn/n0AfgYwBAAAAAJCfBQAAAADwyrtsaPGgFR0me9V2euh6q1v/nx6+uSPQPEFDlrPg83/XLfRluU9HQD1FKquF3X/PDlnNkwQAAAAAAAAAAAAAAAAAAHCxX/9NacNwHMef1efDdLaltNAKKL90CAgyGCq6qXNzbo9+1/smt6Tp9tfu1tzt9V97PY68m+aS/wH+SYBwlOejJf5gOcrjO/xV/yjAxZHYQEvffwpYyGaXISrETzcJC1e3ny9geTwSJzAsnJt1CtCgOITY9WnItihLb2kIJgMY3lBkLfzyluIA0Oob4LlN220LprsXlnS/tdwAfPQ0wLbLsr5ZYJfR1Wy4AbpfvAwQd+h6C2gnHVa53jkBeB/5GGDOCt0USp6w2lXsBOB7DwNEHSqTYRQft/UFRGvM3+mFToAg9S/A1B7PE0Un0gPR2rPn6eB0cdSldu4E4JvIuwBbKhsUwoQilycDKrMYIu9T6dw5AXjmXYDn0vd7cCyGKLxYb1uEc+umHSDIfQvwgcrVCo5Wm+IWhrBHce8GYC/0LMCQ2scBLEadYATTlMrADcBzzwJgbGxxT0JYHp0JINYUrxUB2g3PAixoGJ+Nqgb6DNsTxYsZYELRD/0KEK5p6e9DaAlFA7ZTirUZYNCjWPgVAKsmbdlCJwgoItiGFPdmgEauHu/EfgXAasaS9QiFkKKNkpji2gqAM4obzwIAl313o+/OAPcHxnaA8JMetm8BgHSe0NRsmWvACLYpRc8OgJ0qllx4FwCItjfd8p52TbGH7ZViUgqAY4oHDwMAiM8SatehcVR+gK1PcV4OEOmLrGYB8ndi6ASw3X2ndgpgTxHEMKVU0nIApAFFzQIcULy6AWzRRyqfix5tiq+VZ4EMTgBs6hlgT/HNWsN+ABg0FbXQnVN5BwAzKouq0+CxHUAVrGWAlCKLzN3vDYCV8cYLT9Zf31GbLyGGh1TaFxUBMA3qGCDsUDwsgTwz58NYt1mhcEjlC6wpwM7jZWM53M8CahtUBcCmjgEwoRKME2pba86/OQVWcypJhMLyir/TjKoDRM06BvjJ3p20NAyEYRwfSVwRBPFiVdSTBc8+o1jqEtsqSlKXij0URa16cAHRg99eMOMyTKy105F36vu/9tLnR5tDApnqrjS6jt4mfoJUts0bvElZZrdVRTYAkiJBABxJo2O8dSkzuj6FqpktUIlhAqjOKQJEG8bjnzWk1aRRMcZH8ZY0Oyvhe4DoliAAllek1l0d7z1WpF6liS9t3hj7H+poAYCnXYIAiApF+dlz9HXis3aJWN2HXnNP/+00gJYAKFAEADbP1f+g/JJA76B2r3gOCyWYlS7U5+W92g7wE0B0SBIAQP0kbjZK68gounpqxCd1fNd6NWkk+2v4daQAyMYADMAADMAADMAADMAADMAADMAADMAADMAADNBmU+iJQosTT3uiRdFpAxPogcJZ0XGD/fC+YFiIbgpQf6Gi3X6zyX6/AdR+KwGfAdR+SwF/AdR+awFfAcIB0ZX6Aj8BtP1WDQc+Amj7rQX8A9D32wv4BmDstxbwC8DYb9106BOA2t9lAX8A1P6uC/gC4GC/EvADQO130MyUDwCO9isB+gDO9isB6gDu9isB6gAzIjv6R1n48r0YgAH+OUCAtBFBqhGkBcJ140gbE6QaQ9q4cN0C0sJ8H6HyIdIWhOtGQbol4bpcCMKFOeG8eRAuL9qrV0+fmhsSf1Dutb07NgEAhAEgGO0dQAsRVBDSBvcfzRWsQoq/RS7svtObuFh6Q9ItXuoIl3CVkcTTtJMDOTYFAAAAAAB8erzdYkAv8hbtAAAAAElFTkSuQmCC;" vertex="1" parent="1">
          <mxGeometry x="100" y="460" width="40" height="40" as="geometry" />
        </mxCell>
        <mxCell id="AO6FHdo3QItn0qnjrF7G-22" value="" style="shape=image;verticalLabelPosition=bottom;labelBackgroundColor=default;verticalAlign=top;aspect=fixed;imageAspect=0;image=data:image/png,iVBORw0KGgoAAAANSUhEUgAAAQAAAAEACAMAAABrrFhUAAABcVBMVEUAAAAAAAAAAAAAAAAAAAAAAAAAAAAAAAAAAAAAAAAAAAAAAAAAAAAAAAAAAAAAAAAAAAAAAAAAAAAAAAAAAAAAAAAAAAAAAAAAAAAAAAAAAAAAAAAAAAAAAAAAAAAAAAAAAAAAAAAAAAAAAAAAAAAAAAAAAAAAAAAAAAAAAAAAAAAAAAAAAAAAAAAAAAAAAAAAAAAAAAAAAAAAAAAAAAAAAAAAAAD///8pKSnW1tZmZmbCwsKZmZm7u7v8/PwFBQUJCQnc3NwiIiINDQ3x8fE6Ojr5+fn19fXl5eUzMzOIiIj+/v7Q0NDGxsZISEhAQEAwMDAsLCwmJibh4eGpqamGhoZ8fHx3d3c9PT0bGxutra2fn59ycnJOTk4YGBgVFRXq6urKysqTk5ONjY1cXFxXV1c1NTXs7Oy/v7+3t7dgYGATExPe3t7Y2NjV1dWzs7Obm5t4eHhsbGxkZGRDQ0OysrKjo6OWlpZ2dna6urrBwcGMHUAbAAAANnRSTlMARIj18fg3SwU+CXFm/elVQarel/vM45BQSBTuOzPTK8N8IxkODNe0dy+7rsedgb6gpmpeWWOwFOIRAAAJP0lEQVR42uzb23aiMBiG4c8yKtpKW0Dc17qv29Ha/vd/aVNN0OXQmZK4lvjHPGccie8CTIKBZVmWZVmWZVmWZVlWOu1a1aPLWzzhKkx/U0bCEq7Ah0OZ+VVA5h4rlJ6BBaZ5ylQr6wIzUmTYNdCmzGVboEbZy7RAlYSXgotLupoCHgkFXNbVXAMVElxc1tXcBSThwugvTgkpGRogfQHDAoTKd4FhAYp51WvAsABQLmBagJMCT/iZcQFUC5gXQLGAgQHUCpgYQKmAkQFUCpgZQKGAoQHSFzA1QOoCxgZIW8DcACkLGBwgXQGTA6QqYHSANAXMDnBSIIfvGB7g5wKGBfjO/++CWwpATgcJNxWAXpFwWwEICYYEiG49wObWA/S9Gw+A/nPrtgNcy3mpf9AgV28PoKzc70yH/AOM7n3amTWhZLQOiSisfrq8A3R8kjZQEpA07nIOUMhTLIKSMcWcKd8Aw4gOHChp0YE/YhtgRUdVKFnQUY9tAI8OKnX9PyR7XANMKfayLEFRcR5RrMM0QJ2EaAotJY+ED6YBPkn4hKYtCe9MAzyQMIWmPgn3zAP0ocmtmBFgAF2OGQFG0PXLiAAVaGsZEcCBNs+IAB60RUYE8KFtzDvAmxwHn70/Z8U0QEB7M2ib0N6SaQA5pV1Dm0xY5RlgEMYXsLYe7YUDlgECEp7O36VZ4xjgTQ7kWy60uS05lnpnF2C4IamHM/RICsq8ArSjkyVNbaOIpHGHU4BunqRWF1qSC+tOn1GAgKSogDPVHZKWjAL8JsFv4mxTj4RXRgHmJG2GONNoSdKMUYA6xRYjnGVUpdgDowC4D0ma4CwzitU4/QoAhTFJdZxhS5JX5DUOAMoTEl6gz41IWDS5jQQBt/rNqniz/vilA8HN7Y5yLoTp7qje/GYu4A/ZDYW/lJLvdZqna1yTk8fEO+1Fw+Tr5TrHyRAQJZ5eRRIWJ+89Ku7J4CGHg+d4PsUzgDz9efLnsYqdMkll7LyS0EgsqUx4LoigJr+tfgCP95JYT87j9APImdAd0wDyqebrB5APiTemAZIvRvrhyTXtnxQKaC/sI+aa8Xrcw1Fx/fxlNcReN9gdBV3sDVe7o3UDB2XzAqRhA9gAhgXIQ1fTjADUgaYG8wBbEuYu9ExIeGAaoE2Sv94Oocht3L2Q1GAaoOzQwbgJJYMxHeSbTANgQ0d3UBLQ0TPXP0ujG2rvafXpoFJiGwBv2vsFPDqo8d0xAqwqJAW6y+FLl3MAlGYh7YwHUNJ2aM//4L1r7Mtg26v1HstQ1O+t50GvxH7f4L/wPS8bwAawAWyAP+zdMQrAIAxA0YAdXDopuCVHcMv9j9ahU1eltAn/n0AfgYwBAAAAAJCfBQAAAADwyrtsaPGgFR0me9V2euh6q1v/nx6+uSPQPEFDlrPg83/XLfRluU9HQD1FKquF3X/PDlnNkwQAAAAAAAAAAAAAAAAAAHCxX/9NacNwHMef1efDdLaltNAKKL90CAgyGCq6qXNzbo9+1/smt6Tp9tfu1tzt9V97PY68m+aS/wH+SYBwlOejJf5gOcrjO/xV/yjAxZHYQEvffwpYyGaXISrETzcJC1e3ny9geTwSJzAsnJt1CtCgOITY9WnItihLb2kIJgMY3lBkLfzyluIA0Oob4LlN220LprsXlnS/tdwAfPQ0wLbLsr5ZYJfR1Wy4AbpfvAwQd+h6C2gnHVa53jkBeB/5GGDOCt0USp6w2lXsBOB7DwNEHSqTYRQft/UFRGvM3+mFToAg9S/A1B7PE0Un0gPR2rPn6eB0cdSldu4E4JvIuwBbKhsUwoQilycDKrMYIu9T6dw5AXjmXYDn0vd7cCyGKLxYb1uEc+umHSDIfQvwgcrVCo5Wm+IWhrBHce8GYC/0LMCQ2scBLEadYATTlMrADcBzzwJgbGxxT0JYHp0JINYUrxUB2g3PAixoGJ+Nqgb6DNsTxYsZYELRD/0KEK5p6e9DaAlFA7ZTirUZYNCjWPgVAKsmbdlCJwgoItiGFPdmgEauHu/EfgXAasaS9QiFkKKNkpji2gqAM4obzwIAl313o+/OAPcHxnaA8JMetm8BgHSe0NRsmWvACLYpRc8OgJ0qllx4FwCItjfd8p52TbGH7ZViUgqAY4oHDwMAiM8SatehcVR+gK1PcV4OEOmLrGYB8ndi6ASw3X2ndgpgTxHEMKVU0nIApAFFzQIcULy6AWzRRyqfix5tiq+VZ4EMTgBs6hlgT/HNWsN+ABg0FbXQnVN5BwAzKouq0+CxHUAVrGWAlCKLzN3vDYCV8cYLT9Zf31GbLyGGh1TaFxUBMA3qGCDsUDwsgTwz58NYt1mhcEjlC6wpwM7jZWM53M8CahtUBcCmjgEwoRKME2pba86/OQVWcypJhMLyir/TjKoDRM06BvjJ3p20NAyEYRwfSVwRBPFiVdSTBc8+o1jqEtsqSlKXij0URa16cAHRg99eMOMyTKy105F36vu/9tLnR5tDApnqrjS6jt4mfoJUts0bvElZZrdVRTYAkiJBABxJo2O8dSkzuj6FqpktUIlhAqjOKQJEG8bjnzWk1aRRMcZH8ZY0Oyvhe4DoliAAllek1l0d7z1WpF6liS9t3hj7H+poAYCnXYIAiApF+dlz9HXis3aJWN2HXnNP/+00gJYAKFAEADbP1f+g/JJA76B2r3gOCyWYlS7U5+W92g7wE0B0SBIAQP0kbjZK68gounpqxCd1fNd6NWkk+2v4daQAyMYADMAADMAADMAADMAADMAADMAADMAADMAADNBmU+iJQosTT3uiRdFpAxPogcJZ0XGD/fC+YFiIbgpQf6Gi3X6zyX6/AdR+KwGfAdR+SwF/AdR+awFfAcIB0ZX6Aj8BtP1WDQc+Amj7rQX8A9D32wv4BmDstxbwC8DYb9106BOA2t9lAX8A1P6uC/gC4GC/EvADQO130MyUDwCO9isB+gDO9isB6gDu9isB6gAzIjv6R1n48r0YgAH+OUCAtBFBqhGkBcJ140gbE6QaQ9q4cN0C0sJ8H6HyIdIWhOtGQbol4bpcCMKFOeG8eRAuL9qrV0+fmhsSf1Dutb07NgEAhAEgGO0dQAsRVBDSBvcfzRWsQoq/RS7svtObuFh6Q9ItXuoIl3CVkcTTtJMDOTYFAAAAAAB8erzdYkAv8hbtAAAAAElFTkSuQmCC;" vertex="1" parent="1">
          <mxGeometry x="220" y="460" width="40" height="40" as="geometry" />
        </mxCell>
        <mxCell id="AO6FHdo3QItn0qnjrF7G-23" value="" style="shape=image;verticalLabelPosition=bottom;labelBackgroundColor=default;verticalAlign=top;aspect=fixed;imageAspect=0;image=data:image/png,iVBORw0KGgoAAAANSUhEUgAAAQAAAAEACAMAAABrrFhUAAABcVBMVEUAAAAAAAAAAAAAAAAAAAAAAAAAAAAAAAAAAAAAAAAAAAAAAAAAAAAAAAAAAAAAAAAAAAAAAAAAAAAAAAAAAAAAAAAAAAAAAAAAAAAAAAAAAAAAAAAAAAAAAAAAAAAAAAAAAAAAAAAAAAAAAAAAAAAAAAAAAAAAAAAAAAAAAAAAAAAAAAAAAAAAAAAAAAAAAAAAAAAAAAAAAAAAAAAAAAAAAAAAAAD///8pKSnW1tZmZmbCwsKZmZm7u7v8/PwFBQUJCQnc3NwiIiINDQ3x8fE6Ojr5+fn19fXl5eUzMzOIiIj+/v7Q0NDGxsZISEhAQEAwMDAsLCwmJibh4eGpqamGhoZ8fHx3d3c9PT0bGxutra2fn59ycnJOTk4YGBgVFRXq6urKysqTk5ONjY1cXFxXV1c1NTXs7Oy/v7+3t7dgYGATExPe3t7Y2NjV1dWzs7Obm5t4eHhsbGxkZGRDQ0OysrKjo6OWlpZ2dna6urrBwcGMHUAbAAAANnRSTlMARIj18fg3SwU+CXFm/elVQarel/vM45BQSBTuOzPTK8N8IxkODNe0dy+7rsedgb6gpmpeWWOwFOIRAAAJP0lEQVR42uzb23aiMBiG4c8yKtpKW0Dc17qv29Ha/vd/aVNN0OXQmZK4lvjHPGccie8CTIKBZVmWZVmWZVmWZVlWOu1a1aPLWzzhKkx/U0bCEq7Ah0OZ+VVA5h4rlJ6BBaZ5ylQr6wIzUmTYNdCmzGVboEbZy7RAlYSXgotLupoCHgkFXNbVXAMVElxc1tXcBSThwugvTgkpGRogfQHDAoTKd4FhAYp51WvAsABQLmBagJMCT/iZcQFUC5gXQLGAgQHUCpgYQKmAkQFUCpgZQKGAoQHSFzA1QOoCxgZIW8DcACkLGBwgXQGTA6QqYHSANAXMDnBSIIfvGB7g5wKGBfjO/++CWwpATgcJNxWAXpFwWwEICYYEiG49wObWA/S9Gw+A/nPrtgNcy3mpf9AgV28PoKzc70yH/AOM7n3amTWhZLQOiSisfrq8A3R8kjZQEpA07nIOUMhTLIKSMcWcKd8Aw4gOHChp0YE/YhtgRUdVKFnQUY9tAI8OKnX9PyR7XANMKfayLEFRcR5RrMM0QJ2EaAotJY+ED6YBPkn4hKYtCe9MAzyQMIWmPgn3zAP0ocmtmBFgAF2OGQFG0PXLiAAVaGsZEcCBNs+IAB60RUYE8KFtzDvAmxwHn70/Z8U0QEB7M2ib0N6SaQA5pV1Dm0xY5RlgEMYXsLYe7YUDlgECEp7O36VZ4xjgTQ7kWy60uS05lnpnF2C4IamHM/RICsq8ArSjkyVNbaOIpHGHU4BunqRWF1qSC+tOn1GAgKSogDPVHZKWjAL8JsFv4mxTj4RXRgHmJG2GONNoSdKMUYA6xRYjnGVUpdgDowC4D0ma4CwzitU4/QoAhTFJdZxhS5JX5DUOAMoTEl6gz41IWDS5jQQBt/rNqniz/vilA8HN7Y5yLoTp7qje/GYu4A/ZDYW/lJLvdZqna1yTk8fEO+1Fw+Tr5TrHyRAQJZ5eRRIWJ+89Ku7J4CGHg+d4PsUzgDz9efLnsYqdMkll7LyS0EgsqUx4LoigJr+tfgCP95JYT87j9APImdAd0wDyqebrB5APiTemAZIvRvrhyTXtnxQKaC/sI+aa8Xrcw1Fx/fxlNcReN9gdBV3sDVe7o3UDB2XzAqRhA9gAhgXIQ1fTjADUgaYG8wBbEuYu9ExIeGAaoE2Sv94Oocht3L2Q1GAaoOzQwbgJJYMxHeSbTANgQ0d3UBLQ0TPXP0ujG2rvafXpoFJiGwBv2vsFPDqo8d0xAqwqJAW6y+FLl3MAlGYh7YwHUNJ2aM//4L1r7Mtg26v1HstQ1O+t50GvxH7f4L/wPS8bwAawAWyAP+zdMQrAIAxA0YAdXDopuCVHcMv9j9ahU1eltAn/n0AfgYwBAAAAAJCfBQAAAADwyrtsaPGgFR0me9V2euh6q1v/nx6+uSPQPEFDlrPg83/XLfRluU9HQD1FKquF3X/PDlnNkwQAAAAAAAAAAAAAAAAAAHCxX/9NacNwHMef1efDdLaltNAKKL90CAgyGCq6qXNzbo9+1/smt6Tp9tfu1tzt9V97PY68m+aS/wH+SYBwlOejJf5gOcrjO/xV/yjAxZHYQEvffwpYyGaXISrETzcJC1e3ny9geTwSJzAsnJt1CtCgOITY9WnItihLb2kIJgMY3lBkLfzyluIA0Oob4LlN220LprsXlnS/tdwAfPQ0wLbLsr5ZYJfR1Wy4AbpfvAwQd+h6C2gnHVa53jkBeB/5GGDOCt0USp6w2lXsBOB7DwNEHSqTYRQft/UFRGvM3+mFToAg9S/A1B7PE0Un0gPR2rPn6eB0cdSldu4E4JvIuwBbKhsUwoQilycDKrMYIu9T6dw5AXjmXYDn0vd7cCyGKLxYb1uEc+umHSDIfQvwgcrVCo5Wm+IWhrBHce8GYC/0LMCQ2scBLEadYATTlMrADcBzzwJgbGxxT0JYHp0JINYUrxUB2g3PAixoGJ+Nqgb6DNsTxYsZYELRD/0KEK5p6e9DaAlFA7ZTirUZYNCjWPgVAKsmbdlCJwgoItiGFPdmgEauHu/EfgXAasaS9QiFkKKNkpji2gqAM4obzwIAl313o+/OAPcHxnaA8JMetm8BgHSe0NRsmWvACLYpRc8OgJ0qllx4FwCItjfd8p52TbGH7ZViUgqAY4oHDwMAiM8SatehcVR+gK1PcV4OEOmLrGYB8ndi6ASw3X2ndgpgTxHEMKVU0nIApAFFzQIcULy6AWzRRyqfix5tiq+VZ4EMTgBs6hlgT/HNWsN+ABg0FbXQnVN5BwAzKouq0+CxHUAVrGWAlCKLzN3vDYCV8cYLT9Zf31GbLyGGh1TaFxUBMA3qGCDsUDwsgTwz58NYt1mhcEjlC6wpwM7jZWM53M8CahtUBcCmjgEwoRKME2pba86/OQVWcypJhMLyir/TjKoDRM06BvjJ3p20NAyEYRwfSVwRBPFiVdSTBc8+o1jqEtsqSlKXij0URa16cAHRg99eMOMyTKy105F36vu/9tLnR5tDApnqrjS6jt4mfoJUts0bvElZZrdVRTYAkiJBABxJo2O8dSkzuj6FqpktUIlhAqjOKQJEG8bjnzWk1aRRMcZH8ZY0Oyvhe4DoliAAllek1l0d7z1WpF6liS9t3hj7H+poAYCnXYIAiApF+dlz9HXis3aJWN2HXnNP/+00gJYAKFAEADbP1f+g/JJA76B2r3gOCyWYlS7U5+W92g7wE0B0SBIAQP0kbjZK68gounpqxCd1fNd6NWkk+2v4daQAyMYADMAADMAADMAADMAADMAADMAADMAADMAADNBmU+iJQosTT3uiRdFpAxPogcJZ0XGD/fC+YFiIbgpQf6Gi3X6zyX6/AdR+KwGfAdR+SwF/AdR+awFfAcIB0ZX6Aj8BtP1WDQc+Amj7rQX8A9D32wv4BmDstxbwC8DYb9106BOA2t9lAX8A1P6uC/gC4GC/EvADQO130MyUDwCO9isB+gDO9isB6gDu9isB6gAzIjv6R1n48r0YgAH+OUCAtBFBqhGkBcJ140gbE6QaQ9q4cN0C0sJ8H6HyIdIWhOtGQbol4bpcCMKFOeG8eRAuL9qrV0+fmhsSf1Dutb07NgEAhAEgGO0dQAsRVBDSBvcfzRWsQoq/RS7svtObuFh6Q9ItXuoIl3CVkcTTtJMDOTYFAAAAAAB8erzdYkAv8hbtAAAAAElFTkSuQmCC;" vertex="1" parent="1">
          <mxGeometry x="160" y="460" width="40" height="40" as="geometry" />
        </mxCell>
        <mxCell id="AO6FHdo3QItn0qnjrF7G-25" value="1" style="ellipse;whiteSpace=wrap;html=1;aspect=fixed;fillColor=#f5f5f5;fontColor=#333333;strokeColor=#666666;" vertex="1" parent="1">
          <mxGeometry x="270" y="310" width="20" height="20" as="geometry" />
        </mxCell>
        <mxCell id="jl1iMjbU4TVQH6fjh3ZI-3" value="" style="sketch=0;outlineConnect=0;fontColor=#232F3E;gradientColor=none;fillColor=#ED7100;strokeColor=none;dashed=0;verticalLabelPosition=bottom;verticalAlign=top;align=center;html=1;fontSize=12;fontStyle=0;aspect=fixed;pointerEvents=1;shape=mxgraph.aws4.lambda_function;" vertex="1" parent="1">
          <mxGeometry x="400" y="340" width="40" height="40" as="geometry" />
        </mxCell>
        <mxCell id="jl1iMjbU4TVQH6fjh3ZI-4" value="AWS Batch Jobs" style="sketch=0;points=[[0,0,0],[0.25,0,0],[0.5,0,0],[0.75,0,0],[1,0,0],[0,1,0],[0.25,1,0],[0.5,1,0],[0.75,1,0],[1,1,0],[0,0.25,0],[0,0.5,0],[0,0.75,0],[1,0.25,0],[1,0.5,0],[1,0.75,0]];outlineConnect=0;fontColor=#232F3E;fillColor=none;strokeColor=#ED7100;dashed=0;verticalLabelPosition=bottom;verticalAlign=top;align=center;html=1;fontSize=12;fontStyle=0;aspect=fixed;shape=mxgraph.aws4.resourceIcon;resIcon=mxgraph.aws4.batch;" vertex="1" parent="1">
          <mxGeometry x="440" y="440" width="80" height="80" as="geometry" />
        </mxCell>
        <mxCell id="jl1iMjbU4TVQH6fjh3ZI-5" value="OR" style="text;html=1;align=center;verticalAlign=middle;whiteSpace=wrap;rounded=0;" vertex="1" parent="1">
          <mxGeometry x="460" y="410" width="40" height="20" as="geometry" />
        </mxCell>
        <mxCell id="jl1iMjbU4TVQH6fjh3ZI-6" value="AWS Lambda Functions" style="sketch=0;outlineConnect=0;fontColor=#232F3E;gradientColor=none;fillColor=#ED7100;strokeColor=none;dashed=0;verticalLabelPosition=bottom;verticalAlign=top;align=center;html=1;fontSize=12;fontStyle=0;aspect=fixed;pointerEvents=1;shape=mxgraph.aws4.lambda_function;" vertex="1" parent="1">
          <mxGeometry x="460" y="340" width="40" height="40" as="geometry" />
        </mxCell>
        <mxCell id="jl1iMjbU4TVQH6fjh3ZI-7" value="" style="sketch=0;outlineConnect=0;fontColor=#232F3E;gradientColor=none;fillColor=#ED7100;strokeColor=none;dashed=0;verticalLabelPosition=bottom;verticalAlign=top;align=center;html=1;fontSize=12;fontStyle=0;aspect=fixed;pointerEvents=1;shape=mxgraph.aws4.lambda_function;" vertex="1" parent="1">
          <mxGeometry x="520" y="340" width="40" height="40" as="geometry" />
        </mxCell>
        <mxCell id="jl1iMjbU4TVQH6fjh3ZI-19" style="edgeStyle=orthogonalEdgeStyle;rounded=0;orthogonalLoop=1;jettySize=auto;html=1;exitX=1;exitY=0.5;exitDx=0;exitDy=0;entryX=0;entryY=0.5;entryDx=0;entryDy=0;strokeWidth=2;" edge="1" parent="1" source="jl1iMjbU4TVQH6fjh3ZI-8" target="jl1iMjbU4TVQH6fjh3ZI-17">
          <mxGeometry relative="1" as="geometry" />
        </mxCell>
        <mxCell id="jl1iMjbU4TVQH6fjh3ZI-8" value="&lt;b&gt;Optional Preprocessing&lt;/b&gt;" style="rounded=0;whiteSpace=wrap;html=1;fillColor=none;strokeWidth=2;verticalAlign=top;" vertex="1" parent="1">
          <mxGeometry x="360" y="280" width="240" height="280" as="geometry" />
        </mxCell>
        <mxCell id="jl1iMjbU4TVQH6fjh3ZI-10" value="" style="sketch=0;outlineConnect=0;fontColor=#232F3E;gradientColor=none;fillColor=#ED7100;strokeColor=none;dashed=0;verticalLabelPosition=bottom;verticalAlign=top;align=center;html=1;fontSize=12;fontStyle=0;aspect=fixed;pointerEvents=1;shape=mxgraph.aws4.lambda_function;" vertex="1" parent="1">
          <mxGeometry x="720" y="260" width="40" height="40" as="geometry" />
        </mxCell>
        <mxCell id="jl1iMjbU4TVQH6fjh3ZI-11" value="AWS Batch Jobs" style="sketch=0;points=[[0,0,0],[0.25,0,0],[0.5,0,0],[0.75,0,0],[1,0,0],[0,1,0],[0.25,1,0],[0.5,1,0],[0.75,1,0],[1,1,0],[0,0.25,0],[0,0.5,0],[0,0.75,0],[1,0.25,0],[1,0.5,0],[1,0.75,0]];outlineConnect=0;fontColor=#232F3E;fillColor=none;strokeColor=#ED7100;dashed=0;verticalLabelPosition=bottom;verticalAlign=top;align=center;html=1;fontSize=12;fontStyle=0;aspect=fixed;shape=mxgraph.aws4.resourceIcon;resIcon=mxgraph.aws4.batch;" vertex="1" parent="1">
          <mxGeometry x="760" y="360" width="80" height="80" as="geometry" />
        </mxCell>
        <mxCell id="jl1iMjbU4TVQH6fjh3ZI-12" value="OR" style="text;html=1;align=center;verticalAlign=middle;whiteSpace=wrap;rounded=0;" vertex="1" parent="1">
          <mxGeometry x="780" y="330" width="40" height="20" as="geometry" />
        </mxCell>
        <mxCell id="jl1iMjbU4TVQH6fjh3ZI-13" value="AWS Lambda Functions" style="sketch=0;outlineConnect=0;fontColor=#232F3E;gradientColor=none;fillColor=#ED7100;strokeColor=none;dashed=0;verticalLabelPosition=bottom;verticalAlign=top;align=center;html=1;fontSize=12;fontStyle=0;aspect=fixed;pointerEvents=1;shape=mxgraph.aws4.lambda_function;" vertex="1" parent="1">
          <mxGeometry x="780" y="260" width="40" height="40" as="geometry" />
        </mxCell>
        <mxCell id="jl1iMjbU4TVQH6fjh3ZI-14" value="" style="sketch=0;outlineConnect=0;fontColor=#232F3E;gradientColor=none;fillColor=#ED7100;strokeColor=none;dashed=0;verticalLabelPosition=bottom;verticalAlign=top;align=center;html=1;fontSize=12;fontStyle=0;aspect=fixed;pointerEvents=1;shape=mxgraph.aws4.lambda_function;" vertex="1" parent="1">
          <mxGeometry x="840" y="260" width="40" height="40" as="geometry" />
        </mxCell>
        <mxCell id="jl1iMjbU4TVQH6fjh3ZI-15" value="OR" style="text;html=1;align=center;verticalAlign=middle;whiteSpace=wrap;rounded=0;" vertex="1" parent="1">
          <mxGeometry x="780" y="470" width="40" height="20" as="geometry" />
        </mxCell>
        <mxCell id="jl1iMjbU4TVQH6fjh3ZI-16" value="AWS Glue Job" style="sketch=0;points=[[0,0,0],[0.25,0,0],[0.5,0,0],[0.75,0,0],[1,0,0],[0,1,0],[0.25,1,0],[0.5,1,0],[0.75,1,0],[1,1,0],[0,0.25,0],[0,0.5,0],[0,0.75,0],[1,0.25,0],[1,0.5,0],[1,0.75,0]];outlineConnect=0;fontColor=#232F3E;fillColor=none;strokeColor=#8C4FFF;dashed=0;verticalLabelPosition=bottom;verticalAlign=top;align=center;html=1;fontSize=12;fontStyle=0;aspect=fixed;shape=mxgraph.aws4.resourceIcon;resIcon=mxgraph.aws4.glue;" vertex="1" parent="1">
          <mxGeometry x="760" y="520" width="80" height="80" as="geometry" />
        </mxCell>
        <mxCell id="jl1iMjbU4TVQH6fjh3ZI-24" style="edgeStyle=orthogonalEdgeStyle;rounded=0;orthogonalLoop=1;jettySize=auto;html=1;exitX=1;exitY=0.5;exitDx=0;exitDy=0;entryX=0;entryY=0.5;entryDx=0;entryDy=0;strokeWidth=2;" edge="1" parent="1" source="jl1iMjbU4TVQH6fjh3ZI-17" target="jl1iMjbU4TVQH6fjh3ZI-23">
          <mxGeometry relative="1" as="geometry" />
        </mxCell>
        <mxCell id="jl1iMjbU4TVQH6fjh3ZI-17" value="&lt;b&gt;Transformation Pipeline&lt;/b&gt;" style="rounded=0;whiteSpace=wrap;html=1;fillColor=none;strokeWidth=2;verticalAlign=top;" vertex="1" parent="1">
          <mxGeometry x="680" y="200" width="240" height="440" as="geometry" />
        </mxCell>
        <mxCell id="jl1iMjbU4TVQH6fjh3ZI-20" value="2" style="ellipse;whiteSpace=wrap;html=1;aspect=fixed;fillColor=#f5f5f5;fontColor=#333333;strokeColor=#666666;" vertex="1" parent="1">
          <mxGeometry x="590" y="270" width="20" height="20" as="geometry" />
        </mxCell>
        <mxCell id="jl1iMjbU4TVQH6fjh3ZI-21" value="3" style="ellipse;whiteSpace=wrap;html=1;aspect=fixed;fillColor=#f5f5f5;fontColor=#333333;strokeColor=#666666;" vertex="1" parent="1">
          <mxGeometry x="910" y="190" width="20" height="20" as="geometry" />
        </mxCell>
        <mxCell id="jl1iMjbU4TVQH6fjh3ZI-23" value="&lt;b&gt;Output Data Store&lt;/b&gt;" style="rounded=0;whiteSpace=wrap;html=1;fillColor=none;verticalAlign=middle;strokeWidth=2;" vertex="1" parent="1">
          <mxGeometry x="1000" y="360" width="120" height="120" as="geometry" />
        </mxCell>
        <mxCell id="jl1iMjbU4TVQH6fjh3ZI-25" value="4" style="ellipse;whiteSpace=wrap;html=1;aspect=fixed;fillColor=#f5f5f5;fontColor=#333333;strokeColor=#666666;" vertex="1" parent="1">
          <mxGeometry x="1110" y="350" width="20" height="20" as="geometry" />
        </mxCell>
      </root>
    </mxGraphModel>
  </diagram>
</mxfile>
